<svg width="517" height="514" viewBox="0 0 517 514" fill="none" xmlns="http://www.w3.org/2000/svg">
<rect x="286.952" y="282.109" width="59.4973" height="118.838" transform="rotate(-55.983 286.952 282.109)" fill="#FAF2E3"/>
<path d="M310.297 242.99L309.897 244.99L267.967 254.51L267.657 252.92L267.617 252.35L310.297 242.99Z" fill="#5B3C36"/>
<path d="M118.487 153.18C118.157 146.99 118.337 140.92 121.017 135.15C121.497 134.12 121.807 133.12 121.707 132.02L132.607 129.63C132.327 130.73 131.577 132.51 131.427 133.99C131.007 138.02 130.857 142.21 131.357 146.24C131.697 148.95 133.177 151.67 134.217 154.01C135.697 157.34 137.557 159.57 140.217 161.9C142.417 163.83 144.297 166 147.157 166.99C150.257 168.08 152.887 169.3 156.297 169.36C159.147 169.41 158.797 176.42 160.327 178.44C162.387 181.16 162.507 183.7 160.077 186.36C158.917 187.63 158.167 190.04 155.717 189.7C152.837 176.33 145.267 172.05 132.047 170.79L128.467 164.04L125.977 160.46C123.957 157.56 121.197 155.05 118.497 153.18H118.487Z" fill="#B48264"/>
<path d="M121.707 132.02C121.807 133.12 121.497 134.11 121.017 135.15C118.337 140.93 118.157 146.99 118.487 153.18C112.617 149.11 106.137 146.08 99.0567 145.53C103.397 136.04 112.097 134.25 121.707 132.02Z" fill="#DAAB83"/>
<path d="M135.547 123.55C135.267 124.71 134.357 126.11 133.777 127.2L113.747 132.04C108.347 133.37 103.577 135.92 100.047 139.91C97.4367 137.46 92.8467 138.73 92.4567 136.69C95.9567 133.35 100.437 131.06 105.477 129.72C115.487 127.06 125.447 125.25 135.557 123.55H135.547Z" fill="#DAAB83"/>
<path d="M136.487 121.08C137.067 122.27 135.717 122.86 135.547 123.55C125.437 125.25 115.477 127.06 105.467 129.72C100.427 131.06 95.9467 133.35 92.4467 136.69C89.6667 139.34 87.3867 142.65 86.5367 146.54C85.8867 146.76 84.8067 146.82 84.2067 147.12C84.6667 144.68 85.2167 142.26 86.5667 140.38L87.3167 139.33C92.8367 131.63 101.467 128.28 110.617 126.23L111.257 126.09L116.727 124.9C120.057 124.18 123.707 123.97 126.837 122.63C126.997 122.56 127.367 122.63 127.557 122.69L136.457 121.08H136.487Z" fill="#5B3C36"/>
<path d="M133.777 127.2C133.407 127.89 132.787 128.94 132.607 129.63L121.707 132.02C112.097 134.25 103.397 136.03 99.0567 145.53L97.2667 145.22C97.6567 143.27 98.7667 141.35 100.047 139.91C103.577 135.92 108.357 133.37 113.747 132.04L133.777 127.2Z" fill="#5B3C36"/>
<path d="M100.047 139.9C98.7668 141.35 97.6568 143.26 97.2668 145.21C93.6968 144.6 90.0468 145.32 86.5468 146.53C87.3968 142.64 89.6768 139.33 92.4568 136.68C92.8468 138.72 97.4368 137.45 100.047 139.9Z" fill="#B48264"/>
<path d="M310.927 254.62L309.877 254.64L309.737 253.53L309.827 252.69L311.247 253.41C311.617 253.59 311.367 254.37 310.937 254.62H310.927Z" fill="#9E6C57"/>
<path d="M510.037 294.15C503.117 297.98 495.137 298.19 487.797 295.19C485.977 294.44 484.137 294.51 481.247 294.56C482.537 295.57 484.357 296.14 485.817 296.85C486.497 297.67 487.107 298.23 488.187 298.54C491.287 301.38 493.287 304.96 494.837 308.75C494.927 309.27 494.927 309.91 494.777 310.25C494.257 311.36 480.737 309.7 475.177 296L473.907 293.45L462.307 292.61C468.997 297.03 474.167 301.97 474.407 310.57C461.387 307.55 458.607 300.52 454.227 290.71C454.027 290.27 453.887 289.6 454.087 288.9L462.947 290.17C467.667 281.48 477.147 277.51 487.067 278.37C483.727 285.97 477.197 289.52 469.437 291.53C475.137 292.79 480.987 292.87 486.967 292.72C490.827 289.81 495.017 288.12 499.757 287.92C504.687 287.89 509.377 289.04 513.687 291.41C512.467 293.21 511.177 293.53 510.027 294.16L510.037 294.15ZM484.977 279.77C476.467 278.76 469.087 283.11 464.457 290.25C473.207 290.05 480.757 287.12 484.977 279.77ZM511.357 291.68L506.037 289.84C499.957 287.73 493.217 289.27 488.267 293.75C496.037 297.59 504.437 296.62 511.357 291.68ZM456.477 291.69C458.687 300.12 464.577 306.29 472.787 308.39C471.887 300.19 464.027 293.99 456.477 291.69ZM476.147 294.15C478.917 302.08 485.037 307.87 493.197 309.04C490.857 300.82 484.157 296.67 476.147 294.15Z" fill="#9E6C57"/>
<path d="M454.097 288.89C453.897 289.6 454.037 290.26 454.237 290.7C450.717 290.76 447.737 288.84 444.227 289.79L448.077 293.53C445.867 294.63 452.837 299.4 452.417 305.54C445.417 303.5 440.197 297.94 438.587 291.13C438.317 289.99 437.527 289.48 436.627 289.44C436.377 288.94 436.197 287.37 435.397 287.03C425.367 284.49 415.777 281.53 406.327 277.81C406.237 277.47 406.297 276.95 406.357 276.75C406.467 276.44 407.027 276.15 407.667 276.37C417.827 279.94 427.667 283.61 438.377 285.45L443.477 283.67C445.817 282.85 446.307 278.9 449.717 278.7C447.687 281.48 445.087 283.25 443.787 286.57C449.767 286.15 454.847 283.97 459.747 281.13C457.377 285.47 452.797 285.61 449.047 287.43C450.757 288.51 452.577 288.65 454.097 288.87V288.89ZM442.327 284.48V284.95V285.44V285.91L442.347 285.44V284.95V284.48H442.327ZM442.927 288.91L442.627 289.21L442.927 289.51L443.227 289.21L442.927 288.91Z" fill="#B48264"/>
<path d="M488.197 298.53C487.107 298.21 486.497 297.66 485.827 296.84C486.577 296.37 487.237 295.98 487.797 295.19C495.147 298.2 503.117 297.99 510.037 294.15C510.307 294.8 510.787 295.25 511.957 296.09C504.687 300.71 496.287 300.88 488.197 298.54V298.53Z" fill="#B48264"/>
<path d="M448.077 293.54C451.767 297.13 454.417 301.76 453.917 308.01C445.027 305.75 438.277 298.22 436.627 289.46C437.527 289.5 438.317 290 438.587 291.15C440.197 297.95 445.407 303.51 452.417 305.56C452.837 299.42 445.867 294.65 448.077 293.55V293.54Z" fill="#9E6C57"/>
<path d="M450.447 278.75C450.817 278.75 451.117 278.45 451.117 278.08C451.117 277.71 450.817 277.41 450.447 277.41C450.077 277.41 449.777 277.71 449.777 278.08C449.777 278.45 450.077 278.75 450.447 278.75Z" fill="#B48264"/>
<path d="M451.959 276.888L451.655 277.192L451.959 277.496L452.263 277.192L451.959 276.888Z" fill="#B48264"/>
<path d="M511.357 291.68C504.447 296.62 496.037 297.59 488.267 293.75C493.217 289.27 499.957 287.73 506.037 289.84L511.357 291.68Z" fill="#DAAB83"/>
<path d="M456.477 291.69C464.027 293.99 471.887 300.19 472.787 308.39C464.577 306.3 458.677 300.12 456.477 291.69Z" fill="#DAAB83"/>
<path d="M484.977 279.77C480.747 287.11 473.207 290.05 464.457 290.25C469.087 283.11 476.467 278.76 484.977 279.77Z" fill="#DAAB83"/>
<path d="M476.147 294.15C484.157 296.67 490.857 300.82 493.197 309.04C485.037 307.88 478.917 302.08 476.147 294.15Z" fill="#DAAB83"/>
<path d="M487.797 295.19C487.227 295.98 486.577 296.37 485.827 296.84C484.367 296.14 482.547 295.56 481.257 294.55C484.137 294.5 485.987 294.44 487.807 295.18L487.797 295.19Z" fill="#DAAB83"/>
<path d="M442.327 284.48L442.337 284.95V285.44L442.327 285.91L442.317 285.44V284.95L442.327 284.48Z" fill="#DAAB83"/>
<path d="M442.937 288.912L442.633 289.216L442.937 289.52L443.241 289.216L442.937 288.912Z" fill="#DAAB83"/>
<path d="M154.897 334.51C147.067 336.92 138.807 334.02 134.487 327.4C129.767 320.16 128.737 311.08 129.477 302.44C140.377 304.71 152.947 304.98 161.147 298.36L161.447 325.58C161.497 330.19 159.187 333.19 154.887 334.51H154.897ZM134.017 318.37C133.407 320 133.067 321.73 133.917 323.59C135.987 328.14 143.337 327.12 148.907 325.03C149.637 324.76 151.887 324.34 151.327 323.25C149.657 320.2 149.547 316.91 152.627 314.48C153.347 313.91 151.817 311.84 150.977 312.38C148.077 314.24 148.117 318.16 146.647 318.41C145.577 317.75 145.457 317.02 144.967 316C143.287 312.47 144.017 309.58 142.597 309.03C142.317 308.92 141.617 308.99 141.277 309.36L136.347 314.62C135.197 315.84 134.507 317.05 134.017 318.37Z" fill="#515763"/>
<path d="M124.827 262.55C126.457 262.48 127.967 263.24 128.797 264.74L131.537 269.74L135.367 282.68C135.647 283.64 135.607 284.83 136.167 285.39C137.937 287.12 147.657 283.94 158.157 290.01C159.747 290.93 161.757 292.9 161.037 294.79C157.447 304.17 126.707 303.8 122.267 295.42C120.727 292.52 123.637 290.63 125.687 289.44C127.147 288.59 125.567 286.27 125.267 285.11L121.637 270.91L121.597 266.64C121.577 264.38 122.717 262.63 124.817 262.55H124.827ZM128.197 268.46C128.277 266.79 126.927 264.23 125.127 264.43C122.937 264.68 122.697 268.82 124.417 269.52C125.627 270.01 127.357 269.11 128.197 268.46ZM133.577 296.95C132.107 296.78 130.577 296.55 129.297 295.76C128.017 294.97 127.657 293.17 127.347 291.21C125.787 291.32 125.157 292.69 125.187 294.01C125.337 301.54 157.407 301.61 157.947 293.94C158.317 288.76 145.037 286.91 137.097 287.91L139.427 295.55C139.557 295.97 140.217 296.5 139.967 296.96C139.587 297.68 138.777 297.54 138.067 297.46L129.417 270.12C128.287 270.5 127.627 270.93 126.857 271.56L132.837 292.59C133.277 294.13 133.817 295.48 133.567 296.95H133.577Z" fill="#515763"/>
<path d="M144.967 316.01C145.457 317.03 145.567 317.76 146.647 318.42C148.577 319.61 150.357 322.49 148.917 325.02C143.337 327.12 135.987 328.13 133.927 323.58C133.077 321.72 133.417 319.99 134.027 318.36C135.527 318.93 135.707 316.91 136.297 316.4C137.657 315.88 139.757 315.12 141.337 314.83L144.977 316L144.967 316.01Z" fill="#D5BBDB"/>
<path d="M144.967 316.01L141.327 314.84C139.747 315.13 137.647 315.89 136.287 316.41C135.707 316.91 135.517 318.94 134.017 318.37C134.507 317.06 135.197 315.85 136.347 314.62L141.277 309.36C141.617 308.99 142.317 308.92 142.597 309.03C144.017 309.58 143.287 312.47 144.967 316V316.01Z" fill="#B2A8D3"/>
<path d="M148.907 325.02C150.347 322.48 148.567 319.6 146.637 318.42C148.117 318.17 148.077 314.25 150.967 312.39C151.807 311.85 153.337 313.92 152.617 314.49C149.537 316.92 149.657 320.21 151.317 323.26C151.887 324.35 149.627 324.76 148.897 325.04L148.907 325.02Z" fill="#688E8D"/>
<path d="M133.577 296.95L138.077 297.47C138.777 297.55 139.587 297.69 139.977 296.97C140.227 296.5 139.567 295.98 139.437 295.56L137.107 287.92C145.047 286.92 158.327 288.77 157.957 293.95C157.417 301.61 125.347 301.54 125.197 294.02C125.167 292.7 125.797 291.33 127.357 291.22C127.657 293.18 128.037 294.99 129.307 295.77C130.577 296.55 132.117 296.79 133.587 296.96L133.577 296.95Z" fill="#5B3C36"/>
<path d="M138.077 297.47L133.577 296.95C133.827 295.49 133.287 294.13 132.847 292.59L126.867 271.56C127.627 270.93 128.287 270.49 129.427 270.12L138.077 297.46V297.47Z" fill="#688E8D"/>
<path d="M128.197 268.46C127.357 269.11 125.627 270.02 124.417 269.52C122.697 268.82 122.947 264.68 125.127 264.43C126.927 264.22 128.277 266.79 128.197 268.46Z" fill="#688E8D"/>
<path d="M405.277 226.73L408.857 228.31C410.177 228.89 411.327 228.95 412.077 227.56C414.377 227.98 417.347 228.84 419.587 230.31C420.647 231.77 417.837 233.65 416.547 234.14L412.417 235.74C409.767 236.77 406.757 236.88 405.127 239.78L408.347 243.08C408.207 243.96 408.237 245.13 409.207 245.66C409.807 245.99 410.867 246.17 411.717 246.24C411.907 246.25 412.257 246.02 412.447 245.93C412.047 249.51 407.257 246.67 406.237 253.3C405.927 255.33 400.95 231.59 403.5 232.5C406.4 233.53 417.027 231.36 419.587 230.31L463.007 246.21C462.037 247.48 501.927 268.23 499.757 268.7C522 273.13 437.157 277.95 438.367 278.75C441.427 290.46 425.797 272.39 434.717 277.4C438.167 275.7 438.587 279.33 442.907 277.17L462.857 273.13C463.647 275.56 452.577 275.74 454.517 275.75C455.347 275.75 456.447 276.48 457.197 276.29C458.087 276.06 462.197 274.03 462.857 273.13L467.417 264.34C466.337 266.62 470.727 263.63 467.417 264.34L473.007 252.58L463.347 248.3C462.717 248.02 462.467 247.75 462.417 247.13C462.387 246.74 462.847 246.47 463.007 246.21L472.697 249.81C474.307 250.44 474.547 250.6 476.127 251.19C476.007 251.5 475.877 252.12 475.977 252.54C476.147 253.27 476.937 253.59 477.667 253.87L489.877 258.55L515.987 268.7L515.967 300.54C514.727 300.22 513.717 301.09 512.437 301.61L494.837 308.72C493.287 304.93 491.287 301.35 488.187 298.51C496.277 300.86 504.677 300.68 511.947 296.06C510.777 295.22 510.297 294.77 510.027 294.12C511.177 293.48 512.457 293.17 513.687 291.37C509.377 289 504.687 287.85 499.757 287.88C495.017 288.09 490.817 289.77 486.967 292.68C480.997 292.83 475.137 292.74 469.437 291.49C477.207 289.48 483.737 285.93 487.067 278.33C477.147 277.47 467.667 281.45 462.947 290.13L454.087 288.86C452.567 288.64 450.747 288.5 449.037 287.42C452.787 285.6 457.367 285.46 459.737 281.12C454.837 283.96 449.757 286.13 443.777 286.56C445.077 283.24 447.677 281.46 449.707 278.69C446.297 278.89 445.807 282.84 443.467 283.66L438.367 285.44C427.657 283.6 417.827 279.93 407.657 276.36C407.017 276.13 406.457 276.43 406.347 276.74C406.277 276.93 406.227 277.45 406.317 277.8C415.767 281.52 425.357 284.49 435.387 287.02C436.187 287.36 436.367 288.93 436.617 289.43C438.267 298.2 445.017 305.72 453.907 307.98C454.407 301.72 451.757 297.1 448.067 293.51L444.217 289.77C447.727 288.82 450.707 290.74 454.227 290.68C458.607 300.5 461.377 307.53 474.407 310.54C474.157 301.94 468.997 297 462.307 292.58L473.907 293.42L475.177 295.97C473.587 296.04 472.597 294.8 471.867 294.98C471.467 295.08 470.747 295.31 470.877 296.38C471.357 296.38 473.077 296.56 473.557 297.1C475.237 304.27 480.597 308.72 487.507 311.01C468.897 317.46 451.067 322.07 432.607 327.02C405.407 334.31 378.937 342.08 352.377 351.46L310.407 368.81C310.107 368.93 310.377 370.02 310.557 370.15C310.737 370.28 311.007 370.74 311.527 370.51L334.967 360.45L373.327 346.43L426.537 330.59L435.617 328.22L488.317 312.98C490.527 312.34 492.067 311.65 494.677 313.4C494.547 310.87 495.607 310.47 497.247 309.82L512.367 303.85C513.667 303.34 514.687 302.45 515.997 302.7V312.57L488.347 321.58L237.937 403.46C233.107 405.04 228.607 405.19 224.107 405.43C224.277 404.84 224.597 404.42 225.307 404.13L266.607 387.13L282.267 379.94C287.807 377.4 294.657 372.67 292.557 368.4C291.877 367.02 284.917 363.57 282.857 366.63C286.137 367.44 289.077 367.72 291.637 370.19C289.067 373.93 285.327 376.57 281.237 378.37L254.087 390.27L222.217 403.44C221.707 403.65 221.437 404.27 221.287 404.74L216.297 403.99C211.707 402.28 207.377 400.18 203.687 397.32C205.267 397.34 206.717 396.8 208.347 396.22L224.737 390.35C231.717 387.85 249.777 379.23 248.757 375.34C247.607 370.95 236.037 374.36 229.477 375.23C218.077 376.74 206.917 377.96 195.687 380.56L182.147 384.74L171.427 378.33L181.917 373.94C195.617 368.21 209.077 363.01 223.597 359.74C227.507 358.86 231.637 357.76 235.667 358.17C238.757 359.5 241.597 362.4 244.227 364.52L248.277 367.79C252.207 370.96 260.337 372.95 261.567 369.92C263.277 371.21 266.697 370.15 268.757 369.44L307.667 355.91L378.597 331.9L421.427 318.19C422.207 318.62 423.197 318.38 423.457 317.57C423.597 317.57 423.787 317.58 423.897 317.63C424.097 317.72 424.597 317.81 424.837 317.7C425.137 317.57 425.317 317 425.367 316.63L425.467 316.03H427.057C429.207 316.03 431.737 315.01 433.717 313.61C434.987 312.71 434.687 310.69 434.287 309.56C433.757 308.06 432.337 307.36 430.717 307.27L430.537 306.49C430.237 305.17 429.617 304.04 428.327 303.14L405.027 286.79L386.057 273.74L370.367 262.51L353.357 250.66C352.627 250.15 351.857 249.9 351.117 249.66L353.097 243.85L353.637 234.86L381.037 228.76L391.127 226.5C395.927 225.43 400.757 225.53 405.267 226.69L405.277 226.73ZM451.957 276.88L451.657 277.18L451.957 277.48L452.257 277.18L451.957 276.88ZM451.117 278.08C451.117 277.71 450.817 277.41 450.447 277.41C450.077 277.41 449.777 277.71 449.777 278.08C449.777 278.45 450.077 278.75 450.447 278.75C450.817 278.75 451.117 278.45 451.117 278.08Z" fill="#DAAB83"/>
<path d="M515.997 336.05C515.017 335.84 514.137 336.03 512.877 336.46L444.547 359.37L426.357 365.42L389.117 378.02L265.677 419.23L238.567 428.34C234.017 429.87 229.567 430.75 225.067 430.87L224.927 407.36C229.357 407.36 233.897 406.85 238.717 405.28L369.677 362.57L515.987 315.02V336.03L515.997 336.05Z" fill="#B48264"/>
<path d="M219.977 265.3L182.407 273.98L139.337 283.85C146.297 284.25 152.617 284.57 158.507 287.95C160.337 289 162.927 290.69 162.917 293.15L162.817 329.71C162.807 333.86 152.617 338.39 145.797 338.75C136.757 339.23 122.097 337.65 120.317 329.73L120.017 320.15L119.947 302.06V300.42L120.347 292L123.997 287.44L58.6767 302.32C56.4367 302.83 54.3467 304.38 53.9467 306.47C53.7167 307.66 54.9467 309.31 55.9167 309.91L67.2367 316.87L69.6267 318.39L126.177 351.76L128.407 352.98L151.927 366.83L153.877 368.32L170.667 378.09L171.427 378.38L182.147 384.79C182.797 385.16 183.637 385.77 184.337 386.17L202.637 396.75L203.687 397.36C207.387 400.22 211.707 402.32 216.297 404.03L221.287 404.78L224.117 405.49C228.617 405.24 233.117 405.1 237.947 403.52L488.357 321.64L515.997 312.63V315.05L369.697 362.6L238.737 405.31C233.917 406.88 229.377 407.4 224.947 407.39C217.917 407.39 211.937 404.87 205.747 401.21L132.487 357.9L79.5767 326.64L53.3267 310.86C52.6567 317.13 52.6967 322.77 53.2367 328.62C53.5067 331.58 55.2767 333.96 57.9267 335.01L65.5167 340.19L169.507 402.61L209.787 426.71C214.677 429.64 219.717 431.03 225.107 430.88C229.607 430.76 234.057 429.88 238.607 428.35L265.717 419.24L389.157 378.03L426.397 365.43L444.587 359.38L512.917 336.47C514.177 336.05 515.057 335.86 516.037 336.06V337.91L489.927 346.6L488.387 347.07L451.287 359.43L418.017 370.6L418.147 393.61C418.167 396.61 417.997 399.54 418.507 402.11C418.427 406.8 416.407 410.03 411.727 411.45C408.977 412.29 405.807 414.92 402.637 414.09C398.437 412.99 394.427 410.49 390.897 408.11C389.207 406.96 389.377 404.55 388.587 403.3L388.707 380.33L305.907 407.92L308.877 418.37L311.967 430.31C312.757 433.36 310.947 435.87 308.127 437.08L306.107 437.95C304.207 438.77 302.227 439.58 300.107 439.27C299.597 438.81 298.397 438.63 297.767 438.88C296.887 437.39 294.927 437.47 293.557 436.74C292.897 436.39 292.167 435.55 291.327 435.91C288.747 432.47 287.887 428.16 286.547 424.16L285.947 422.37L283.997 415.36L272.507 419.14L270.577 419.79L268.757 420.45L266.377 421.12L261.907 422.72L250.227 426.54C249.967 426.63 249.557 427.03 249.557 427.28L249.487 513.27H247.537L247.647 442.75V427.46L232.087 432.22L232.037 447.45L231.907 513.25L229.737 513.28L230.047 432.67L217.437 432.47L217.467 513.27L214.927 513.29L215.407 431.56C212.087 430.45 209.537 429.04 206.747 427.4L197.637 422.05C196.247 421.23 195.157 419.65 192.707 419.14L191.817 427.3C191.777 427.65 191.717 428.18 191.567 428.47L187.967 464.23C187.747 466.45 185.987 468.12 184.127 468.87L179.017 471L177.987 471.05C177.227 471.09 176.067 471.82 175.057 471.65C171.957 471.12 169.787 468.85 167.327 467.51L166.557 467.09C165.297 464.42 165.717 461.68 165.957 458.53L166.577 450.1C166.607 449.75 166.817 449.2 166.867 448.91L168.447 432.69L168.627 431.46L170.237 417.01L170.197 415.81L171.117 406.24C170.597 404.96 168.267 403.8 167.087 403.78H166.767C166.667 402.3 165.157 402.4 164.277 401.87L125.357 378.4L115.337 414.51C115.237 414.86 115.267 415.3 115.277 415.66C114.837 416.21 114.857 416.96 114.677 417.56L113.017 423.08C112.127 426.03 110.217 427.84 107.297 428.7L102.187 430.2C101.927 430.28 101.667 430.54 101.477 430.7L98.0767 430.73L97.4367 430.2C97.3067 430.1 96.9967 430.13 96.8167 430.14C96.1667 429.28 95.1967 428.68 94.1567 428.55L94.3767 432.54C94.3967 432.98 94.4367 433.62 94.2667 434.02C93.4467 435.88 93.4067 441.24 94.4267 442.94C94.4067 443.6 94.5767 444.8 93.9867 445.39L93.9067 491.15C93.6667 493.42 91.5767 494.78 89.6067 495.76L88.6967 496.21L81.2267 498.98C79.6867 499.55 78.5967 499.96 77.1467 499.91C76.4967 498.55 74.9967 498.78 73.9767 498.2L66.3667 493.83C66.0767 493.66 65.7867 493.48 65.5467 493.24C64.2467 491.93 62.8067 490.66 63.0167 488.69L62.8667 479.49L62.7467 340.94L55.8767 336.39C53.6267 334.9 51.4367 332.59 51.3967 329.63L51.0867 308.79C51.0267 304.51 53.7167 301.46 57.8367 300.48L88.4567 293.24C89.5567 292.98 90.8167 292.52 91.8467 292.3L119.777 286.23C121.697 285.81 123.397 285.07 125.277 285.13C125.577 286.29 127.157 288.61 125.697 289.46C123.647 290.65 120.737 292.54 122.277 295.44C126.717 303.82 157.467 304.2 161.047 294.81C161.767 292.93 159.757 290.95 158.167 290.03C147.667 283.96 137.937 287.13 136.177 285.41C135.607 284.86 135.657 283.66 135.377 282.7C137.837 282.26 140.427 281.63 142.617 280.63C143.137 280.39 144.197 280.16 144.767 280.12C148.787 279.83 152.797 278.55 156.717 277.65L212.517 264.9C213.807 264.61 215.387 264.43 216.517 263.87C217.427 263.42 219.917 264.36 219.987 265.32L219.977 265.3ZM154.897 334.51C159.197 333.19 161.507 330.18 161.457 325.58L161.157 298.36C152.957 304.98 140.387 304.71 129.487 302.44C128.737 311.08 129.777 320.16 134.497 327.4C138.817 334.03 147.067 336.92 154.907 334.51H154.897ZM77.4367 497.3L77.4567 349.71L64.7067 342.09L64.6267 487.28C64.6767 489.51 65.7467 490.57 67.1567 491.82C70.3567 493.78 73.2867 495.99 77.4367 497.31V497.3ZM79.2967 366.38V497.36C82.8667 496.77 85.9367 494.96 89.2167 493.73C91.4167 492.91 92.5567 491.47 92.5567 488.9V374.23L92.4967 358.73L79.5167 351.14L79.2967 366.39V366.38ZM105.477 366.27L95.4867 360.48C95.0867 360.24 94.0267 360.42 94.0867 360.7L94.3067 361.77L94.7067 404.74L105.487 366.27H105.477ZM98.4367 427.59L113.967 371.57L107.067 367.79L94.5067 413.97L94.4567 426.07C94.4567 427.18 98.0867 428.82 98.4267 427.6L98.4367 427.59ZM404.197 386.79V411.97C407.947 411.09 411.217 409.46 414.577 407.61C415.617 407.04 416.057 405.55 416.057 404.37V382.91L416.047 371.14L404.317 375.16L404.197 386.79ZM110.907 422.88L123.477 377.56L115.767 372.67L100.467 428.41L106.967 426.57C108.667 426.09 110.307 425.02 110.907 422.87V422.88ZM394.737 408.18L402.227 411.76L402.167 375.74L390.847 379.8L390.757 400.19C390.737 403.56 391.307 406.54 394.737 408.18ZM173.507 468.55L179.607 411.22L173.067 407.3L167.667 459.06C167.477 460.86 167.007 462.84 167.777 464.49C168.767 466.6 171.347 468.23 173.507 468.55ZM310.057 430.58L303.777 408.95C300.107 409.51 297.037 410.41 293.947 412.31L301.317 437.05C306.457 436.17 311.167 434.39 310.067 430.58H310.057ZM186.117 463.22L190.807 417.8L181.407 412.38L175.417 469.45C180.407 468.36 185.697 467.25 186.117 463.22ZM298.957 436.41L292.157 412.8C289.857 413.16 287.957 413.77 285.877 415.16L291.447 432.31C292.317 435.01 296.147 435.95 298.957 436.41Z" fill="#5B3C36"/>
<path d="M516.007 266.2V268.72L489.887 258.57C490.097 257.69 490.307 257.23 490.727 256.8L508.487 263.48L516.007 266.2Z" fill="#9E6C57"/>
<path d="M475.177 295.99C480.737 309.69 494.267 311.35 494.777 310.24C494.937 309.9 494.937 309.26 494.837 308.74L512.437 301.63C513.727 301.11 514.727 300.24 515.967 300.56L515.997 302.75C514.697 302.5 513.677 303.38 512.367 303.9L497.247 309.87C495.607 310.52 494.547 310.91 494.677 313.45C492.067 311.69 490.527 312.39 488.317 313.03L435.617 328.27L426.537 330.64L373.327 346.48L334.967 360.5L311.527 370.56C310.997 370.79 310.737 370.33 310.557 370.2C310.377 370.07 310.107 368.99 310.407 368.86L352.377 351.51C378.937 342.12 405.397 334.36 432.607 327.07C451.067 322.12 468.907 317.51 487.507 311.06C480.597 308.77 475.237 304.31 473.557 297.15C473.077 296.61 471.357 296.44 470.877 296.43C470.737 295.35 471.457 295.13 471.867 295.03C472.597 294.85 473.577 296.08 475.177 296.02V295.99Z" fill="#B48264"/>
<path d="M266.347 421.11C266.527 422.23 265.757 422.66 265.157 422.84C264.077 423.16 262.727 423.07 261.877 422.71L266.347 421.11Z" fill="#D5BBDB"/>
<path d="M249.527 427.26C249.527 427.02 249.937 426.61 250.197 426.52L249.527 427.26Z" fill="#AE8ABF"/>
<path d="M381.537 226.66L381.047 228.79L353.647 234.89C353.687 234.18 353.787 233.29 353.647 232.64L381.537 226.66Z" fill="#5B3C36"/>
<path d="M392.057 224.11C396.407 223.06 400.907 223.32 405.177 224.62L405.277 226.72C400.767 225.56 395.927 225.46 391.137 226.53L381.047 228.79L381.537 226.66L392.057 224.11Z" fill="#9E6C57"/>
<path d="M482.857 253.71L490.727 256.8C490.307 257.22 490.097 257.68 489.887 258.57L477.677 253.89C476.937 253.61 476.157 253.29 475.987 252.56C475.887 252.14 476.007 251.51 476.137 251.21L482.857 253.72V253.71Z" fill="#B48264"/>
<path d="M188.427 292.69C188.257 293.19 187.877 293.65 187.277 293.98L182.547 296.57L182.097 300.81C180.207 301.06 178.497 302.12 178.197 303.82C177.797 306.09 178.647 307.39 180.497 308.79L261.567 369.96C260.337 372.99 252.197 371 248.277 367.83L244.227 364.56C241.597 362.44 238.757 359.54 235.667 358.21C231.637 357.8 227.497 358.91 223.597 359.78C209.077 363.04 195.617 368.25 181.917 373.98L171.427 378.37L170.667 378.08C170.687 377.64 170.577 376.84 170.827 376.53C171.057 376.25 171.907 376.21 172.467 375.98L199.657 364.74C210.667 360.84 221.467 358.01 233.177 355.78L217.767 344.46C195.717 351.6 174.557 359.32 153.867 368.31L151.917 366.82C152.457 365.39 153.717 365.62 154.987 365.12C175.137 357.09 195.047 349.73 216.137 342.94L202.037 331.85L128.397 352.98L126.167 351.76L152.657 344.11L195.537 331.82C196.987 331.4 198.347 331.12 199.137 329.95L169.537 307.01L167.917 302.66C168.577 300.82 170.867 299.46 172.747 298.73L188.407 292.67L188.427 292.69Z" fill="#B48264"/>
<path d="M203.677 397.36L202.627 396.75L213.937 392.25C224.377 388.21 234.647 384.53 244.127 378.56C245.317 377.81 246.437 377.02 246.647 375.56C243.967 374.8 241.327 374.88 238.727 375.5C232.747 376.92 226.937 377.25 220.917 378.23L197.717 382.03L184.317 386.15C183.617 385.75 182.777 385.14 182.127 384.77L195.667 380.59C206.897 377.99 218.057 376.77 229.457 375.26C236.017 374.39 247.587 370.98 248.737 375.37C249.757 379.25 231.697 387.88 224.717 390.38L208.327 396.25C206.697 396.83 205.257 397.37 203.667 397.35L203.677 397.36Z" fill="#B48264"/>
<path d="M224.107 405.48L221.277 404.77C221.437 404.29 221.697 403.68 222.207 403.47L254.077 390.3L281.227 378.4C285.317 376.61 289.067 373.96 291.627 370.22C289.067 367.74 286.127 367.47 282.847 366.66C284.917 363.6 291.867 367.05 292.547 368.43C294.647 372.7 287.797 377.43 282.257 379.97L266.597 387.16L225.297 404.16C224.587 404.45 224.267 404.88 224.097 405.46L224.107 405.48Z" fill="#B48264"/>
<path d="M411.777 226.64L412.077 227.56C411.327 228.95 410.167 228.89 408.857 228.31L405.277 226.73L405.177 224.63L411.777 226.64Z" fill="#B48264"/>
<path d="M425.357 316.67C425.307 317.04 425.127 317.61 424.827 317.74C424.587 317.85 424.077 317.76 423.887 317.67C423.847 317.4 423.897 317.06 424.057 316.91C424.407 316.57 425.017 316.55 425.367 316.67H425.357Z" fill="#515763"/>
<path d="M170.167 415.8C168.407 413.1 170.967 409.07 169.677 407.22C168.847 406.02 167.067 405.3 167.067 403.77C168.237 403.8 170.577 404.96 171.097 406.23L170.177 415.8H170.167Z" fill="#AE8ABF"/>
<path d="M197.607 422.02L193.747 421.87C192.277 424.93 193.907 427.64 191.797 427.28L192.687 419.12C195.137 419.63 196.217 421.21 197.617 422.03L197.607 422.02Z" fill="#AE8ABF"/>
<path d="M95.0668 441.19C95.0668 441.86 94.7368 442.42 94.4068 442.91C93.3968 441.21 93.4268 435.85 94.2468 433.99C94.7168 434.04 95.0068 434.41 95.0068 435.02L95.0668 441.19Z" fill="#515763"/>
<path d="M96.8067 430.12C95.4667 430.2 94.9867 431.43 94.3667 432.52L94.1467 428.53C95.1867 428.66 96.1467 429.25 96.8067 430.12Z" fill="#515763"/>
<path d="M166.737 403.76C165.717 403.74 164.697 403.43 163.717 402.74L164.247 401.85C165.127 402.38 166.637 402.29 166.737 403.76Z" fill="#AE8ABF"/>
<path d="M224.937 407.37L225.077 430.88C219.697 431.02 214.647 429.64 209.757 426.71L169.477 402.61L65.4867 340.19L57.8967 335.01C55.2467 333.96 53.4867 331.58 53.2067 328.62C52.6667 322.76 52.6367 317.12 53.2967 310.86L79.5467 326.64L132.457 357.9L205.717 401.21C211.907 404.87 217.887 407.39 224.917 407.39L224.937 407.37Z" fill="#9E6C57"/>
<path d="M219.977 265.3C220.827 265.1 222.217 265.48 223.157 265.9C226.687 267.49 230.087 267.88 233.867 268.55C242.357 270.05 250.987 269.32 258.947 267L261.017 271.99C260.107 273.06 258.867 272.83 257.327 272.93C240.507 274.08 224.467 278.02 208.907 284.35L188.407 292.69L172.747 298.75C170.867 299.48 168.577 300.84 167.917 302.68L169.537 307.03L199.137 329.97C198.347 331.13 196.987 331.42 195.537 331.84L152.657 344.13L126.167 351.78L69.6168 318.41C70.3168 317.4 71.4468 317.03 72.8068 316.52C88.3568 310.7 104.097 306.18 119.947 302.08L120.017 320.17C115.197 320.59 110.377 322.46 106.997 326.14C104.857 328.46 104.507 331.6 106.357 334.13C108.207 336.66 110.847 338.29 113.907 339.17C123.857 342.04 134.247 342.47 144.337 340.16C145.277 339.95 145.697 339.51 145.797 338.76C152.617 338.4 162.807 333.87 162.817 329.72L162.917 293.16C162.917 290.7 160.337 289.01 158.507 287.96C152.617 284.58 146.297 284.26 139.337 283.86L182.407 273.99L219.977 265.31V265.3ZM220.807 273.9L162.177 287.94L162.747 290.32L221.377 276.28L220.807 273.9Z" fill="#DAAB83"/>
<path d="M151.917 366.82L128.397 352.97L202.037 331.84L216.137 342.93C195.047 349.72 175.137 357.09 154.987 365.11C153.717 365.62 152.457 365.38 151.917 366.81V366.82Z" fill="#DAAB83"/>
<path d="M170.657 378.08L153.867 368.31C174.557 359.32 195.717 351.6 217.767 344.46L233.177 355.78C221.467 358 210.667 360.83 199.657 364.74L172.467 375.98C171.917 376.21 171.057 376.25 170.827 376.53C170.567 376.84 170.687 377.64 170.667 378.08H170.657Z" fill="#DAAB83"/>
<path d="M119.947 300.42C117.687 300.15 115.617 301.1 113.207 301.78C97.5267 306.15 82.1567 310.65 67.2367 316.88L55.9167 309.92C54.9467 309.32 53.7167 307.67 53.9467 306.48C54.3567 304.39 56.4367 302.84 58.6767 302.33L123.997 287.45L120.347 292.01L119.937 300.43L119.947 300.42Z" fill="#DAAB83"/>
<path d="M202.627 396.75L184.327 386.17L197.727 382.05L220.927 378.25C226.947 377.26 232.757 376.94 238.737 375.52C241.337 374.9 243.977 374.83 246.657 375.58C246.447 377.04 245.327 377.83 244.137 378.58C234.657 384.55 224.397 388.23 213.947 392.27L202.637 396.77L202.627 396.75Z" fill="#DAAB83"/>
<path d="M168.417 432.67L166.837 448.89C166.067 448.73 165.757 447.99 165.857 447.12L167.207 434.43C167.257 433.99 167.027 433.47 167.227 433.03C167.377 432.69 167.897 432.46 168.427 432.67H168.417Z" fill="#AE8ABF"/>
<path d="M170.207 417L168.597 431.45C167.697 431.2 167.537 430.09 167.657 429.08L168.907 418.19C168.967 417.7 169.117 417.28 169.317 417.09C169.477 416.94 169.937 416.91 170.207 417Z" fill="#AE8ABF"/>
<path d="M186.117 463.22C185.697 467.25 180.417 468.36 175.417 469.45L181.407 412.38L190.807 417.8L186.117 463.22Z" fill="#B48264"/>
<path d="M173.507 468.55C171.337 468.23 168.767 466.61 167.777 464.49C167.007 462.85 167.477 460.86 167.667 459.06L173.067 407.3L179.607 411.22L173.507 468.55Z" fill="#9E6C57"/>
<path d="M120.017 320.16L120.317 329.74C122.097 337.66 136.757 339.24 145.797 338.76C145.697 339.5 145.277 339.94 144.337 340.16C134.247 342.47 123.847 342.03 113.907 339.17C110.847 338.29 108.177 336.61 106.357 334.13C104.537 331.65 104.857 328.46 106.997 326.14C110.387 322.46 115.197 320.59 120.017 320.17V320.16Z" fill="#B48264"/>
<path d="M247.617 442.73L247.507 513.24L231.867 513.22L231.997 447.42C233.797 447.87 235.437 446.75 237.137 446.18L247.617 442.73Z" fill="#B48264"/>
<path d="M229.707 513.26L217.437 513.24L217.417 432.44L230.017 432.65L229.707 513.26Z" fill="#9E6C57"/>
<path d="M247.617 442.73L237.137 446.18C235.437 446.75 233.797 447.87 231.997 447.42L232.047 432.19L247.627 427.43V442.72L247.617 442.73Z" fill="#9E6C57"/>
<path d="M62.8568 479.48L63.0068 488.68C62.4968 488.66 61.8568 488.25 61.8568 487.45V480.19C62.1568 479.87 62.5268 479.64 62.8568 479.48Z" fill="#515763"/>
<path d="M77.4368 497.3C73.2868 495.98 70.3468 493.77 67.1568 491.81C65.7468 490.56 64.6768 489.51 64.6268 487.27L64.7068 342.08L77.4568 349.7L77.4368 497.29V497.3Z" fill="#9E6C57"/>
<path d="M92.5667 374.23V488.9C92.5567 491.47 91.4067 492.91 89.2167 493.73C85.9367 494.96 82.8667 496.77 79.2867 497.36V366.38C80.6367 366.55 81.6167 367.57 82.8367 368.4L90.0467 373.31C90.8467 373.86 91.7567 374.03 92.5667 374.23Z" fill="#B48264"/>
<path d="M92.5668 374.23C91.7468 374.04 90.8468 373.86 90.0468 373.31L82.8368 368.4C81.6168 367.57 80.6368 366.55 79.3068 366.38L79.5268 351.13L92.5068 358.72L92.5768 374.22L92.5668 374.23Z" fill="#9E6C57"/>
<path d="M310.057 430.58C311.167 434.39 306.447 436.17 301.307 437.05L293.937 412.31C297.027 410.41 300.097 409.51 303.767 408.95L310.047 430.58H310.057Z" fill="#B48264"/>
<path d="M298.957 436.41C296.147 435.94 292.317 435 291.447 432.31L285.877 415.16C287.957 413.77 289.857 413.17 292.157 412.8L298.957 436.41Z" fill="#9E6C57"/>
<path d="M394.737 408.18C391.297 406.54 390.737 403.55 390.757 400.19L390.847 379.8L402.167 375.74L402.227 411.76L394.737 408.18Z" fill="#9E6C57"/>
<path d="M416.067 382.91V404.37C416.067 405.55 415.627 407.04 414.587 407.61C411.227 409.46 407.957 411.09 404.197 411.97V386.79C408.477 386.49 412.097 383.02 416.067 382.91Z" fill="#B48264"/>
<path d="M416.067 382.91C412.097 383.02 408.487 386.49 404.207 386.79L404.327 375.16L416.057 371.14L416.077 382.91H416.067Z" fill="#9E6C57"/>
<path d="M119.947 300.42V302.06C104.097 306.16 88.3668 310.67 72.8168 316.5C71.4568 317.01 70.3268 317.38 69.6268 318.39L67.2368 316.87C82.1568 310.65 97.5268 306.14 113.207 301.77C115.617 301.1 117.687 300.14 119.947 300.41V300.42Z" fill="#B48264"/>
<path d="M114.667 417.55C114.847 416.95 114.827 416.19 115.267 415.65L115.407 416.72C115.447 417.05 115.427 417.68 114.667 417.56V417.55Z" fill="#C6D2ED"/>
<path d="M98.4368 427.59C98.0968 428.81 94.4568 427.17 94.4668 426.06L94.5168 413.96L107.077 367.78L113.977 371.56L98.4468 427.58L98.4368 427.59Z" fill="#9E6C57"/>
<path d="M110.907 422.88C110.307 425.03 108.667 426.1 106.967 426.58L100.467 428.42L115.767 372.68L123.477 377.57L110.907 422.89V422.88Z" fill="#B48264"/>
<path d="M309.897 244.99L309.817 252.69L309.727 253.53C296.977 255.83 284.297 258.64 271.857 262.57C270.027 260.35 269.057 257.2 267.957 254.5L309.887 244.98L309.897 244.99Z" fill="#DAAB83"/>
<path d="M310.927 254.62L310.967 255.87C301.257 258.1 291.607 261.21 282.527 265.94L275.327 270.19C273.957 268.53 272.757 265.95 272.227 263.75L294.027 258.8L305.657 256.04C307.217 255.67 308.867 255.61 309.877 254.63L310.927 254.61V254.62Z" fill="#DAAB83"/>
<path d="M220.799 273.893L162.178 287.934L162.748 290.317L221.37 276.276L220.799 273.893Z" fill="#B48264"/>
<path d="M309.737 253.53L309.877 254.64C308.867 255.62 307.217 255.68 305.657 256.05L294.027 258.81L272.227 263.76C272.147 263.42 272.047 262.82 271.857 262.58C284.297 258.64 296.977 255.83 309.727 253.54L309.737 253.53Z" fill="#B48264"/>
<path d="M121.647 270.91L125.277 285.11C123.397 285.05 121.697 285.8 119.777 286.21L91.8467 292.28C91.2767 290.67 89.5467 290.93 88.3267 290.23C79.9567 285.43 72.4667 278.44 68.6667 269.65C64.0667 259 63.3167 247.77 68.0167 237.46L59.7367 220.14C56.8567 214.13 53.7867 208.98 48.7667 204.54C40.9267 197.61 32.2667 194.65 21.5867 195.38L13.8167 195.91L5.18674 197.94C4.76674 198.04 4.45674 197.78 4.37674 197.63C4.28674 197.44 4.25674 197.16 4.27674 196.92C4.19674 195.69 5.34674 195.1 6.21674 194.14C21.6567 176.97 54.3567 172.98 66.8267 195.04C68.7167 189.7 66.9067 184.82 63.8067 180.78C82.4867 180.24 100.347 192.01 98.3267 211.15C97.6967 217.12 94.9967 222.37 91.5167 227.13C86.7167 233.71 84.7067 241.71 88.3067 249.23C90.0367 252.85 92.9667 255.57 97.1367 256.24C102.277 267.94 108.907 271.71 121.637 270.91H121.647Z" fill="#AE8ABF"/>
<path d="M142.617 280.61C140.427 281.61 137.827 282.24 135.377 282.68L131.547 269.74L128.807 264.74C127.987 263.24 126.467 262.48 124.837 262.55C125.767 254.42 118.917 256.64 114.237 247.31C110.957 240.76 110.567 233.23 112.717 226.11L115.647 216.4C117.747 209.46 115.867 202.89 111.047 196.55C115.307 196.36 117.637 199.57 121.397 200.64C122.177 196.77 121.607 193.11 121.067 189.48L117.917 186.58C102.787 177.5 93.8067 166.05 95.0167 148.02C97.4267 148.09 99.9167 147.76 102.427 148.57C115.897 151.62 125.927 161.31 130.037 174.7C133.387 174.64 136.727 173.84 139.867 174.76C147.827 177.09 152.367 184.23 153.247 192.08C153.627 195.49 152.797 197.11 150.707 199.56C143.587 207.89 141.657 218.76 146.047 228.74L138.847 237.79C131.437 249.27 131.637 264.01 139.217 275.4C140.447 277.26 142.087 278.47 142.627 280.61H142.617Z" fill="#AE8ABF"/>
<path d="M95.0167 148.02C93.8067 166.05 102.787 177.5 117.917 186.58L121.067 189.48C121.597 193.12 122.167 196.77 121.397 200.64C117.637 199.56 115.317 196.35 111.047 196.55C115.857 202.89 117.737 209.46 115.647 216.4L112.717 226.11C110.567 233.23 110.957 240.77 114.237 247.31C118.917 256.64 125.767 254.42 124.837 262.55C122.737 262.64 121.597 264.38 121.617 266.64L121.657 270.91C108.937 271.71 102.307 267.95 97.1567 256.24C92.9867 255.56 90.0567 252.84 88.3267 249.23C84.7267 241.71 86.7367 233.71 91.5367 227.13C95.0067 222.37 97.7167 217.12 98.3467 211.15C100.367 192.01 82.5067 180.24 63.8267 180.78C66.9367 184.82 68.7367 189.7 66.8467 195.04C54.3867 172.98 21.6767 176.97 6.23673 194.14C5.36673 195.1 4.21672 195.69 4.29672 196.92C4.22672 197.1 2.92672 196.73 3.02672 196.26C5.88672 182.18 18.7467 170.73 33.8367 172.95C34.4567 167.52 37.1567 163.4 40.8767 159.63C49.4167 150.98 62.7767 151.05 71.4867 160.2C77.4967 152.4 85.9567 147.76 95.0267 148.03L95.0167 148.02Z" fill="#D5BBDB"/>
<path d="M316.397 229.51C316.957 230.56 316.907 232.04 316.087 233.4L310.287 242.99L267.607 252.34C265.717 249.16 265.077 243.71 261.087 240.74C261.097 239.73 260.827 238.8 260.357 237.76L247.937 210.09L257.857 205.26C272.447 199.46 288.077 200.67 300.887 209.98C307.847 215.04 312.427 222.13 316.377 229.51H316.397Z" fill="#FAF2E3"/>
<path d="M312.937 22.0098C314.377 30.4798 319.117 18.8598 323.157 18.5498C337.127 18.1198 327.977 49.7498 317.877 52.2998L316.137 59.9298C334.407 66.2798 342.747 86.5698 337.737 104.53C365.097 128.03 351.237 171 320.677 184.03C331.397 203.13 352.817 210.75 353.647 234.9C355.947 258.44 328.267 274.29 311.567 257.6C309.837 253.16 313.187 254.27 309.817 252.7C309.867 251.18 309.717 244.32 310.297 243C311.237 240.55 318.377 232.31 316.397 229.52C318.697 230.16 316.687 223.81 316.957 222.81C317.637 221.66 319.277 223.22 319.537 224.34C322.437 234.4 311.857 240.07 312.247 249.79C313.397 264.87 335.707 264.55 343.797 255.68C355.097 244.2 352.347 227.73 343.517 214.21C336.087 202.95 321.967 196.4 317.477 182.98C348.127 170.79 363.117 128.45 334.947 105.33C342.337 84.6198 326.927 60.1698 304.267 59.7398C304.267 55.1698 303.617 50.8998 301.707 47.0998C322.907 64.7898 335.547 21.1898 323.177 20.8698C319.747 23.9298 317.087 28.2098 312.517 30.1798C312.717 22.5298 296.327 -9.54016 290.757 7.24984C290.847 17.4698 293.717 27.4898 292.127 37.6798C285.257 34.6498 277.597 33.3598 271.807 39.7698C262.207 17.7698 226.337 13.6898 220.447 39.2998C211.057 34.5198 202.187 38.7598 199.007 47.4698C188.837 37.6698 184.807 22.8298 181.167 9.73985C180.317 7.12985 177.567 7.33984 176.377 9.50984C163.667 24.4498 189.687 44.3298 172.637 44.5998C164.687 44.0798 158.827 39.5398 156.507 40.9998C152.667 43.4198 161.697 54.0998 177.567 54.1098C182.377 54.1098 185.317 56.5298 187.687 60.4198C192.467 68.6898 207.747 66.6898 208.647 56.8298C217.817 73.4298 193.127 89.5498 178.747 65.5798C178.237 67.7098 178.567 69.2798 177.537 70.8198C154.437 67.4198 135.787 93.3498 151.797 112.52C124.257 122.55 130.267 169.98 161.067 166.18C160.777 172.13 162.287 177.47 166.337 181.77C158.177 197.18 140.117 208.55 148.277 227.8C148.917 229.72 148.257 230.76 146.947 231.98C131.907 244.91 134.127 265.94 144.777 280.14C144.207 280.18 143.147 280.41 142.627 280.65C129.427 264.85 131.067 242.87 146.057 228.77C138.017 210.74 150.677 205.69 153.257 192.11C152.397 180.3 141.817 172 130.047 174.73C123.557 149.37 88.2367 137.21 71.4867 160.22C58.8467 146.07 36.1267 155.45 33.8367 172.97C20.1467 170.05 1.47672 184.76 4.29672 196.95C4.24672 197.52 4.40673 198.08 5.19673 197.97C41.4467 187.5 55.5767 206.82 68.0167 237.5C58.0867 258.68 71.9667 283.16 91.8467 292.32C70.0967 291.13 57.7467 260.71 63.9367 240.85C64.8167 237.77 65.1467 236.82 63.5067 233.83C56.2267 217.16 46.1167 197.81 25.1767 197.85C8.30672 195.43 -3.72327 210.79 1.05673 193.12C4.64673 179.9 18.1367 169.54 31.5767 169.6C33.3067 164.44 36.8267 160.53 39.9567 156.16C40.0667 156.16 40.2267 156.18 40.3567 156.31C64.3167 139.93 66.7267 164.55 77.0567 150.78C96.7367 137.53 123.757 149.78 132.037 170.82C158.377 170.63 152.477 198.33 160.057 186.39C162.487 183.73 162.367 181.18 160.307 178.47C158.777 176.45 159.137 169.44 156.277 169.39C132.357 167.26 125.037 139.07 136.477 121.11C140.587 118.36 143.347 113.88 148.347 111.62C139.537 99.4299 143.077 86.3698 151.607 76.0998C165.897 65.2898 178.547 70.7098 175.977 65.6798L165.567 62.6398C165.247 61.6598 165.117 61.3098 164.287 61.4798C151.117 50.9098 147.217 30.9998 169.877 41.8798C167.767 32.1998 166.597 7.40985 179.427 5.51985C185.557 5.58985 188.217 34.4798 198.247 43.1598C202.687 36.0398 210.487 33.2698 218.457 36.1098C226.307 12.4698 261.567 14.9398 272.457 35.9698C277.907 32.3898 283.717 31.9798 289.767 34.0998C291.437 23.9598 287.257 13.2198 288.437 6.01985C294.777 -11.2302 310.967 13.1798 312.927 22.0598L312.937 22.0098ZM314.217 25.0598V25.5998V26.1498V26.6798L314.237 26.1498V25.5998V25.0598H314.217Z" fill="#688E8D"/>
<path d="M292.117 37.6498C296.457 39.1298 299.657 42.9898 301.707 47.0798C303.617 50.8798 304.257 55.1598 304.267 59.7198C319.747 60.2898 333.747 72.1598 335.987 87.3598C336.917 93.6498 337.127 99.4098 334.947 105.32C348.267 117.59 353.987 134.18 347.707 151.33C342.387 165.86 331.267 176.66 317.477 182.97C311.797 185.57 306.057 187.89 299.327 188.38C306.137 190.8 312.877 189.34 318.777 186.1L325.377 196.21C331.977 201.85 338.707 206.85 343.507 214.21C352.347 227.74 355.087 244.2 343.787 255.68C342.837 248.44 338.917 255.32 330.597 255.65C325.747 255.84 321.437 253.98 318.207 250.29C314.337 245.86 316.827 242.04 315.547 239.46C318.747 234.99 320.817 230 319.527 224.34C319.267 223.21 317.627 221.65 316.947 222.81L317.467 228.12C317.507 228.49 317.347 229.27 317.207 229.48C317.087 229.65 316.707 229.6 316.377 229.53C312.427 222.15 307.847 215.06 300.887 210C288.067 200.69 272.437 199.47 257.857 205.28L247.937 210.11C246.937 207.89 246.157 205.33 244.247 203.34C242.337 201.35 239.367 201.69 236.987 202.76C234.797 203.75 232.397 206.59 233.567 209.41L238.007 220.2C236.257 220.81 235.587 222.25 234.497 223.35C230.167 220.73 228.477 214.55 226.367 216.11C225.627 216.66 225.587 217.53 226.287 218.36C230.047 222.87 233.877 227.15 238.617 230.66C248.657 238.1 266.137 240.18 264.197 255.31C258.867 260.5 252.007 263.82 243.987 263.47C226.947 262.72 210.677 255.61 197.957 244.4C196.967 243.53 196.547 242.72 195.267 242.6L192.837 239.19C192.427 238.61 191.507 238.53 191.077 238.66C190.517 238.84 190.147 239.72 190.407 240.57L191.237 243.26C194.157 252.74 203.547 260.31 212.507 264.88L156.707 277.63C156.967 276.53 156.557 275.53 156.517 274.36L156.237 267.25C154.227 267.11 152.887 265.84 152.267 264.04C150.007 257.48 150.917 250.65 151.777 243.97C152.877 235.39 158.427 229.73 163.597 222.9C161.307 221.96 160.327 220.58 160.267 218.57C159.977 208.2 168.257 198.64 177.947 194.91L185.957 197.14L186.617 194.38C194.187 201.42 209.137 198.54 215.727 190.09C212.057 191.58 209.387 193.35 205.487 193.21C198.967 192.48 193.797 187.74 191.717 180.94C188.637 184.13 184.737 184.64 180.947 183.06C168.417 177.82 166.067 162.21 172.487 150.58L166.517 150.86C162.997 151.03 160.617 147.95 160.657 143.53C159.537 144.75 157.867 146.51 156.647 145.47C150.817 140.48 149.527 132.3 152.007 125.14C154.157 118.93 158.477 114.31 163.697 110.12C163.137 106.79 163.207 103.97 164.407 100.44L159.817 103.52C159.757 101.1 158.907 99.3898 158.767 97.5298C158.347 92.1898 165.617 83.4398 173.617 83.9598C176.307 84.1298 177.587 85.7098 178.497 88.6298C184.387 77.9798 193.137 83.6798 197.917 77.8998C202.057 77.3798 205.327 74.6598 208.127 71.2398C211.677 66.8998 211.817 61.2498 208.637 56.7798L206.497 53.7798C207.957 49.1098 205.277 44.8798 200.807 44.0098C204.357 37.2998 212.797 35.4398 220.437 39.2598C222.017 32.0698 225.927 26.7698 232.497 23.9098C247.547 17.3598 263.927 24.5398 271.797 39.7298C275.967 35.6198 281.067 33.8698 286.297 35.6498L292.117 37.6398V37.6498ZM318.197 97.8498C319.057 92.7098 309.477 86.1198 299.897 88.3498C297.767 88.8498 296.487 90.8998 296.427 92.5298C296.127 100.47 317.257 103.49 318.197 97.8498ZM242.127 98.4098C242.257 96.8698 241.617 94.3798 239.437 93.8598C228.877 91.3698 217.227 100.96 220.597 105.76C223.497 109.89 241.517 105.49 242.117 98.4098H242.127ZM306.217 145.72L312.137 145.65C316.077 145.6 319.387 142.59 321.607 138.99C323.827 135.4 324.297 131.22 324.017 127.24C324.537 127.08 324.847 126.67 324.837 125.96C324.697 120.37 322.587 115.4 318.537 111.7C311.377 105.16 300.497 106.02 294.597 113.86C289.617 120.47 288.317 129.5 292.027 137.08C294.007 141.13 298.057 143.99 302.047 145.43C303.787 146.06 304.877 145.74 306.237 145.72H306.217ZM234.547 151.08C241.567 153.18 249.307 149.12 251.887 142.12C253.427 137.96 253.357 133.38 251.747 129.16C251.507 121.32 245.577 115.12 238.417 113.74C230.157 112.14 222.727 116.42 219.107 123.68C215.287 131.34 215.967 139.98 221.977 146.52C223.637 148.33 231.867 152.82 234.547 151.08ZM341.647 146.08C341.087 140.76 329.507 138.71 322.127 143.63C320.297 144.85 318.827 146.35 318.697 147.93C318.537 149.84 318.817 152.02 320.467 152.98C328.887 157.86 342.327 152.56 341.647 146.09V146.08ZM231.207 161.95C232.627 160.76 232.827 156.72 231.117 155.24C224.247 149.28 210.657 149.78 205.707 157.82C205.897 161.08 208.017 163.74 211.217 164.91C217.837 167.33 225.347 166.86 231.207 161.95ZM285.977 153.05C280.177 158.69 272.067 158.24 266.097 153.21C265.627 152.82 264.827 152.68 264.407 152.72C263.857 152.77 263.507 153.52 263.497 153.94C263.437 156.86 277.997 165.56 288.197 154.94C288.877 154.24 288.677 153.1 288.057 152.73C287.677 152.51 286.607 152.45 285.977 153.05ZM216.397 189.07C216.397 188.78 216.167 188.55 215.877 188.55C215.587 188.55 215.357 188.78 215.357 189.07C215.357 189.36 215.587 189.59 215.877 189.59C216.167 189.59 216.397 189.36 216.397 189.07Z" fill="#AED9CB"/>
<path d="M197.917 77.9098C193.147 83.6898 184.387 77.9898 178.497 88.6398C177.587 85.7098 176.317 84.1398 173.617 83.9698C165.617 83.4498 158.347 92.2098 158.767 97.5398C158.917 99.3998 159.757 101.11 159.817 103.53L164.407 100.45C163.207 103.98 163.137 106.79 163.697 110.13C158.477 114.33 154.157 118.94 152.007 125.15C149.527 132.31 150.817 140.49 156.647 145.48C157.867 146.52 159.537 144.76 160.657 143.54C160.617 147.96 162.997 151.04 166.517 150.87L172.487 150.59C166.067 162.21 168.417 177.83 180.947 183.07C184.737 184.65 188.627 184.15 191.717 180.95C193.797 187.75 198.967 192.49 205.487 193.22C209.387 193.36 212.047 191.59 215.727 190.1C209.137 198.55 194.187 201.43 186.617 194.39L185.957 197.15L177.947 194.92C168.267 198.65 159.977 208.21 160.267 218.58C160.327 220.59 161.307 221.97 163.597 222.91C158.427 229.74 152.877 235.41 151.777 243.98C150.917 250.66 150.017 257.49 152.267 264.05C152.887 265.85 154.227 267.13 156.237 267.26L156.517 274.37C156.567 275.54 156.967 276.53 156.707 277.64C152.797 278.53 148.777 279.82 144.757 280.11C144.717 279.4 144.727 278.23 144.147 277.66C139.217 272.8 136.917 266.67 136.147 259.77C134.977 249.21 139.107 239.24 146.927 231.96C148.237 230.74 148.897 229.7 148.257 227.78C144.507 216.56 146.297 208.85 153.547 199.51C158.327 193.96 162.727 188.51 166.317 181.74C162.267 177.44 160.757 172.1 161.047 166.15C147.207 168.8 134.917 156.32 133.947 142.82C132.947 128.76 139.087 118.97 151.777 112.49C144.497 102.21 143.147 90.9898 151.217 81.0498C157.537 73.2598 167.307 69.7998 177.527 70.7798C178.557 69.2398 178.217 67.6698 178.737 65.5398L184.027 71.6998C187.787 76.0698 192.347 78.6098 197.927 77.9198L197.917 77.9098Z" fill="#8ABCB1"/>
<path d="M258.097 238.51L261.107 240.75C265.097 243.72 265.737 249.16 267.627 252.35L267.667 252.93C267.597 252.84 266.757 252.93 266.717 253.18C266.517 254.65 266.497 256.4 267.037 257.68C265.597 258.8 263.887 262.4 264.307 263.27C265.857 266.45 267.657 269.46 268.427 272.84L265.317 275.75L260.817 265.63C259.837 265.76 259.447 266.6 258.947 266.99C250.987 269.31 242.347 270.03 233.867 268.54C230.087 267.87 226.677 267.48 223.157 265.89C222.227 265.47 220.837 265.1 219.977 265.29C219.897 264.33 217.407 263.39 216.507 263.84C207.487 258.96 199.347 252.63 193.007 244.41C192.447 243.69 192.157 243.15 191.237 243.25L190.407 240.56C190.147 239.71 190.517 238.82 191.077 238.65C191.517 238.51 192.427 238.6 192.837 239.18L195.267 242.59C205.287 256.64 221.447 265.71 239.287 266.64C250.277 267.21 262.827 265.98 264.197 255.29C266.137 240.17 248.667 238.09 238.617 230.64C233.877 227.13 230.047 222.85 226.287 218.34C225.587 217.5 225.617 216.63 226.367 216.09C228.477 214.53 230.167 220.7 234.497 223.33C236.577 226.12 239.277 228.5 242.437 230.06C243.347 230.51 243.867 231.7 245.587 231.66L239.077 216.78C240.087 215.18 241.557 214.35 242.967 213.73C243.007 214.28 243.057 214.97 243.367 215.69L251.817 234.91L258.077 238.5L258.097 238.51Z" fill="#688E8D"/>
<path d="M216.507 263.85C215.377 264.41 213.797 264.59 212.507 264.88C203.547 260.31 194.157 252.74 191.237 243.26C192.147 243.16 192.447 243.69 193.007 244.42C199.347 252.64 207.487 258.97 216.507 263.85Z" fill="#8ABCB1"/>
<path d="M200.797 44.0199C205.267 44.8899 207.957 49.1199 206.487 53.7899L208.627 56.7899C208.267 59.2899 207.467 61.2699 205.167 63.0699C199.997 67.1299 191.267 66.2899 187.667 60.3799C185.297 56.4899 182.357 54.0699 177.547 54.0699C161.677 54.0699 152.637 43.3799 156.487 40.9599C158.807 39.4999 164.667 44.0399 172.617 44.5599C174.727 44.6999 178.857 44.4099 178.837 41.5899C178.797 35.2599 167.277 22.7699 176.357 9.46987C177.007 8.50987 177.827 7.71987 178.887 7.73987C179.787 7.75987 180.797 8.52987 181.137 9.69986L185.547 24.4999C188.117 33.1399 192.657 40.6999 198.977 47.4299L200.787 44.0099L200.797 44.0199Z" fill="#8ABCB1"/>
<path d="M343.787 255.67C338.297 261.25 329.327 263.07 321.507 260.96C316.317 259.56 312.447 255.09 312.237 249.79C312.087 245.93 313.547 242.26 315.547 239.46C316.827 242.03 314.337 245.86 318.207 250.29C321.427 253.98 325.747 255.83 330.597 255.65C338.917 255.33 342.837 248.44 343.787 255.68V255.67Z" fill="#8ABCB1"/>
<path d="M317.477 182.97L318.777 186.1C312.877 189.34 306.137 190.8 299.327 188.38C306.047 187.88 311.797 185.56 317.477 182.97Z" fill="#8ABCB1"/>
<path d="M318.697 25.3598C319.097 25.7998 319.447 26.9298 318.937 27.4198C316.367 29.8498 315.497 32.8898 314.537 36.2698L312.827 42.2898C312.877 44.3798 312.437 45.8098 311.587 47.5998C312.277 48.5198 314.037 49.5998 313.967 50.8498C309.477 51.1998 305.237 50.0698 301.707 47.0698C299.657 42.9798 296.457 39.1198 292.117 37.6398C292.877 30.5598 292.557 23.6798 291.467 16.5298C290.987 13.3598 290.497 10.4698 290.747 7.21985C290.907 5.20985 292.167 2.03984 294.547 2.27984C297.247 2.55984 299.567 4.82985 301.417 6.71985C307.607 13.0698 310.707 21.1698 312.507 30.1498C315.417 29.0198 316.997 27.0898 318.707 25.3598H318.697Z" fill="#8ABCB1"/>
<path d="M313.967 50.8499C314.037 49.5899 312.277 48.5099 311.587 47.5999C312.427 45.8099 312.877 44.3799 312.827 42.2899L314.537 36.2699C315.497 32.8899 316.377 29.8499 318.937 27.4199C319.457 26.9299 319.097 25.7999 318.697 25.3599L323.167 20.8399C323.817 20.1799 325.287 20.3999 325.847 20.9499C326.217 21.3199 326.667 21.9799 326.907 22.8599C330.307 35.6999 322.457 50.1999 313.967 50.8499Z" fill="#B2A8D3"/>
<path d="M314.217 25.0598L314.227 25.5998V26.1498L314.217 26.6798L314.207 26.1498V25.5998L314.217 25.0598Z" fill="#D4E1F4"/>
<path d="M231.207 161.95C225.337 166.86 217.837 167.34 211.217 164.91C208.027 163.74 205.897 161.08 205.707 157.82C210.657 149.77 224.237 149.28 231.117 155.24C232.827 156.72 232.627 160.76 231.207 161.95Z" fill="#D5BBDB"/>
<path d="M341.647 146.08C342.327 152.56 328.887 157.86 320.467 152.97C318.817 152.01 318.537 149.83 318.697 147.92C318.827 146.34 320.297 144.83 322.127 143.62C329.517 138.7 341.097 140.75 341.647 146.07V146.08Z" fill="#D5BBDB"/>
<path d="M264.207 255.3C262.837 265.99 250.287 267.22 239.297 266.65C221.457 265.72 205.297 256.65 195.277 242.6C196.547 242.71 196.977 243.53 197.967 244.4C210.697 255.61 226.967 262.72 243.997 263.47C252.017 263.82 258.877 260.49 264.207 255.31V255.3Z" fill="#8ABCB1"/>
<path d="M242.127 98.4098C241.527 105.49 223.507 109.9 220.607 105.76C217.237 100.96 228.887 91.3598 239.447 93.8598C241.627 94.3698 242.267 96.8698 242.137 98.4098H242.127Z" fill="#8ABCB1"/>
<path d="M318.197 97.8499C317.257 103.49 296.127 100.47 296.427 92.5299C296.487 90.8999 297.767 88.8399 299.897 88.3499C309.467 86.1199 319.057 92.7099 318.197 97.8499Z" fill="#8ABCB1"/>
<path d="M285.977 153.05C286.607 152.44 287.677 152.5 288.057 152.73C288.687 153.1 288.877 154.24 288.197 154.94C277.987 165.56 263.437 156.86 263.497 153.94C263.497 153.53 263.847 152.77 264.407 152.72C264.827 152.68 265.627 152.82 266.097 153.21C272.067 158.24 280.177 158.69 285.977 153.05Z" fill="#515763"/>
<path d="M242.447 230.07C239.287 228.5 236.587 226.13 234.507 223.34C235.597 222.23 236.267 220.8 238.017 220.19C239.357 223.43 241.317 226.6 242.447 230.07Z" fill="#FAF2E3"/>
<path d="M215.877 189.59C216.164 189.59 216.397 189.357 216.397 189.07C216.397 188.783 216.164 188.55 215.877 188.55C215.59 188.55 215.357 188.783 215.357 189.07C215.357 189.357 215.59 189.59 215.877 189.59Z" fill="#8ABCB1"/>
<path d="M251.747 129.16C249.827 124.12 244.287 120.4 238.817 121.16C230.457 122.32 225.457 129.83 225.387 137.91C225.337 144.08 228.457 149.26 234.547 151.08C231.867 152.82 223.637 148.33 221.977 146.52C215.967 139.98 215.287 131.33 219.107 123.68C222.727 116.42 230.157 112.14 238.417 113.74C245.577 115.13 251.507 121.32 251.747 129.16Z" fill="#FAF2E3"/>
<path d="M251.747 129.16C253.357 133.38 253.417 137.96 251.887 142.12C249.307 149.11 241.567 153.18 234.547 151.08C228.457 149.26 225.337 144.09 225.387 137.91C225.457 129.83 230.457 122.32 238.817 121.16C244.287 120.4 249.827 124.12 251.747 129.16ZM249.157 131.72C249.157 129.67 247.497 128.01 245.447 128.01C243.397 128.01 241.737 129.67 241.737 131.72C241.737 133.77 243.397 135.43 245.447 135.43C247.497 135.43 249.157 133.77 249.157 131.72Z" fill="#515763"/>
<path d="M245.447 135.43C247.496 135.43 249.157 133.769 249.157 131.72C249.157 129.671 247.496 128.01 245.447 128.01C243.398 128.01 241.737 129.671 241.737 131.72C241.737 133.769 243.398 135.43 245.447 135.43Z" fill="#DCEFF7"/>
<path d="M324.007 127.24C323.757 123.78 322.127 120.73 319.447 118.68C315.807 115.88 311.417 114.99 306.807 117.09C297.547 121.31 294.427 133.37 300.587 141.59C302.107 143.62 304.327 144.42 306.207 145.72C304.847 145.74 303.757 146.06 302.017 145.43C298.027 143.99 293.987 141.13 291.997 137.08C288.287 129.5 289.587 120.46 294.567 113.86C300.467 106.03 311.357 105.16 318.507 111.7C322.557 115.4 324.667 120.37 324.807 125.96C324.827 126.67 324.507 127.08 323.987 127.24H324.007Z" fill="#FAF2E3"/>
<path d="M319.457 118.68L317.417 121.94C315.917 121.35 314.197 122.52 313.607 123.55C312.627 125.25 313.627 126.96 313.697 128.35C313.737 129.23 313.367 129.95 314.157 131.04C315.377 132.7 312.687 133.41 312.127 134.21C311.197 135.52 311.617 137.93 310.407 139.21C310.797 140.05 311.457 140.37 312.237 140.98C311.597 142.76 311.407 144.21 312.127 145.66L306.207 145.73C304.327 144.43 302.107 143.62 300.587 141.6C294.417 133.38 297.547 121.32 306.807 117.1C311.417 115 315.807 115.88 319.447 118.69L319.457 118.68ZM309.167 143.96C309.167 143.59 308.867 143.29 308.497 143.29C308.127 143.29 307.827 143.59 307.827 143.96C307.827 144.33 308.127 144.63 308.497 144.63C308.867 144.63 309.167 144.33 309.167 143.96Z" fill="#515763"/>
<path d="M324.007 127.24C324.287 131.21 323.817 135.39 321.597 138.99C319.377 142.59 316.067 145.6 312.127 145.65C311.407 144.21 311.597 142.75 312.237 140.97C311.457 140.36 310.807 140.04 310.407 139.2C311.617 137.92 311.197 135.5 312.127 134.2C312.687 133.41 315.377 132.69 314.157 131.03C313.357 129.94 313.737 129.22 313.697 128.34C314.697 129.01 315.677 129.55 316.637 129.54C317.747 129.54 318.827 128.98 319.477 127.84C320.707 125.66 319.597 122.79 317.417 121.93L319.457 118.67C322.127 120.73 323.767 123.78 324.017 127.23L324.007 127.24Z" fill="#515763"/>
<path d="M317.417 121.93C319.597 122.79 320.707 125.65 319.477 127.84C318.827 128.99 317.757 129.54 316.637 129.54C315.677 129.54 314.697 129.01 313.697 128.34C313.627 126.95 312.627 125.24 313.607 123.54C314.197 122.51 315.917 121.34 317.417 121.93Z" fill="#DCEFF7"/>
<path d="M308.497 144.63C308.867 144.63 309.167 144.33 309.167 143.96C309.167 143.59 308.867 143.29 308.497 143.29C308.127 143.29 307.827 143.59 307.827 143.96C307.827 144.33 308.127 144.63 308.497 144.63Z" fill="#688E8D"/>
<path d="M247.947 210.09L260.367 237.76C260.837 238.81 261.107 239.73 261.097 240.74L258.087 238.5L246.827 212.81C245.277 212.53 244.127 213.23 242.967 213.73C241.557 214.35 240.087 215.17 239.077 216.78L245.587 231.66C243.867 231.69 243.347 230.51 242.437 230.06C241.317 226.59 239.347 223.42 238.007 220.18L233.567 209.39C232.407 206.57 234.807 203.73 236.987 202.74C239.367 201.66 242.317 201.31 244.247 203.32C246.177 205.33 246.937 207.87 247.937 210.09H247.947ZM238.237 204.6C236.307 205.58 234.867 207.27 235.787 209.42L237.917 214.41L241.247 212.11L245.677 210.28L243.317 205.51C242.397 203.65 239.907 203.75 238.237 204.6Z" fill="#515763"/>
<path d="M267.657 252.92L267.967 254.5C269.067 257.2 270.037 260.35 271.867 262.57C272.057 262.82 272.157 263.42 272.237 263.75C272.767 265.95 273.967 268.53 275.337 270.19C275.567 270.63 275.957 271.58 275.957 272.08C275.957 273.65 276.327 275.98 276.537 277.36L276.877 279.55C275.317 285.61 278.497 289.62 274.227 288.89L264.067 278.69C263.707 277.16 263.007 275.67 261.627 274.9C261.707 273.88 261.427 272.91 261.037 271.97L258.967 266.98C259.457 266.58 259.857 265.75 260.837 265.62L265.337 275.74L268.447 272.83L273.127 271.9L267.057 257.67C266.507 256.39 266.537 254.64 266.737 253.17C266.777 252.92 267.607 252.83 267.687 252.92H267.657ZM274.357 281.56L273.957 274.19C270.627 273.56 267.747 275.15 266.487 277.89L271.457 282.7C272.007 283.23 274.407 282.5 274.357 281.56Z" fill="#515763"/>
<path d="M258.097 238.51L251.837 234.92L243.387 215.7C243.077 214.99 243.017 214.29 242.987 213.74C244.137 213.23 245.287 212.54 246.847 212.82L258.107 238.51H258.097Z" fill="#8ABCB1"/>
<path d="M268.427 272.84C267.657 269.46 265.857 266.45 264.307 263.27C263.877 262.4 265.597 258.8 267.037 257.68L273.107 271.91L268.427 272.84Z" fill="#8ABCB1"/>
<path d="M241.247 212.1C239.477 209.98 237.997 207.42 238.237 204.59C239.907 203.74 242.397 203.64 243.317 205.5L245.677 210.27L241.247 212.1Z" fill="#D5BBDB"/>
<path d="M241.247 212.1L237.917 214.4L235.787 209.41C234.867 207.26 236.317 205.57 238.237 204.59C237.997 207.41 239.477 209.97 241.247 212.1Z" fill="#AE8ABF"/>
<path d="M274.357 281.56C274.407 282.49 272.007 283.23 271.457 282.7L266.487 277.89C267.737 275.16 270.627 273.56 273.957 274.19L274.357 281.56Z" fill="#DAAB83"/>
<path d="M182.187 302.78C182.797 306.11 185.957 307.67 188.517 309.59L200.597 318.62L209.267 324.98C211.377 326.52 213.227 327.78 215.267 329.29C217.797 331.16 219.907 333.3 222.497 335.22L233.897 343.69C236.107 345.33 238.087 346.93 240.357 348.62L257.197 361.18L263.017 365.63C264.937 367.1 266.967 365.39 268.657 364.73L274.747 362.34L282.477 359.81L298.217 354.34L315.097 348.45L321.797 346.12L332.567 342.43L348.517 337.19C350.627 336.49 352.487 334.77 354.767 334.76L397.637 320.97L402.277 319.54L417.957 314.78C418.697 314.56 419.317 314.27 419.597 313.77C419.877 313.27 419.817 312.47 418.887 312.2L427.217 309.62C427.757 309.45 428.057 309.24 428.247 309.03C428.727 308.49 428.357 307.52 427.657 307.65L404.457 312L378.547 318.43C378.387 317.9 378.197 317.36 377.677 316.89C385.197 314.04 392.957 312.13 401.177 310.6L427.697 305.66C428.637 305.48 429.727 306.1 430.527 306.54L430.707 307.32C430.367 309.3 432.927 309.79 432.687 311.46C432.597 312.09 432.067 312.67 431.157 312.97L427.987 314.01C426.917 314.36 426.677 315.27 427.037 316.08H425.447C424.567 315.06 423.627 315.47 422.217 315.93L346.227 340.57L266.757 368.02C264.687 368.74 262.597 368.47 260.867 367.16L221.647 337.33L207.477 326.74L180.527 306.27C179.757 305.68 180.037 303.87 180.527 303.39C180.897 303.04 181.457 302.79 182.167 302.78H182.187Z" fill="#688E8D"/>
<path d="M182.087 300.81C182.257 300.98 182.637 301.25 182.727 301.47L182.187 302.78C181.477 302.78 180.917 303.03 180.547 303.39C180.057 303.87 179.767 305.68 180.547 306.27L207.497 326.74L221.667 337.33L260.887 367.16C262.617 368.48 264.697 368.74 266.777 368.02L346.247 340.57L422.237 315.93C423.657 315.47 424.587 315.06 425.467 316.08L425.367 316.68C425.017 316.56 424.417 316.58 424.057 316.92C423.897 317.07 423.847 317.41 423.887 317.68C423.777 317.63 423.587 317.62 423.447 317.62C423.097 317.23 422.387 317.01 421.927 317.2C421.467 317.39 421.387 317.99 421.417 318.24L378.587 331.95L307.657 355.96L268.747 369.49C266.687 370.21 263.267 371.26 261.557 369.97L180.487 308.8C178.637 307.4 177.787 306.1 178.187 303.83C178.487 302.13 180.197 301.07 182.087 300.82V300.81Z" fill="#5B3C36"/>
<path d="M430.537 306.53C429.737 306.1 428.647 305.48 427.707 305.65C427.527 304.91 427.077 304.54 426.287 303.98L385.387 275.39C385.977 274.91 386.127 274.36 386.067 273.77L405.037 286.82L428.337 303.17C429.627 304.07 430.247 305.2 430.547 306.52L430.537 306.53Z" fill="#B48264"/>
<path d="M386.057 273.78C386.117 274.38 385.967 274.92 385.377 275.4L350.467 251.48L351.127 249.69C351.857 249.93 352.637 250.18 353.367 250.69L370.377 262.54L386.067 273.77L386.057 273.78Z" fill="#9E6C57"/>
<path d="M427.047 316.07C426.687 315.26 426.927 314.35 427.997 314L431.167 312.96C432.077 312.66 432.607 312.09 432.697 311.45C432.937 309.78 430.367 309.29 430.717 307.31C432.337 307.4 433.757 308.1 434.287 309.6C434.687 310.73 434.987 312.76 433.717 313.65C431.737 315.05 429.207 316.06 427.057 316.06L427.047 316.07Z" fill="#515763"/>
<path d="M423.447 317.61C423.187 318.42 422.197 318.66 421.417 318.23C421.387 317.98 421.487 317.37 421.927 317.19C422.387 317 423.097 317.22 423.447 317.61Z" fill="#515763"/>
<path d="M350.467 251.48L385.377 275.4L426.277 303.99C427.067 304.54 427.527 304.92 427.697 305.66L401.177 310.6C392.957 312.13 385.197 314.04 377.677 316.89C369.257 320.08 360.867 323.93 353.927 330.09C352.737 331.14 351.297 331.87 351.267 333.36C351.027 333.41 350.787 333.38 350.557 333.26L278.757 278.48C277.907 277.84 277.357 277.59 276.517 277.38C276.307 276 275.947 273.67 275.937 272.1C285.587 265.92 296.237 261.8 307.217 258.79C307.167 259.72 307.687 260.16 308.567 260.64C312.317 262.66 317.837 264.75 320.567 263.56C329.337 266.06 339.767 263.24 346.447 256.62C348.097 254.99 348.617 252.34 350.457 251.5L350.467 251.48ZM348.287 264.39C349.387 265.69 350.227 264.84 348.937 263.74L348.287 264.39ZM342.197 266.81L341.567 266.64C340.397 266.33 339.277 266.34 337.697 266.5C341.337 269.38 342.457 272.97 345.707 270.79C345.987 270.35 345.347 269.14 344.957 268.87C344.897 268.83 344.847 268.74 344.787 268.67L344.467 268.23L344.207 267.97C343.547 267.41 344.427 266.63 344.887 267.39C344.907 267.44 344.967 267.51 345.047 267.57L345.587 267.97L345.717 268.05C346.697 268.64 347.287 269.59 348.857 269.89L347.907 267.34L350.907 266.65C351.027 266.62 351.157 266.51 351.207 266.35L349.727 264.87C349.587 264.93 349.487 265.03 349.407 265.15C349.027 265.74 348.567 266.29 348.037 266.76L345.667 265.03C344.527 266.71 342.857 265.02 342.187 266.81H342.197ZM351.507 266.66L351.227 266.96C351.157 267.43 351.007 268.35 351.417 268.93C351.777 269.09 352.697 268.08 352.407 267.58C352.217 267.26 351.777 266.92 351.517 266.66H351.507ZM339.957 272.99C338.937 271.01 337.537 269.39 335.177 267.97C334.977 268.23 334.577 269.21 334.537 269.89C334.537 269.86 337.617 275.24 339.957 272.98V272.99ZM327.067 270.75L326.217 272.06C325.887 271.33 325.447 271.03 325.007 270.95C324.567 270.87 324.077 271.55 324.147 272.09C323.957 271.95 323.377 271.66 323.147 271.75C322.837 271.88 322.977 272.82 322.997 273.19L322.087 272.53L321.427 273.12C321.537 273.19 322.087 273.83 322.077 274.17C322.057 274.66 321.247 274.9 320.867 274.57C319.747 273.58 319.637 273 318.887 272.9C316.777 272.63 321.247 275.34 321.247 277.78C319.307 277.56 318.207 275.71 317.397 274.92L316.877 275.47C317.637 276.25 318.727 277.62 318.627 279.15L322.387 278.05C322.897 277.9 322.947 276.95 322.817 276.65C322.767 276.62 322.527 276.5 322.257 276.17L323.067 275.61C323.307 275.86 323.327 276.02 323.337 276.09C323.857 276.26 324.377 276.6 324.677 277.08C324.887 277.41 325.257 277.61 325.597 277.45C326.147 277.19 325.787 276.5 325.977 276.3C326.497 276.79 327.537 277.24 328.207 276.51L329.527 275.07L329.477 273.87L330.447 274.04L330.367 275.24C330.347 275.77 331.047 275.96 331.457 275.55L332.537 274.46C332.747 274.52 333.247 274.75 333.827 274.26L329.937 269.58C329.287 270.06 329.277 270.73 329.227 271.44C328.547 270.61 327.407 270.19 327.047 270.74L327.067 270.75ZM321.807 272.3C321.247 271.69 320.527 272.53 321.257 272.96L321.807 272.3ZM355.307 274.73L360.137 277.94C359.277 275.82 358.547 273.74 357.227 272.16C356.477 272.74 356.467 273.45 356.297 273.68C356.027 274.05 354.377 272.71 353.767 273.62C353.637 273.82 353.767 274.47 353.997 274.5L355.297 274.72L355.307 274.73ZM316.257 274.83C316.727 275.58 317.637 274.69 316.687 274.23L316.257 274.83ZM348.397 275.05L347.557 275.26C346.897 275.42 346.177 275.53 345.727 275.82C345.217 276.15 345.867 278.82 344.257 279.23C343.057 279.53 342.517 277.83 341.247 277.37C340.547 277.12 340.037 277.87 339.667 278.1C338.637 277.87 337.307 278.71 336.437 279.14C336.157 279.28 335.317 279.21 335.467 279.65L338.977 283.8C339.607 284.55 340.937 283.67 341.467 283.07C341.657 282.85 342.247 282.74 342.397 282.79C343.707 283.24 344.837 281.9 345.887 281.66C348.267 281.1 350.887 281.37 352.397 279.26C352.547 279.05 353.307 278.75 353.607 278.85C354.697 279.22 355.817 279.17 356.607 278.41L354.637 275.78C353.077 275.88 351.847 275.52 350.747 274.52C350.627 274.41 350.357 274.52 350.167 274.57L348.407 275.05H348.397ZM310.337 276.03L309.177 276.07C307.817 276.12 306.597 276.95 305.507 277.5C305.177 277.67 304.437 277.53 304.237 278.07C304.147 278.31 303.997 278.55 303.707 278.67C303.147 278.31 301.317 277.6 300.957 278.45L300.057 280.71C299.607 280.2 299.357 279.28 298.027 279.56L301.987 284.53C302.887 283.85 302.317 283.24 301.777 282.63C302.327 282.28 303.057 282.09 303.587 281.63L304.957 281.67C305.697 282.17 306.527 282.83 307.357 282.37C307.817 282.12 308.627 282.32 309.117 282.28C309.857 282.22 310.477 281.84 311.027 281.37C311.537 280.94 312.047 280.05 313.077 280.15C313.337 280.23 314.007 280.62 314.237 280.53C314.527 280.41 314.697 279.99 314.687 279.66L314.727 278.56C315.247 279.04 315.857 279.59 317.217 279.8L315.007 274.97C314.087 275.78 313.207 276.18 312.257 276.03C312.127 275.62 311.807 275.06 311.197 274.97C310.827 274.92 310.327 275.63 310.357 276.02L310.337 276.03ZM380.407 280.5C379.987 279.37 380.477 277.84 378.647 276.91C378.297 278.81 379.017 280.65 380.307 281.4L380.397 280.5H380.407ZM369.147 280.57C368.687 280.54 368.267 280.7 367.907 280.96C367.807 281.03 367.617 281.05 367.497 281.06H366.817C365.807 281.06 364.787 280.99 363.837 281.37L364.367 281.85C364.367 281.85 364.287 282.93 363.557 282.16L363.447 281.81C363.107 281.74 362.717 281.7 362.327 281.78C361.877 281.87 361.677 282.51 361.997 282.97C362.057 283.06 362.057 283.25 362.037 283.38C360.457 281.9 358.787 283.45 356.927 282.02C356.777 283.51 356.147 284.56 355.427 285.35C354.877 285.17 353.937 284.65 353.347 284.69C352.827 284.73 352.347 285.23 352.167 285.83C352.087 286.09 351.847 286.51 351.647 286.66C351.337 286.88 350.477 286.58 350.107 286.5C349.987 287.63 351.187 287.56 351.627 287.82C352.827 288.53 353.397 290.82 354.417 290.38C354.697 290.26 354.867 289.62 354.807 289.06C356.197 289.96 358.267 289.73 358.927 288.24C359.587 288.54 363.277 288.33 363.797 287.02L364.417 287.22C365.777 287.47 366.727 286.54 368.257 285.9C369.147 285.53 370.717 285.9 371.147 284.74C371.397 284.66 371.827 284.44 372.107 284.47C373.037 284.64 375.047 284.31 375.757 283.48C375.927 280.51 371.737 278.47 370.447 278.97C369.757 279.24 369.327 279.87 369.137 280.55L369.147 280.57ZM336.267 284.77L331.757 279.96C330.837 281.45 330.887 283.75 332.487 284.9C333.367 285.53 335.087 286.2 336.257 284.76L336.267 284.77ZM380.637 281.57C381.337 282.3 383.167 282.35 383.247 280.95C383.047 280.38 381.417 280.68 381.027 281.02L380.637 281.57ZM330.417 284.56C330.497 283.18 330.037 282.27 329.367 281.88C328.517 281.39 327.077 281.61 325.797 282.04C326.897 284.06 328.917 285.5 331.177 286.58C331.437 285.62 330.567 285 330.417 284.57V284.56ZM317.507 285.3C317.567 285.68 317.677 285.93 318.127 285.9L318.197 286.52C318.087 286.81 318.287 287.39 317.827 287.67C317.607 287.8 317.287 287.82 317.017 287.76C316.647 287.04 315.987 286.44 315.437 285.86L314.827 286.39C315.907 287.63 317.147 288.99 317.187 290.67C318.787 290.86 319.437 289.68 320.057 289.56C321.537 289.28 324.097 289.72 324.697 287.65C324.817 287.64 324.967 287.65 325.087 287.69C326.207 288.02 327.377 288.12 328.617 287.19L325.997 283.47C325.367 282.58 324.687 282.21 323.837 282.17C322.737 282.11 322.037 282.81 321.357 283.93L318.137 284.04C317.297 284.07 317.437 284.88 317.497 285.3H317.507ZM392.617 287.53C391.107 286.5 390.457 284.83 388.787 284.64C388.727 284.5 388.977 284.98 388.697 285.32L392.937 289.21C393.537 289.76 394.107 289.42 394.267 289.09C394.547 288.51 394.497 287.8 394.187 287.75L392.617 287.53ZM315.157 285.56C314.537 284.91 314.467 285.67 314.157 285.81L315.157 285.56ZM343.957 288.3C342.747 287.55 341.437 288.4 340.887 289.65C340.107 289.35 339.647 288.91 338.547 288.81C339.247 290.25 338.997 291.13 338.287 291.85C338.317 292.1 338.207 292.33 338.037 292.44C337.847 292.57 337.417 292.63 337.237 292.67C336.917 291.7 336.147 290.55 335.127 290.28C334.017 289.99 332.627 290.61 332.587 291.86L331.907 291.81L330.517 291.9C329.207 291.98 328.067 292.37 327.077 293.62C326.427 292.95 325.817 292.78 325.207 293.13C324.677 293.43 324.117 293.72 323.847 294.96C321.927 293.67 320.647 295.01 319.347 295.51C318.507 295.83 316.197 294.82 316.037 296.8L318.597 299.79C319.317 300.64 319.917 300.98 320.827 301.01C321.557 301.03 322.307 300.8 322.617 299.94L322.917 299.12C324.157 300.04 326.087 299.89 327.317 298.58C327.097 297.99 326.267 297.84 325.937 297.94C326.167 297.01 325.167 295.77 324.897 295.04C325.957 293.66 327.297 294.9 327.957 294.74C328.387 295.33 328.807 295.86 328.917 296.5C329.017 297.06 328.237 297.63 327.967 298.28C328.197 298.75 329.497 298.58 329.817 297.95C329.967 297.66 330.087 297.37 329.957 296.87C330.627 296.72 331.307 296.73 331.967 296.92L332.267 296.74L332.787 296.33C332.787 296.38 332.307 295.41 332.247 295.12C332.197 294.88 333.147 294.93 333.367 295.06C333.587 295.19 333.817 295.42 333.937 295.98C334.067 296.59 334.677 296.57 334.837 296.29C334.937 296.11 334.987 295.78 334.927 295.47C336.657 296.02 338.487 295.7 339.727 294.56L340.937 293.76C342.017 294.3 343.037 294.1 344.107 293.73L347.157 292.66C347.627 292.5 348.507 292.61 348.827 291.93C349.017 291.93 349.507 291.98 349.687 291.83C350.827 290.9 349.417 288.33 347.587 287.79C346.917 287.59 346.107 287.74 345.497 286.54L343.967 288.32L343.957 288.3ZM368.097 291.67C367.227 291.7 366.157 291.76 365.647 292.57C365.187 293.32 364.767 294.08 364.577 294.98C364.427 294.95 364.267 294.86 364.127 294.76L363.657 295.31C365.147 297.15 366.567 298.62 367.587 297.88C367.867 297.67 368.067 297.21 368.047 296.74C368.377 296.7 368.817 296.62 369.147 296.7C370.257 296.96 371.617 296.82 372.057 295.63L373.417 295.9C373.777 295.97 374.187 295.42 374.017 294.83C374.667 294.56 375.287 294.47 375.907 293.89C374.747 293.61 373.807 292.12 374.807 291.35C376.707 291.8 377.217 294.3 378.577 294.22C379.187 294.18 379.897 294.03 380.207 293.05C378.357 293.34 377.427 292.5 376.697 291C375.167 290.86 375.507 289.14 376.967 289.44C380.857 289.64 381.377 294.72 383.867 291.14C385.157 291.36 386.737 292.62 388.437 291.24L384.087 285.95C382.727 287.42 383.207 289.24 383.147 291.57C381.437 290.42 381.337 288.79 380.637 287.11C379.717 287.54 379.987 288.25 379.907 288.53C379.697 289.31 378.557 288.39 378.157 288.49L370.677 290.28C370.237 290.39 368.967 289.61 368.687 290.27L368.097 291.67ZM363.347 293.96L362.867 293.21C362.667 292.9 362.077 293.09 362.027 293.44C361.957 293.97 362.517 294.39 362.847 294.46L363.337 293.96H363.347ZM363.587 294.21L363.077 294.7L363.457 295.07L363.917 294.62L363.587 294.21ZM407.657 298.19C407.207 298.88 406.327 299.25 405.507 298.51L401.367 294.76C400.287 293.78 398.527 295.61 398.327 297.1C397.057 296.67 396.237 296.05 394.937 297.04C398.697 297.65 399.987 302.09 401.987 301.92C402.887 301.84 403.997 301.55 404.247 300.57C402.617 299.42 401.737 298.32 400.847 297.17C400.797 297.11 400.717 297.03 400.577 296.96C400.417 296.31 400.937 296.66 400.917 295.82C401.107 296.56 401.427 296.71 401.487 296.76C403.187 296.76 404.227 299.04 405.647 299.96C406.827 300.72 409.177 299.63 410.107 299.02C409.517 298 408.647 298.11 408.127 297.93C407.927 297.93 407.757 298.04 407.667 298.18L407.657 298.19ZM355.367 296.15C354.647 296.19 354.047 296.52 353.977 297.34C353.937 297.35 353.897 297.35 353.857 297.34L353.057 297.23L352.517 297.06L351.747 296.44C351.187 295.98 350.627 296.22 350.477 296.51C350.177 297.11 350.427 298.07 350.537 298.61C349.657 298.43 348.747 298.54 348.027 298.95C347.777 299.09 347.037 299.06 346.867 298.93C346.317 297.41 344.947 298.64 345.607 299.46C346.577 302.44 349.807 303.61 351.577 302.87C351.967 302.71 352.927 303.01 353.207 302.78C353.587 302.47 353.657 301.48 353.617 300.95C353.627 300.69 354.137 300.31 354.387 300.19C356.467 300.5 358.707 301.19 360.387 299.09C356.947 297.05 356.697 293.87 355.357 296.13L355.367 296.15ZM407.917 297.55C407.387 296.97 407.057 296.28 405.797 295.99C406.027 297.25 406.807 297.52 407.447 297.91L407.917 297.55ZM332.967 296.55L332.597 297.12C333.197 297.51 333.387 296.73 332.967 296.55ZM389.707 298.52C389.707 297.87 389.087 297.76 388.797 297.93C388.467 298.12 388.337 298.49 388.497 298.83C388.657 299.17 389.067 299.3 389.397 299.14L389.707 298.52ZM392.077 299.77C390.847 300.11 390.047 301.15 388.947 302.12C389.237 302.81 389.637 303.11 389.987 303.39L390.487 302.96C390.327 302.06 391.077 301.67 391.727 301.98C392.377 302.29 392.907 302.62 393.437 303.1L394.067 302.37C393.967 302.17 393.937 301.77 393.937 301.49C395.377 301.1 396.777 301.65 397.797 303.62C399.307 301.85 397.457 301.08 397.397 300.66C396.537 298.54 394.917 298.91 393.477 298.96C393.047 298.7 392.747 298.44 392.677 298.26C392.467 297.75 392.077 298.02 392.037 298.28C391.957 298.89 391.977 299.25 392.067 299.77H392.077ZM389.947 299.7L390.267 299.36C389.937 298.89 389.457 299.36 389.947 299.7ZM339.807 302.23C339.387 301.42 337.797 300.79 337.027 301.04C336.797 301.11 336.347 300.76 336.047 301.3C335.827 301.69 335.957 302.45 335.937 302.82C335.287 302.55 334.407 301.7 333.447 301.82L332.537 303.08C332.087 303.7 330.937 302.67 329.787 303.24C329.577 303.34 329.507 304.24 329.987 304.2L332.777 303.98L331.967 305.83C333.257 305.56 334.737 305.83 335.127 306.92C334.497 307.62 333.197 307.27 332.837 306.99C332.867 308.58 333.987 308.23 334.627 308.13C335.697 307.98 336.477 307.45 336.337 306.39H336.767C337.277 306.65 337.737 307.04 338.577 307.07C338.507 306.3 338.327 306 338.197 305.76C338.057 305.5 337.877 304.9 338.717 304.82C338.547 306.32 342.597 305.88 342.587 305.93C342.617 305.71 342.517 305.18 342.477 304.98C342.427 304.7 342.287 304.16 342.477 303.85C342.657 303.56 343.247 303.53 343.537 303.64L343.987 303.03C343.237 302.15 342.947 301.2 342.607 299.59C341.807 300.79 341.047 301.55 339.807 302.2V302.23ZM378.507 302.81C377.347 302.56 376.117 302.41 374.667 302.84C374.597 303.84 374.987 304.48 375.247 305.16L374.437 305.18C373.747 304.75 373.587 303.62 371.737 303.8C373.887 305.97 370.837 308.29 373.907 309.88C374.937 310.41 376.157 309.41 376.997 309.44C378.017 309.48 378.867 308.71 379.587 308.66L381.857 308.48C382.607 308.42 382.437 307.27 382.147 306.58C382.097 306.1 383.197 305.52 383.687 305.77C383.787 305.82 383.907 305.81 383.997 305.76C384.117 305.69 384.217 305.58 384.287 305.46L383.667 305.17C381.967 302.81 379.627 301.11 378.947 301.87C378.747 302.1 378.597 302.48 378.517 302.82L378.507 302.81ZM394.237 302.72L393.617 303.2L394.247 303.97C394.497 304.27 395.147 304.23 395.267 303.65C395.347 303.26 394.667 302.72 394.247 302.72H394.237ZM344.987 304.12L344.767 303C343.667 303.47 343.377 303.96 344.987 304.12ZM390.747 303.06L390.197 303.7C390.267 303.85 390.397 303.97 390.547 304.05L391.167 303.52C391.107 303.34 390.937 303.14 390.747 303.07V303.06ZM391.397 303.79L391.027 304.45C392.137 305.9 392.927 303.89 391.397 303.79ZM384.407 306.19L385.287 306.07C384.237 305.28 384.497 306.31 384.407 306.19ZM359.747 310.55C359.137 310.5 358.447 310.28 358.047 309.79C357.537 309.16 356.527 308.84 355.807 309.04C354.757 309.33 354.977 310.4 354.737 312.2C353.777 311.33 353.827 310.32 352.247 309.99C352.377 311.11 352.787 311.86 353.257 312.9C352.247 313.25 351.887 313.01 351.507 312.96L351.097 313.34L353.567 316.02C354.227 316.73 354.807 316.95 355.567 316.94C356.097 316.93 357.467 316.58 356.927 315.55C356.317 314.38 354.137 313.67 354.887 311.39C356.857 313.28 358.127 315.11 360.757 315.24C361.817 315.29 362.617 314.66 362.527 313.98C362.467 313.52 361.267 313.33 361.667 311.95C363.147 312.71 366.517 313.96 367.837 313.03C369.127 311.41 367.737 309.59 366.927 308.8C364.857 306.81 361.517 306.69 359.977 308.26C359.457 308.79 359.457 309.81 359.737 310.56L359.747 310.55ZM351.197 312.66C351.027 311.94 350.667 310.95 349.037 311.2C349.337 312.28 350.097 312.7 350.847 313.08L351.207 312.66H351.197ZM347.537 314.34C346.457 315.22 346.097 312.47 344.427 312.68C344.137 312.72 343.957 313.33 344.627 313.84C345.597 314.35 344.937 315.43 343.957 314.7C343.567 313.63 340.047 313.41 340.067 314.83C340.107 317.53 343.737 320.22 346.217 320.11C347.887 320.04 347.767 317.95 347.617 317.05C348.467 317.61 348.877 318.83 350.617 318.67C350.207 317.84 349.617 316.22 350.067 315.5C350.237 315.22 350.927 315.14 350.687 314.54C350.457 313.98 348.317 311.61 346.997 311.95L347.527 314.35L347.537 314.34ZM351.587 315.38C351.207 315.4 351.107 315.83 351.497 315.98L351.587 315.38ZM352.107 315.98L351.807 316.27C351.887 316.39 352.017 316.49 352.097 316.57L352.397 316.27L352.097 315.98H352.107ZM352.657 317.15L352.977 316.83C352.647 316.35 352.167 316.83 352.657 317.15Z" fill="#FAF2E3"/>
<path d="M393.937 301.49C393.007 301.74 391.797 300.73 392.077 299.77C392.337 299.49 393.527 299.77 393.757 300.2C393.957 300.58 393.977 301.1 393.937 301.49Z" fill="#FAF2E3"/>
<path d="M310.967 255.88C311.397 256.33 311.577 256.94 311.567 257.6L307.237 258.79C296.247 261.8 285.607 265.92 275.957 272.1C275.957 271.6 275.577 270.65 275.337 270.21L282.537 265.96C291.617 261.23 301.257 258.12 310.977 255.89L310.967 255.88Z" fill="#9E6C57"/>
<path d="M311.567 257.59C312.747 257.27 315.307 262.04 320.587 263.55C317.857 264.74 312.337 262.64 308.587 260.63C307.707 260.16 307.187 259.71 307.237 258.78L311.567 257.59Z" fill="#D5BBDB"/>
<path d="M261.607 274.92L259.867 274.9C254.817 274.79 249.637 275.57 244.697 276.67C234.247 278.03 224.167 280.89 213.997 284.62C204.237 288.45 194.847 292.3 185.267 297.27L266.237 358.45C291.017 345.64 316.437 332.51 344.007 333.46V335.22L330.887 336.01C308.737 338.91 288.627 349.26 268.817 359.25C267.167 360.08 266.317 361.31 267.027 363.01C266.277 363.27 265.727 363.82 264.747 363.56L264.967 360.03L234.887 337.22L184.487 299.46C183.947 301.01 184.317 302.65 184.477 304.05C183.497 303.32 183.207 302.7 182.737 301.48C182.637 301.26 182.267 300.99 182.097 300.82L182.547 296.58L187.277 293.99C187.887 293.66 188.257 293.2 188.427 292.7L208.927 284.36C224.477 278.03 240.517 274.1 257.347 272.94C258.887 272.83 260.127 273.06 261.037 272C261.427 272.94 261.697 273.91 261.627 274.93L261.607 274.92Z" fill="#9E6C57"/>
<path d="M184.467 304.04L257.317 358.62C259.917 360.57 261.827 362.79 264.737 363.54C265.717 363.79 266.267 363.25 267.017 362.99L345.147 335.85L346.057 335.81C346.357 335.77 346.757 335.08 346.107 334.63C345.837 334.44 345.307 334.54 345.307 335.11L343.997 335.2V333.44L346.947 333.6C347.867 333.65 348.787 334.53 350.027 334.49C350.417 334.48 350.697 333.52 350.557 333.25C350.787 333.37 351.027 333.4 351.267 333.35C351.727 335.44 353.677 333.04 354.767 334.75C352.477 334.76 350.627 336.49 348.517 337.18L332.567 342.42L321.797 346.11L315.097 348.44L298.217 354.33L282.477 359.8L274.747 362.33L268.657 364.72C266.967 365.38 264.937 367.09 263.017 365.62L257.197 361.17L240.357 348.61C238.097 346.92 236.117 345.33 233.897 343.68L222.497 335.21C219.907 333.29 217.797 331.15 215.267 329.28C213.227 327.77 211.367 326.52 209.267 324.97L200.597 318.61L188.517 309.58C185.957 307.66 182.787 306.1 182.187 302.77L182.727 301.46C183.197 302.68 183.497 303.3 184.467 304.03V304.04Z" fill="#515763"/>
<path d="M418.887 312.19L354.867 332.42C361.307 325.45 370.047 321.87 378.537 318.42L404.447 311.99L427.647 307.64C428.347 307.51 428.717 308.48 428.237 309.02C428.047 309.23 427.747 309.44 427.207 309.61L418.877 312.19H418.887Z" fill="#D5BBDB"/>
<path d="M418.887 312.19C419.817 312.46 419.877 313.26 419.597 313.76C419.317 314.26 418.697 314.54 417.957 314.77L402.277 319.53L397.637 320.96L354.767 334.75C353.677 333.04 351.727 335.44 351.267 333.35C351.297 331.86 352.737 331.14 353.927 330.08C360.867 323.92 369.267 320.07 377.677 316.88C378.197 317.35 378.377 317.9 378.547 318.42C370.047 321.87 361.307 325.45 354.877 332.42L418.897 312.19H418.887ZM354.517 332.22L354.217 332.52L354.517 332.82L354.817 332.52L354.517 332.22Z" fill="#9E6C57"/>
<path d="M350.567 333.25C350.717 333.52 350.427 334.48 350.037 334.49C348.797 334.53 347.877 333.65 346.957 333.6C346.867 332.88 346.587 332.64 345.817 332.06L276.857 279.56L276.517 277.37C277.357 277.59 277.907 277.83 278.757 278.47L350.557 333.25H350.567Z" fill="#688E8D"/>
<path d="M244.707 276.66C244.587 277.55 244.957 277.87 245.797 278.24L255.057 282.31C261.357 285.08 267.677 287.78 274.227 288.9C278.497 289.63 275.317 285.62 276.877 279.56L345.837 332.06C346.607 332.64 346.887 332.88 346.977 333.6L344.027 333.44C316.457 332.49 291.047 345.62 266.257 358.43L185.287 297.25C194.867 292.28 204.257 288.44 214.017 284.6C224.197 280.87 234.267 278.02 244.717 276.65L244.707 276.66Z" fill="#FAF2E3"/>
<path d="M344.007 335.21L345.317 335.12L345.167 335.86L267.037 363C266.327 361.29 267.177 360.07 268.827 359.24C288.637 349.25 308.747 338.9 330.897 336L344.017 335.21H344.007Z" fill="#D5BBDB"/>
<path d="M264.747 363.55C261.847 362.8 259.927 360.57 257.327 358.63L184.477 304.05C184.317 302.65 183.947 301.01 184.487 299.46L234.887 337.22L264.967 360.03L264.747 363.56V363.55Z" fill="#D5BBDB"/>
<path d="M259.867 274.89C259.717 276.04 260.267 276.64 261.297 277.2L264.047 278.7L274.207 288.9C267.667 287.78 261.337 285.08 255.037 282.31L245.777 278.24C244.947 277.87 244.567 277.55 244.687 276.66C249.627 275.56 254.797 274.78 259.857 274.89H259.867Z" fill="#D5BBDB"/>
<path d="M261.607 274.92C262.987 275.69 263.687 277.17 264.047 278.71L261.297 277.21C260.267 276.65 259.717 276.05 259.867 274.9L261.607 274.92Z" fill="#FAF2E3"/>
<path d="M345.157 335.86L345.307 335.12C345.307 334.56 345.837 334.45 346.107 334.64C346.757 335.09 346.367 335.78 346.057 335.82L345.147 335.86H345.157Z" fill="#9E6C57"/>
<path d="M354.513 332.212L354.209 332.516L354.513 332.82L354.817 332.516L354.513 332.212Z" fill="#D5BBDB"/>
</svg>
