<svg width="521" height="473" viewBox="0 0 521 473" fill="none" xmlns="http://www.w3.org/2000/svg">
<path d="M414.68 290.855C414.26 291.365 413.8 292.275 413.81 293.365L413.95 304.455C414.46 305.065 416.14 304.915 416.74 305.065L417.39 305.225C416.86 306.195 416.89 308.245 418.38 308.275C419.71 308.295 420.95 308.385 421.78 308.135C422.43 307.935 422.73 306.125 423.03 305.265L427.88 304.515L429.41 302.105C429.78 301.515 430.95 301.635 431.74 301.905L437.69 308.925L445.59 320.795C437.9 324.665 434.43 332.105 434.35 340.905C434.21 354.705 444.57 366.675 458.36 366.215L458.61 367.935C462.21 399.205 444.79 424.735 418.32 440.665C416.96 441.485 415.77 441.715 415.95 443.415C415.2 443.275 413.67 442.595 412.51 443.085C404.77 446.345 397.28 448.905 388.63 450.845C392.66 438.745 393.69 426.385 389.98 414.235C387.69 406.725 380.76 401.815 373.03 402.225C367.08 402.535 362.39 405.325 357.18 409.355C348.32 392.875 332.36 382.485 314.48 381.215V375.245C334.28 380.945 365.15 385.715 375.2 366.195C375.87 364.895 376.81 364.445 378.22 364.485C379.35 364.515 379.47 366.385 379.82 367.305C381.77 367.985 383.57 368.815 383.67 371.305H393.2L394.54 375.085L410.93 374.945C411.95 374.885 412.67 372.585 413.34 371.925L421.95 371.505L422.73 368.505C423.03 367.335 426.73 368.955 428.16 366.385C428.85 365.155 427.13 364.695 426.79 364.005C424.41 359.195 420.45 361.695 419.42 354.355C417.01 354.205 413.79 353.445 411.85 354.365C411.26 355.165 410.88 357.285 409.55 357.275C405.67 357.275 405.95 347.825 396.95 351.255C396.55 351.825 396.53 353.955 395.28 354.045C393.17 354.195 390.12 353.575 388.14 354.785C386.86 355.575 386.31 357.175 385.06 357.325C383.06 357.555 381.21 356.645 381.66 354.895C382.43 351.895 383.92 350.505 386.67 350.535C388.04 346.145 393.41 344.505 393.28 340.655C393.27 340.215 394.16 339.955 394.76 340.295C395.47 340.705 396.13 340.505 396.39 340.055C396.72 339.485 396.81 337.705 397.19 337.345C398.61 336.895 400.19 336.845 400.37 335.315C400.61 333.355 399.56 332.445 397.81 331.845L396.57 329.965C396.38 329.675 395.32 329.995 394.35 330.685C393.55 329.775 393.5 328.565 393.54 327.545L393.66 323.865C395.22 324.035 398.78 322.505 398.92 320.655C399.18 317.145 394.48 316.725 392.34 316.035C391.82 312.035 392.63 307.055 388.91 304.235C387.01 302.795 383.56 303.755 382.94 305.795C382.64 306.775 381.9 307.585 382.22 308.805C381.26 308.575 380.14 308.715 378.82 308.865L378.66 312.845C377.4 312.365 375.08 312.395 375.25 314.545C375.33 315.485 375.5 316.815 375.15 317.455C374.8 318.095 373.41 318.605 371.87 318.415L371.7 328.165C370.53 328.805 369.32 328.835 367.92 329.115C367.9 331.915 368.43 333.875 367.49 337.185C355.79 327.865 344.47 327.865 332.65 315.695C333.71 311.455 337.59 309.115 340.2 305.855C345.54 299.175 355.44 292.475 363.26 289.035C365.13 288.215 367.7 288.295 369.25 286.485C370.45 287.225 372.45 286.095 373.64 285.815C386.73 282.665 400.23 283.775 413.17 288.475C414.43 288.935 414.86 289.815 414.67 290.855H414.68ZM419.35 324.285C419.23 324.915 419.05 325.165 418.47 325.875C417.71 325.705 416.92 325.905 416.68 326.365C416.29 327.095 416.29 328.855 416.3 329.745L416.35 332.835C416.36 333.765 417.41 334.815 419.07 334.335C419.37 334.245 419.82 334.745 419.85 335.005C419.97 335.875 419.81 336.845 420.47 338.025C423.59 337.705 427.62 338.795 430.27 337.645C432.28 336.765 431.9 331.895 429.84 331.685C429.44 331.625 429.36 331.325 429.38 331.005C429.48 329.745 429.81 327.905 429.28 326.215C424.64 326.475 425.69 323.015 423.12 322.725C421.7 322.565 419.7 322.485 419.34 324.285H419.35Z" fill="#F8E9CD"/>
<path d="M295.7 383.975C295.12 384.845 294.76 385.635 294.76 386.265C294.76 387.405 296.09 387.915 297.35 387.485C319.61 379.905 343.34 391.715 354.06 412.195C355.43 414.805 352.39 418.325 353.69 419.485C355.77 421.345 357.91 411.475 367.63 407.685C375.94 404.445 384.12 408.455 386.6 416.955C390.96 431.875 387.21 452.845 377.08 462.035C370.75 461.015 364.62 462.585 358.06 463.315C339.1 465.435 316.32 458.035 312.93 437.615C305.53 446.795 291.45 447.035 282.99 441.575C276.63 437.475 272.88 430.795 270.95 424.055C270.19 420.065 269.31 416.205 271.16 412.065C268.46 410.035 268.91 407.085 270.9 404.215C267.68 402.445 266.16 400.125 263.94 397.875L258.08 391.935L263.98 384.565C266.17 381.735 269.36 380.005 272.81 382.375L277.4 387.845C278.73 389.425 284.19 388.635 285.78 387.015C288.76 383.985 292.25 384.475 295.7 383.975ZM368.1 460.255C378.89 462.335 386.92 439.545 384.28 424.135C383.69 420.675 380.89 415.525 376.83 415.595C372.77 415.665 368.56 420.085 366.47 423.475C357.99 437.215 357.39 458.185 368.1 460.255Z" fill="#B3DBCE"/>
<path d="M216.17 374.955C217.59 375.515 218.7 376.915 221 375.575C220.4 386.655 223.02 401.845 232.16 404.925C236.64 406.435 240.91 406.145 244.83 403.515C249.09 400.655 251.34 396.005 252.39 390.995L255.94 391.795C256.52 393.735 255.22 395.085 254.16 396.755L248.92 405.015L250.59 410.325C254.48 412.085 257 415.155 259.52 418.455L264.07 421.435C266.42 422.975 268.52 424.075 270.95 424.055C272.88 430.795 276.63 437.465 282.99 441.575C291.45 447.035 305.53 446.795 312.93 437.615C316.32 458.035 339.1 465.435 358.06 463.315C364.62 462.585 370.75 461.005 377.08 462.035C372.09 466.565 365.46 468.525 358.24 468.985C340.85 470.095 324.16 468.335 307.08 465.225C284.19 461.045 256.05 454.795 237.55 441.265C235.61 439.845 234.56 440.795 233.08 440.425C229.03 439.405 223.98 439.115 220.36 436.465C211.77 430.175 205.22 421.635 202.14 411.515C200.48 406.085 202.48 399.785 202.05 394.835C198.65 389.215 193.8 384.715 191.57 378.975C190.74 376.845 190.06 374.595 190.45 372.205C190.84 369.815 189.84 365.895 191.37 363.715C193.67 360.445 198.11 362.545 201.03 363.295C204.2 364.105 207.61 363.655 209.47 366.955C211.33 370.255 212.88 373.675 216.16 374.975L216.17 374.955Z" fill="#B3DBCE"/>
<path d="M279.56 109.805C278.9 112.815 271.7 114.045 266.01 114.685C259.84 115.385 255.63 119.665 252 125.225C251.1 121.375 248.84 118.305 244.73 118.135C233.38 117.665 223.39 131.535 224.56 137.455L226.13 145.395C228.38 143.925 229.36 142.215 232.52 141.585C230.8 146.665 230.27 150.865 231.84 155.625C220.81 162.525 213.78 172.895 213.46 185.865C213.28 193.215 216.04 200.985 221.98 205.355C223.78 205.975 225.55 202.685 227.22 201.565C227.28 205.075 227.78 208.805 230.76 210.825C234.44 213.315 238.66 212.545 243.72 211.205C237.95 224.155 236.58 238.065 244.22 249.045C242.34 248.975 240.4 251.635 238.78 251.525C236.44 251.355 233.84 250.105 232.68 252.855C228.68 247.985 227.68 241.005 227.57 234.025C215.63 236.515 201.21 228.195 195.43 218.425C182.48 196.555 191.12 168.925 214.98 158.825C203.28 143.255 203.06 124.075 216.6 111.165C226 102.205 237.62 98.3448 250.72 99.8648C251.53 96.8348 251.38 94.3548 252.82 92.5148C260.87 102.315 267.63 112.765 279.54 109.825L279.56 109.805Z" fill="#A0B2BC"/>
<path d="M269.34 338.975C269.9 339.785 271.13 341.415 270.79 342.405C269.93 344.915 272.06 346.655 273.16 348.785C276.69 355.635 281.77 360.215 287.69 364.875C292.14 368.375 296.99 370.335 302.42 372.205C306.15 373.495 309.82 375.985 313.58 375.335C313.77 375.325 314.21 375.465 314.47 375.245V381.215C308.02 380.755 301.89 383.075 295.7 383.975C292.25 384.475 288.77 383.985 285.78 387.015C284.19 388.635 278.72 389.425 277.4 387.845L272.81 382.375C269.37 380.005 266.17 381.735 263.98 384.565L258.08 391.935L255.93 391.795L252.38 390.995C251.33 396.005 249.08 400.655 244.82 403.515C240.9 406.145 236.64 406.435 232.15 404.925C223.01 401.845 220.39 386.665 220.99 375.575C218.69 376.905 217.58 375.515 216.16 374.955C213.04 366.355 212.23 356.445 214.5 347.635C214.9 347.465 215.84 347.445 216.25 347.735C216.94 348.215 216.82 349.245 216.88 350.065L217.51 358.755C217.55 359.355 219.33 359.665 219.47 359.145C219.55 358.825 219.55 357.505 219.94 357.365C223.51 356.045 226.88 358.725 227.88 362.065C228.88 365.405 238.57 370.425 241.02 370.165C244.5 369.785 246.07 371.795 248.64 373.575C250.62 374.955 256.36 374.735 258.14 373.035C261.08 370.205 263.76 370.145 267.72 369.615C270.48 369.245 273.29 366.445 276.53 366.585C277.59 366.635 278.43 365.395 278.58 364.775C278.71 364.265 278.48 363.375 278.17 362.555L275.82 356.355L271.63 349.595C270.18 347.245 268.76 344.985 268.61 342.375C268.57 341.745 267.25 340.775 268.04 339.885C268.33 339.555 268.76 339.145 269.34 338.975Z" fill="#B3DBCE"/>
<path d="M249.78 274.535C243.26 277.105 238.69 281.755 234.21 287.075C229.9 292.195 227.13 297.735 226.56 304.355L226.27 307.735C226.22 308.265 226.87 308.985 226.95 309.475C227.22 311.095 228.56 312.795 231.13 313.665L225.8 321.095C221.54 327.025 216.02 333.205 215.48 340.985C215.29 343.725 215.17 345.125 214.53 347.615C212.26 356.425 213.08 366.335 216.19 374.935C212.91 373.635 211.26 370.055 209.5 366.915C207.64 363.615 204.24 364.065 201.06 363.255C198.14 362.505 193.7 360.405 191.4 363.675C189.86 365.855 190.86 369.835 190.48 372.165C189.36 371.245 188.93 369.795 188.93 367.925C188.98 347.435 192.02 336.965 207.57 321.735C199.85 305.335 204.37 289.685 216.66 277.185L217.85 277.225C216.8 280.795 212.88 282.925 213.94 285.635C214.57 287.235 216.22 285.845 217.33 285.505C224.29 283.355 231.46 282.335 237.69 278.615C241.74 276.195 245.02 273.775 249.79 274.515L249.78 274.535Z" fill="#B1BAC6"/>
<path d="M436.25 262.055C439.44 267.335 444.78 262.375 449.69 263.065C453.05 272.015 458.16 280.425 464.32 287.775C463.35 288.555 462.93 290.555 463.36 291.465C464.89 294.725 463.4 297.195 463.5 300.235L463.98 314.455C464.04 316.125 462.51 317.515 461.99 318.795C456.59 317.085 450.52 318.295 445.58 320.785L437.68 308.915L431.73 301.895C431.67 300.365 433.6 299.985 434.75 299.695C435.17 297.755 435.19 294.085 434.69 292.325L431.94 291.195C431.13 290.865 431.12 289.025 431.44 288.025C431.78 286.965 434.01 287.025 434.74 286.535C435.38 283.705 435.04 279.625 434.77 276.175C432.58 275.765 428.88 275.645 426.85 276.235L425.36 279.095C425.06 279.675 423.09 279.325 422.08 279.415C420.52 279.545 420.42 281.605 420.85 282.465L420.77 283.155C419.78 282.935 418.01 282.935 417.46 283.735C416.68 284.885 417.45 286.475 417.31 287.435L416.77 291.235L414.66 290.855C414.84 289.815 414.42 288.935 413.16 288.475C400.22 283.775 386.72 282.665 373.63 285.815C373.34 285.235 373.48 284.225 374.33 284.045C382.64 282.235 390.4 281.915 399.22 282.805L396.85 278.185L402.64 275.545C405.55 274.225 407.2 273.655 409.49 271.695L421.7 266.785C422.99 266.265 423.64 263.785 426.06 264.685C428.28 265.505 430 263.075 431.3 262.805C433.31 262.395 434.68 262.615 436.22 262.045L436.25 262.055Z" fill="#B3DBCE"/>
<path d="M370.52 39.7547C375.88 44.1047 380.05 48.9947 383.47 55.9447C390.37 49.2647 398.88 48.6347 407.33 51.2747L412.51 52.8848C419.59 56.0548 424.6 62.7348 427.31 69.9248C428.52 73.1248 428.42 76.6747 428.96 79.8747C424.91 78.8947 422.73 80.4848 420.16 83.3648L410.27 89.5448C407.77 91.1048 406.81 94.6147 403.2 95.1547C401.63 92.9547 401.11 89.2447 398.96 87.4347C397.02 85.8147 394.86 83.4348 392.65 82.1048C388.21 79.4348 383.73 77.9348 381.64 72.6448C380.25 72.2448 378.35 71.8548 377.59 70.7948L369.09 58.8747L365.22 57.0047C366.22 49.3047 361.79 42.2748 363.98 40.8748C365.89 39.6448 368.45 40.1248 370.51 39.7448L370.52 39.7547Z" fill="#B3DBCE"/>
<path d="M482.4 346.015C481.07 345.915 480.23 346.535 479.59 347.775C476.94 352.955 471.9 355.845 466.06 356.485C458.37 357.335 450.17 354.705 446.03 348.005L440.06 334.975C441.67 329.375 445.28 325.085 450.1 323.375C461.86 319.205 467.92 327.645 469.69 324.805C470.9 322.865 466.47 320.195 462 318.775C462.52 317.495 464.05 316.105 463.99 314.435L463.51 300.215C463.41 297.175 464.9 294.705 463.37 291.445C462.94 290.535 463.37 288.535 464.33 287.755C473.07 298.185 480.63 309.955 483.9 323.685C485.54 331.465 486.06 339.395 482.41 345.995L482.4 346.015Z" fill="#B3DBCE"/>
<path d="M465.19 388.615C465.17 395.775 461.9 402.055 458.05 408.735C459.14 409.505 460.31 409.075 461.87 408.715L455.3 424.175C456.09 424.605 457.09 424.365 458.29 424.025C459.16 429.915 460.76 435.045 464.64 439.195C464.91 438.365 465.2 437.915 465.51 437.685C465.85 437.425 469.28 444.625 485.74 444.835L487.46 444.855C488.05 444.855 488.61 444.115 488.61 443.395L491.7 443.535C491.64 444.905 491.37 446.235 490.98 447.765C472.51 453.325 437.09 447.395 415.96 443.385C415.78 441.685 416.97 441.445 418.33 440.635C444.8 424.705 462.22 399.185 458.62 367.905C462.59 373.945 465.22 381.265 465.2 388.595L465.19 388.615Z" fill="#CAD2D8"/>
<path d="M442.24 42.0948C441.84 47.3648 439.11 53.6448 436.94 59.7748C437.92 61.7848 439.18 64.3748 439.08 67.1048L440.9 71.6847C431.84 71.8147 428.4 67.8048 427.32 69.9248C424.61 62.7348 419.59 56.0548 412.52 52.8848C411.82 50.2048 412.72 47.4347 412.78 44.5047C413.13 27.8347 406.34 6.90475 414.26 3.38475C418.4 1.54475 426.27 9.64475 430.7 16.0847C435.72 23.3947 438.68 31.5048 440.33 40.3248C440.56 41.5448 441.23 42.0748 442.24 42.0948Z" fill="#A0B2BC"/>
<path d="M244.24 249.035C250 257.315 262.86 263.305 271 254.795C273.71 264.595 280.25 270.645 289.57 271.815C295.06 272.505 299.47 270.735 304.32 267.335C303.45 270.765 300.69 272.415 298.53 273.675C287.52 280.055 273.66 282.435 263.7 273.885C263.51 280.275 259.86 276.095 249.78 274.535C245.01 273.795 241.73 276.215 237.68 278.635C231.45 282.355 224.28 283.375 217.32 285.525C216.22 285.865 214.56 287.255 213.93 285.655C212.87 282.955 216.79 280.825 217.84 277.245C224.5 273.625 234.82 258.175 234.56 255.825C234.45 254.805 233.51 253.825 232.7 252.835C233.86 250.085 236.46 251.335 238.8 251.505C240.42 251.625 242.36 248.955 244.24 249.025V249.035Z" fill="#A7B2C4"/>
<path d="M490.96 447.785C491.36 446.245 491.63 444.925 491.68 443.555C506.62 437.195 517.36 404.135 506.87 397.325C498.27 391.735 483.47 411.125 482.71 431.375C482.36 431.465 481.77 431.595 481.51 431.435C481.22 431.255 480.94 430.495 481.08 429.775L484.49 411.365C481.18 408.765 479.47 404.415 478.16 400.625C466.4 398.365 470.35 392.325 465.19 388.615C465.21 381.285 462.58 373.965 458.61 367.925L458.36 366.205C475.41 365.635 486.81 374.565 491.28 391.685C495.69 389.955 499.45 387.915 504.07 388.085C521.34 388.715 520.63 425.305 497.73 444.605C495.54 446.445 493.22 447.105 490.97 447.785H490.96Z" fill="#CAD2D8"/>
<path d="M490.9 175.595C498.22 196.955 491.77 217.805 477.85 235.055C476.14 234.675 473.86 234.615 472.83 236.255C472.2 237.255 471.39 239.055 472.71 240.405L469.51 243.715C467.73 243.415 466.85 242.005 466.29 240.805C464.57 237.135 469.15 233.585 469.16 232.445L469.32 222.145C469.37 219.025 461.78 221.315 461.08 218.045C471.85 218.505 482.97 212.995 481.99 205.865C481.17 199.905 473.75 198.305 466.25 198.545C465.59 194.705 471.79 199.765 476.29 191.125C477.2 189.385 480.17 188.295 480.66 186.225C481.22 183.875 480.4 181.055 481.92 178.915C483.82 176.255 487.75 175.365 490.9 175.585V175.595Z" fill="#B3DBCE"/>
<path d="M253.84 66.5947C251.78 67.2647 249.68 68.4047 248.46 67.8447C247 67.1747 244.99 64.3547 246.78 63.0047C248.16 61.9647 252.7 62.1747 252.77 59.1647C253 48.9347 235.57 30.5247 250.5 12.0047C254.8 6.67467 257.32 18.1347 259.87 27.5847C262.52 37.4147 266.41 46.3547 271.63 54.8847C273.53 57.9847 270.96 61.0547 268.28 61.9147L253.83 66.5947H253.84Z" fill="#A0B2BC"/>
<path d="M440.9 71.6847L439.08 67.1047C439.17 64.3647 437.92 61.7847 436.94 59.7747C439.11 53.6547 441.84 47.3647 442.24 42.0947L455.95 29.3747C462.5 23.3047 468.14 49.3547 452.66 66.6047C449.3 70.3447 445.31 71.6247 440.91 71.6847H440.9Z" fill="#AFACC3"/>
<path d="M482.4 346.015C480.67 354.635 473.19 360.705 464.11 362.055C456.43 363.045 448.15 361.245 443.33 354.875C439.02 349.195 438.28 341.155 440.06 334.985L446.03 348.015C450.17 354.705 458.37 357.345 466.06 356.495C471.89 355.845 476.94 352.965 479.59 347.785C480.23 346.535 481.06 345.925 482.4 346.025V346.015Z" fill="#A0B2BC"/>
<path d="M448.29 257.605L449.7 263.065C444.79 262.375 439.44 267.335 436.26 262.055L448.3 257.605H448.29Z" fill="#A0B2BC"/>
<path d="M477.85 235.055L472.71 240.405C471.39 239.055 472.2 237.255 472.83 236.255C473.86 234.615 476.14 234.675 477.85 235.055Z" fill="#B3DBCE"/>
<path d="M459.37 25.7147C468.9 26.7447 469.15 62.2847 449.02 74.1647C446.84 76.2247 446.87 81.2947 446.4 83.7647C473.04 94.5347 481.83 120.635 477 147.595C509.14 175.745 499.56 221.195 471.85 247.695C469.02 247.305 467.13 250.425 465.55 251.785C461.42 254.365 456.92 255.725 453.05 259.845C454.75 262.475 457.96 276.085 462.1 276.165C462.34 278.805 463.98 280.565 465.58 282.405C467.27 285.685 468.98 287.815 471.38 290.375C475.43 294.705 482.25 307.145 484.4 312.985C488.38 324.055 491.97 339.515 485.16 350.005L481.07 356.935C478.9 357.015 478.23 359.725 476.45 360.805L470.86 364.165C482.01 367.585 490.1 375.445 493.73 386.865C510.44 378.865 521.13 392.145 519.93 408.335C517.24 425.555 509.9 445.465 491.96 451.665C467.68 456.395 438 451.135 412.42 446.565C404.25 449.925 396.27 452.245 387.51 453.945C387.46 454.555 380.66 463.485 381.84 464.435C380.23 464.605 379.29 464.925 377.72 466.215C366.72 474.535 350.19 472.705 337.08 472.045C303.98 469.335 268.88 463.625 239.58 446.855C238.05 445.995 235.87 443.455 233.88 444.215C219.49 449.705 204.05 448.985 190.68 442.085C190.43 442.315 190.09 442.325 189.86 442.315C181.67 436.405 173.29 428.755 170.42 418.665C170.25 418.155 170.3 417.315 169.7 417.125C149.37 426.635 104.17 410.935 93.17 379.645C92.61 379.805 92.29 379.085 92.7 378.835C86.74 365.155 87.01 348.355 92.39 334.125C85.17 321.575 80.84 305.355 71 295.435C54.79 274.325 24.48 276.755 2.14 284.685C0.0499995 282.555 0.13 280.025 0 277.565C2.65 279.055 0.129999 275.285 3.78 267.795L9.89 255.235C11.6 255.295 12.83 253.815 12.67 252.035C22.46 245.565 32.21 237.805 45.51 239.525C49.35 215.315 83.1 202.735 100.85 220.335C126.54 190.355 174.67 206.705 186.59 241.555C203.33 239.525 219.07 252.015 220.31 269.965C224.72 266.325 227.47 261.815 230.7 256.605C226.73 251.125 224.62 245.205 223.85 238.045C190.65 237.805 176.71 198.255 192.35 172.285C197.94 167.115 201.97 160.785 209.46 157.235C190.21 130.025 214.46 93.8947 246.26 96.4947C249.7 97.1247 250.27 92.3547 246.97 92.1647C225.39 90.3247 204.86 54.4747 225.09 54.0447L240.49 58.9947C236.68 44.1547 235.35 10.0147 254.32 7.92473C257.96 8.59473 260.36 14.9647 261.44 19.9447C264.63 34.5547 270.78 48.6147 280.04 60.6847C287.37 50.6747 296.84 46.3247 308.72 50.6247C319.38 16.8047 370.13 21.9247 384.46 50.5047C391.71 44.9347 400.68 45.1547 408.93 48.1247C412.28 32.3947 400.52 14.5947 410.77 1.20473C426.23 -6.50527 441.14 24.8247 443.24 37.4647C447.66 33.4047 452.47 24.7747 459.31 25.7147H459.37ZM412.52 52.8847C402.69 49.2447 391.81 47.5847 383.47 55.9447C371.86 26.0947 319.24 18.8747 311.57 54.5947C299.65 50.4747 286.02 52.8647 281.83 66.2347C288.91 73.9847 303.57 84.5847 296.21 96.6547C283.23 117.845 265.51 112.195 252.85 92.4947C251.4 94.3447 251.56 96.8247 250.75 99.8447C218.33 94.7547 192.16 131.425 215.02 158.805C176.03 172.485 184.22 238.345 227.61 234.005C227.24 242.675 230.12 249.625 234.58 255.825C234.64 257.805 224.08 275.825 216.67 277.205C219.31 259.555 202.72 239.675 184.17 246.925C175.23 209.545 125.58 193.795 101.03 225.725C84.6 205.645 51.21 219.165 48.61 243.575C27.16 239.785 7.25 258.015 5.07 278.545C39.71 270.775 72.74 271.985 93.23 326.345C99.73 334.115 92.43 341.765 92.36 350.385C88.01 390.935 133.58 429.345 172.88 411.705C176.42 438.915 209.84 451.055 233.1 440.415C234.58 440.785 235.63 439.835 237.57 441.255C256.07 454.785 284.21 461.045 307.1 465.215C329.45 467.725 357.38 475.725 377.1 462.035C390.74 451.585 397.24 399.935 367.65 407.675C357.93 411.465 355.78 421.335 353.71 419.475C354.91 394.975 318.82 379.195 297.37 387.475C294.62 388.275 294.16 385.815 295.72 383.965C319.45 376.175 345.29 386.585 357.19 409.345C388.39 384.875 398.73 427.095 388.64 450.825C397.29 448.895 404.78 446.325 412.52 443.065C434.81 446.345 471.11 453.895 490.98 447.775C523.69 434.165 524.81 371.695 491.28 391.675C481.9 349.295 437.26 383.525 434.35 340.885C433.53 325.945 448.01 314.865 462 318.785C466.47 320.195 470.9 322.865 469.69 324.815C467.93 327.655 461.86 319.215 450.1 323.385C438.44 327.665 435.94 345.075 443.33 354.875C465.66 376.275 491.72 349.855 483.89 323.705C478.9 297.765 453.75 282.985 448.29 257.605C490.84 239.935 512.56 181.085 472.47 148.975C482.14 117.645 462.65 86.3947 429.66 83.9647C427.94 63.9147 421.98 70.0347 440.91 71.6847C463.94 73.3147 467.46 20.1447 455.95 29.3747C431.27 53.8047 446.54 37.2447 430.7 16.0947C401.12 -20.8653 413.77 30.0247 412.52 52.8947V52.8847ZM253.84 66.5947C257.89 64.1247 275.84 63.2347 271.64 54.8847C266.42 46.3547 262.53 37.4147 259.88 27.5847C257.33 18.1347 254.81 6.67472 250.51 12.0047C231.18 32.8847 265.15 59.1547 246.79 63.0047C245 64.3547 247.01 67.1747 248.47 67.8447C249.69 68.4047 251.79 67.2647 253.85 66.5947H253.84Z" fill="#789797"/>
<path d="M298.53 273.675C299.16 277.065 302.66 273.505 306.28 278.505L311.58 285.825C316.42 292.505 320.9 294.445 321.05 303.785C320.17 303.995 319.47 304.525 319.11 305.295C318.73 306.125 319.24 307.015 319.27 307.775C319.32 309.065 319.1 310.485 320.09 311.665C320.82 312.525 322.23 312.985 323.51 312.995C323.79 313.225 324.16 313.575 324.64 313.585L325.69 321.005C326.07 323.205 329.47 322.735 330.83 322.245C332.16 323.865 329.79 325.165 328.43 325.535C329.95 329.825 329.75 334.035 329.5 338.285C329.08 345.605 328.99 353.395 326.03 360.005C326.6 361.125 327.29 363.535 326.57 364.205C324.07 365.215 321.41 365.345 318.83 366.155C316 365.125 312.81 364.815 309.53 363.335C299.75 358.915 290.54 353.535 282.67 346.165C280.81 344.425 279.43 342.355 276.65 342.765L274.03 338.665C273.26 337.455 272.43 336.595 271.47 335.935C277.41 334.855 279.9 343.305 286.69 346.335C288.13 346.975 291.1 345.085 291.01 343.575L290.59 335.765C291.49 330.355 289.17 325.485 286.3 321.315L286.26 317.005L283.4 315.155L276.53 303.095C272.06 303.925 269.75 301.015 266.81 299.465C263.87 297.915 261.76 296.935 259 295.155C253.7 291.735 243.89 296.795 238.8 295.925C233.71 295.055 229.45 297.835 228.69 302.735C228.5 303.945 227.31 304.415 226.53 304.365C227.1 297.745 229.87 292.205 234.18 287.085C238.66 281.765 243.23 277.115 249.75 274.545C259.83 276.105 263.49 280.285 263.67 273.895C273.63 282.435 287.5 280.065 298.5 273.685L298.53 273.675Z" fill="#B3DBCE"/>
<path d="M332.67 315.705C344.5 327.875 355.81 327.885 367.51 337.195C368.44 333.875 367.92 331.925 367.94 329.125C369.34 328.845 370.55 328.805 371.72 328.175L371.89 318.425C373.43 318.605 374.81 318.135 375.17 317.465C375.53 316.795 375.34 315.485 375.27 314.555C375.1 312.405 377.42 312.375 378.68 312.855C378.62 314.395 379.62 317.615 378.1 318.915C376.71 320.105 375.41 320.535 375.92 322.665C376.62 325.585 381.71 325.225 384.11 331.215C387.28 339.125 391.77 342.565 392.92 339.545C393.15 338.955 392.94 337.465 393.3 337.005C393.69 336.515 395.32 337.005 395.17 337.915L394.77 340.305C394.18 339.965 393.28 340.225 393.29 340.665C393.42 344.505 388.05 346.145 386.68 350.545C383.93 350.515 382.44 351.905 381.67 354.905C381.22 356.655 383.07 357.565 385.07 357.335C386.33 357.195 386.87 355.585 388.15 354.795C390.12 353.585 393.18 354.205 395.29 354.055C396.54 353.965 396.56 351.835 396.96 351.265C405.96 347.835 405.68 357.275 409.56 357.285C410.89 357.285 411.28 355.175 411.86 354.375C413.8 353.445 417.01 354.215 419.43 354.365C420.47 361.705 424.43 359.205 426.8 364.015C427.14 364.705 428.86 365.165 428.17 366.395C426.73 368.965 423.04 367.345 422.74 368.515L421.96 371.515L413.35 371.935C412.68 372.595 411.96 374.895 410.94 374.955L394.55 375.095L393.21 371.325H383.68C383.58 368.815 381.78 367.995 379.83 367.315C379.48 366.405 379.35 364.535 378.23 364.495C376.82 364.455 375.88 364.905 375.21 366.205C365.16 385.725 334.28 380.955 314.48 375.255C314.22 375.485 313.77 375.335 313.59 375.345C313.39 374.415 312.47 373.845 311.3 373.455C301.4 370.145 293.2 364.645 285.45 357.825C281.52 354.365 277.68 350.975 274.54 346.705C273.36 345.095 272.86 342.995 270.8 342.415C271.14 341.425 269.91 339.795 269.35 338.985C269.11 338.225 269.01 337.335 269.49 336.515C269.87 335.865 270.84 336.065 271.5 335.945C272.46 336.595 273.29 337.465 274.06 338.675L276.68 342.775C295.39 366.915 326.36 379.585 356.88 374.505C365.73 373.035 372.08 366.865 373 358.685C374.41 346.165 363.04 337.625 351.05 332.755C340.51 328.485 331.61 322.075 324.66 313.605C324.18 313.605 323.82 313.255 323.53 313.015C322.45 311.095 321.18 309.065 319.28 307.785C319.25 307.025 318.74 306.135 319.12 305.305C319.47 304.535 320.17 304.005 321.06 303.795C321.6 304.045 322.89 304.635 323.3 305.465C325.56 310.065 329.52 312.465 332.68 315.715L332.67 315.705ZM387.29 341.875C386.52 342.885 387.63 343.635 388.32 343.455C388.67 343.365 389.21 343.695 389.62 342.935C389.97 342.295 389.49 341.785 389.15 341.695C388.64 341.555 387.53 341.555 387.29 341.875ZM381.48 357.775L377.01 357.815L377.03 360.645L381.5 360.605L381.48 357.775ZM394.9 357.985C394.18 358.915 395.22 359.745 395.96 359.535C396.28 359.445 396.84 359.775 397.25 359.025C397.6 358.385 397.12 357.875 396.78 357.785C396.29 357.655 395.17 357.645 394.9 357.985ZM411.91 368.675L420.91 367.955C423.64 366.555 422.13 362.095 419.77 360.785L418.51 358.015C418.36 357.695 413.07 356.895 411.66 358.305C411.26 358.705 411.22 360.055 410.99 360.715C406.2 362.685 400.73 355.435 400.32 359.865C400.23 360.835 400.84 361.765 401.83 362.615C403.89 364.385 404.04 369.775 407.92 370.515C409.45 370.805 410.2 368.815 411.91 368.675Z" fill="#789797"/>
<path d="M337.51 212.175C327.46 212.565 317.66 202.845 317.26 192.215L307.5 194.705C306.35 194.995 304.77 194.465 304.05 193.975C303.33 193.485 303.36 190.925 304.78 190.595L358.02 178.205C360.35 178.945 357.52 182.165 357.44 183.445L356.66 195.975C354.26 205.245 346.99 211.815 337.51 212.175ZM353.42 191.085C353.42 188.455 351.29 186.335 348.67 186.335C346.05 186.335 343.92 188.465 343.92 191.085C343.92 193.705 346.05 195.835 348.67 195.835C351.29 195.835 353.42 193.705 353.42 191.085Z" fill="#789797"/>
<path d="M441.98 203.115C435.73 203.865 429.27 201.625 425.23 197.065C420.62 191.865 419.43 185.305 420.37 178.405L409.06 176.515C408.65 175.945 407.51 175.005 407.36 174.405C407.25 173.955 407.89 172.295 408.62 172.375L460.47 178.215C461.21 178.295 461.12 181.295 460.47 181.555L457.47 182.735C456.29 192.075 451.09 200.515 441.98 203.095V203.115ZM446.62 190.445C449.76 190.375 451.55 188.345 451.52 186.205C451.49 183.385 449.29 181.975 446.35 182.095C443.6 182.215 441.53 184.125 441.97 186.985C442.2 188.495 444.15 190.495 446.62 190.435V190.445Z" fill="#789797"/>
<path d="M321.2 232.095C316.74 234.265 313.51 233.775 309.14 234.105C301.72 234.665 294.37 232.325 290.77 225.465C290.63 223.805 291.1 220.285 292.38 219.115C301.19 211.115 317.09 211.095 326.49 218.985C328.35 220.545 328.35 224.275 327.34 227.115C326.63 229.095 323.68 230.895 321.21 232.095H321.2Z" fill="#C0BDD3"/>
<path d="M466.25 198.545C473.75 198.305 481.17 199.905 481.99 205.865C482.97 212.995 471.85 218.515 461.08 218.045C457.4 217.885 453.09 216.875 450.49 213.885C449.06 212.235 449.08 207.515 450.4 206.145L455.86 200.505C458.08 200.365 460.54 199.985 462.67 198.365C463.85 199.035 465.18 198.585 466.25 198.545Z" fill="#C0BDD3"/>
<path d="M342.45 143.145C332.67 155.295 312.65 156.955 310.93 149.735C309.61 144.175 321.76 142.255 333.45 133.085C336.14 130.975 340.18 132.025 342.12 133.955C344.2 136.035 344.71 140.325 342.45 143.135V143.145Z" fill="#789797"/>
<path d="M445.21 135.775C447.63 136.495 449.12 138.635 448.94 140.475C448.26 147.505 429.72 148.645 418.29 138.735C415.57 136.375 414.99 132.105 416.69 129.505C418.26 127.095 422.41 125.645 425.53 127.245C431.89 130.505 437.93 133.625 445.21 135.775Z" fill="#789797"/>
<path d="M347.64 109.495C351.91 107.235 355.94 110.065 358.93 113.215C363.18 117.695 369.72 120.335 375.37 117.205C377.77 115.875 377.65 111.715 378.69 109.595C380.43 106.025 388.04 114.735 393.64 112.925C397.52 111.675 398.39 107.245 400.78 103.915C402.04 107.725 401.72 113.295 398.59 116.025C393.91 120.115 387.06 118.415 381.7 114.595C380.12 120.855 375.5 124.465 369.34 123.705C363.6 122.995 358.57 119.945 354.73 115.695C352.62 113.545 349.99 113.225 347.63 109.495H347.64Z" fill="#A0B2BC"/>
<path d="M441.98 203.115C441.29 205.455 439.08 204.425 437.67 204.705C424.99 207.235 412.75 199.485 409.88 186.865L409.07 176.525L420.38 178.415C419.44 185.305 420.62 191.865 425.24 197.075C429.28 201.635 435.74 203.875 441.99 203.125L441.98 203.115Z" fill="#E3DEE7"/>
<path d="M337.51 212.175C337.42 212.725 337.04 213.855 336.59 213.745L334.16 213.185C321.35 212.735 309.88 206.915 307.49 194.705L317.25 192.215C317.66 202.845 327.45 212.555 337.5 212.175H337.51Z" fill="#D5EBEC"/>
<path d="M400.99 221.785C389.33 214.105 381.61 225.875 379.14 226.025C378.11 226.085 377.08 224.405 377.93 223.185C383.64 214.965 395.29 212.525 403.21 218.605C403.99 219.205 403.78 220.805 403.5 221.315C403.22 221.825 401.78 222.305 400.98 221.775L400.99 221.785Z" fill="#789797"/>
<path d="M462.67 198.365C460.54 199.975 458.08 200.365 455.86 200.505C457.54 198.775 460.49 197.135 462.67 198.365Z" fill="#CAD2D8"/>
<path d="M369.26 286.495C367.71 288.305 365.15 288.225 363.27 289.045C364.4 286.725 366.91 285.045 369.26 286.495Z" fill="#CAD2D8"/>
<path d="M304.505 266.303L304.081 266.727L304.505 267.151L304.929 266.727L304.505 266.303Z" fill="#A7B2C4"/>
<path d="M382.23 308.805L386 309.705L386.19 319.365C388.78 319.025 390.43 320.355 390.57 322.245L389.66 327.225C391.14 327.835 392.39 327.765 393.56 327.555C393.53 328.575 393.58 329.785 394.37 330.695C395.34 330.005 396.39 329.685 396.59 329.975L397.83 331.855C399.58 332.455 400.62 333.365 400.39 335.325C400.21 336.855 398.63 336.905 397.21 337.355C396.83 337.715 396.74 339.495 396.41 340.065C396.15 340.515 395.49 340.705 394.78 340.305L395.18 337.915C395.34 337.015 393.7 336.515 393.31 337.005C392.95 337.465 393.15 338.945 392.93 339.545C391.78 342.565 387.28 339.125 384.12 331.215C381.72 325.225 376.63 325.575 375.93 322.665C375.42 320.535 376.72 320.095 378.11 318.915C379.63 317.625 378.62 314.395 378.69 312.855L378.85 308.875C380.16 308.725 381.29 308.585 382.25 308.815L382.23 308.805Z" fill="#A0B2BC"/>
<path d="M417.4 305.225L416.75 305.065L416.79 291.235L417.33 287.435L420.72 287.385L420.79 283.155L420.87 282.465C422.01 282.645 424.68 283.825 425.39 282.515L426.81 279.885C427.2 279.155 430.19 279.215 430.89 280.225C431.82 281.565 432.07 285.675 430.78 286.645C429.49 287.615 428.16 287.875 428.23 289.585C428.29 290.965 428.97 291.475 430.37 292.605C431.99 293.915 431.89 297.875 430.48 298.995C427.85 301.075 426.01 302.175 422.73 301.195L422.53 305.185L417.41 305.225H417.4Z" fill="#A0B2BC"/>
<path d="M431.73 301.895C430.94 301.625 429.78 301.505 429.4 302.095L427.87 304.505L423.02 305.255C422.72 306.115 422.42 307.935 421.77 308.125C420.95 308.375 419.7 308.285 418.37 308.265C416.88 308.245 416.85 306.185 417.38 305.215L422.5 305.175L422.7 301.185C425.98 302.165 427.82 301.055 430.45 298.985C431.86 297.865 431.96 293.905 430.34 292.595C428.94 291.465 428.25 290.955 428.2 289.575C428.13 287.855 429.45 287.605 430.75 286.635C432.05 285.665 431.79 281.555 430.86 280.215C430.16 279.205 427.17 279.145 426.78 279.875L425.36 282.505C424.65 283.815 421.98 282.635 420.84 282.455C420.41 281.595 420.51 279.535 422.07 279.405C423.08 279.315 425.04 279.675 425.35 279.085L426.84 276.225C428.87 275.635 432.56 275.755 434.76 276.165C435.03 279.615 435.37 283.685 434.73 286.525C434 287.015 431.77 286.955 431.43 288.015C431.09 289.075 431.12 290.855 431.93 291.185L434.68 292.315C435.18 294.075 435.17 297.735 434.74 299.685C433.59 299.975 431.66 300.365 431.72 301.885L431.73 301.895Z" fill="#789797"/>
<path d="M392.77 322.315L390.56 322.235C390.42 320.345 388.77 319.015 386.18 319.355L385.99 309.695L382.22 308.795C381.89 307.575 382.64 306.765 382.94 305.785C384.84 305.825 386.57 305.665 388.9 306.185L389.1 317.945L396.23 318.335C397.32 318.395 397.15 322.035 395.93 322.115L392.77 322.305V322.315Z" fill="#789797"/>
<path d="M419.34 325.725C419.03 325.715 418.66 325.805 418.47 325.875C419.05 325.165 419.23 324.905 419.35 324.285L419.33 325.725H419.34Z" fill="#A0B2BC"/>
<path d="M429.38 331.015C429.36 331.335 429.44 331.635 429.84 331.695C429.8 332.055 429.63 334.225 428.77 334.305L419.85 335.025C419.81 334.765 419.36 334.275 419.07 334.355C419.9 331.505 419.11 328.555 419.34 325.735L424.14 325.915C424.36 329.215 427.11 329.945 429.39 331.015H429.38Z" fill="#A0B2BC"/>
<path d="M393.67 323.865C393.28 323.405 392.99 322.885 392.77 322.315L395.93 322.125C397.15 322.055 397.32 318.405 396.23 318.345L389.1 317.955L388.9 306.195C386.57 305.675 384.84 305.835 382.94 305.795C383.56 303.755 387.01 302.795 388.91 304.235C392.64 307.055 391.82 312.035 392.34 316.035C394.48 316.725 399.18 317.145 398.92 320.655C398.78 322.495 395.23 324.035 393.66 323.865H393.67Z" fill="#E3DEE7"/>
<path d="M419.85 335.015L428.77 334.295C429.63 334.215 429.8 332.045 429.84 331.685C431.9 331.895 432.28 336.775 430.27 337.645C427.63 338.795 423.6 337.705 420.47 338.025C419.81 336.855 419.96 335.875 419.85 335.005V335.015Z" fill="#789797"/>
<path d="M416.79 291.235L416.75 305.065C416.15 304.915 414.46 305.065 413.96 304.455L413.82 293.365C413.81 292.265 414.27 291.365 414.69 290.855L416.8 291.235H416.79Z" fill="#789797"/>
<path d="M429.38 331.015C427.1 329.945 424.35 329.215 424.13 325.915L419.33 325.735L419.35 324.295C419.7 322.495 421.7 322.575 423.13 322.735C425.7 323.025 424.64 326.485 429.29 326.225C429.81 327.915 429.48 329.745 429.39 331.015H429.38Z" fill="#789797"/>
<path d="M418.47 325.885C418.65 325.815 419.03 325.725 419.34 325.735C419.11 328.555 419.9 331.505 419.07 334.355C417.41 334.835 416.37 333.775 416.35 332.855L416.3 329.765C416.29 328.865 416.29 327.115 416.68 326.385C416.92 325.935 417.71 325.725 418.47 325.895V325.885Z" fill="#789797"/>
<path d="M392.77 322.315C392.99 322.885 393.28 323.405 393.67 323.865L393.55 327.545C392.38 327.755 391.13 327.825 389.65 327.215L390.56 322.235L392.77 322.315Z" fill="#B1BAC6"/>
<path d="M368.1 460.255C357.39 458.195 357.99 437.225 366.47 423.475C368.57 420.075 372.72 415.655 376.83 415.595C380.94 415.535 383.69 420.685 384.28 424.135C386.92 439.545 378.89 462.335 368.1 460.255Z" fill="#F8E9CD"/>
<path d="M258.09 391.935L263.95 397.875C266.17 400.125 267.69 402.445 270.91 404.215C268.92 407.095 268.47 410.035 271.17 412.065C269.32 416.205 270.21 420.065 270.96 424.055C268.53 424.085 266.43 422.975 264.08 421.435L259.53 418.455C257.01 415.155 254.49 412.095 250.6 410.325L248.93 405.015L254.17 396.755C255.23 395.085 256.52 393.735 255.95 391.795L258.1 391.935H258.09Z" fill="#B3DBCE"/>
<path d="M271.49 335.935C270.83 336.055 269.86 335.855 269.48 336.505C269 337.325 269.1 338.215 269.34 338.975C268.75 339.145 268.33 339.555 268.04 339.885C267.25 340.775 268.57 341.745 268.61 342.375C268.76 344.975 270.18 347.245 271.63 349.595L275.82 356.355L278.17 362.555C278.48 363.375 278.7 364.265 278.58 364.775C278.43 365.395 277.59 366.625 276.53 366.585C273.29 366.445 270.48 369.245 267.72 369.615C263.76 370.145 261.08 370.195 258.14 373.035C256.37 374.745 250.63 374.955 248.64 373.575C246.07 371.795 244.5 369.785 241.02 370.165C238.58 370.425 228.9 365.485 227.88 362.065C226.86 358.645 223.51 356.045 219.94 357.365C219.55 357.515 219.55 358.835 219.47 359.145C219.33 359.665 217.56 359.355 217.51 358.755L216.88 350.065C216.82 349.245 216.94 348.225 216.25 347.735C215.83 347.445 214.9 347.455 214.5 347.635C215.14 345.135 215.26 343.735 215.45 341.005C215.99 333.215 221.51 327.045 225.77 321.115L231.1 313.685C228.53 312.815 227.19 311.115 226.92 309.495C227.41 309.425 227.74 309.255 227.84 309.005C228.05 308.515 227.67 307.835 227.38 307.815L226.23 307.745L226.52 304.365C227.29 304.415 228.49 303.945 228.68 302.735C229.44 297.835 233.95 295.105 238.79 295.925C243.88 296.795 253.69 291.735 258.99 295.155C261.75 296.935 263.95 297.965 266.8 299.465C269.65 300.965 272.05 303.925 276.52 303.095L283.39 315.155L286.25 317.005L286.29 321.315C289.16 325.485 291.48 330.355 290.58 335.765L291 343.575C291.08 345.095 288.12 346.985 286.68 346.335C279.88 343.305 277.4 334.855 271.46 335.935H271.49Z" fill="#B3DBCE"/>
<path d="M313.58 375.335C309.82 375.985 306.15 373.495 302.42 372.205C296.99 370.335 292.14 368.365 287.69 364.875C281.77 360.215 276.69 355.635 273.16 348.785C272.06 346.655 269.93 344.915 270.79 342.405C272.85 342.985 273.35 345.075 274.53 346.695C277.66 350.965 281.5 354.355 285.44 357.815C293.19 364.635 301.39 370.135 311.29 373.445C312.46 373.835 313.38 374.405 313.58 375.335Z" fill="#B1BAC6"/>
<path d="M226.94 309.485C226.86 308.985 226.21 308.275 226.26 307.745L227.41 307.815C227.7 307.835 228.08 308.515 227.87 309.005C227.76 309.255 227.43 309.425 226.95 309.495L226.94 309.485Z" fill="#CAD2D8"/>
<path d="M420.79 283.155L420.72 287.385L417.33 287.435C417.47 286.475 416.7 284.875 417.48 283.735C418.03 282.935 419.8 282.925 420.79 283.155Z" fill="#789797"/>
<path d="M482.72 431.375L482.65 433.185C481.04 433.035 480.84 434.315 481.04 435.305C482 440.045 485.18 440.955 485.73 444.855C469.28 444.645 465.84 437.445 465.5 437.705C465.2 437.935 464.9 438.385 464.63 439.215C460.75 435.065 459.15 429.935 458.28 424.045C457.08 424.385 456.08 424.625 455.29 424.195L461.86 408.735C460.3 409.105 459.13 409.535 458.04 408.755C461.9 402.075 465.16 395.795 465.18 388.635C470.34 392.345 466.39 398.385 478.15 400.645C479.47 404.425 481.18 408.785 484.48 411.385L481.07 429.795C480.94 430.515 481.22 431.275 481.5 431.455C481.76 431.625 482.35 431.485 482.7 431.395L482.72 431.375Z" fill="#CAD2D8"/>
<path d="M491.69 443.555L488.6 443.415C484.8 441.485 482.49 437.355 482.65 433.185L482.72 431.375C483.49 411.125 498.28 391.735 506.88 397.325C517.36 404.135 506.63 437.195 491.69 443.555Z" fill="#F8E9CD"/>
<path d="M482.65 433.185C482.49 437.355 484.8 441.485 488.6 443.415C488.6 444.135 488.03 444.885 487.45 444.875L485.73 444.855C485.18 440.945 482 440.035 481.04 435.305C480.84 434.315 481.04 433.035 482.65 433.185Z" fill="#CAD2D8"/>
<path d="M372.99 358.665C370.48 359.415 369.61 362.115 367.76 363.865C356.07 374.985 333.37 371.435 318.85 366.155C321.43 365.345 324.09 365.215 326.59 364.205C327.31 363.535 326.62 361.125 326.05 360.005C329.01 353.395 329.1 345.605 329.52 338.285C329.77 334.035 329.96 329.825 328.45 325.535C329.81 325.165 332.18 323.865 330.85 322.245C329.49 322.735 326.09 323.215 325.71 321.005L324.66 313.585C331.61 322.055 340.51 328.455 351.05 332.735C363.04 337.605 374.41 346.145 373 358.665H372.99Z" fill="#B3DBCE"/>
<path d="M318.85 366.165C333.37 371.445 356.07 374.995 367.76 363.875C369.6 362.125 370.47 359.425 372.99 358.675C372.07 366.855 365.72 373.025 356.87 374.495C326.35 379.575 295.38 366.905 276.67 342.765C279.46 342.355 280.83 344.425 282.69 346.165C290.55 353.535 299.77 358.915 309.55 363.335C312.83 364.815 316.02 365.125 318.85 366.155V366.165Z" fill="#A0B2BC"/>
<path d="M323.52 313.005C322.24 312.995 320.82 312.535 320.1 311.675C319.1 310.485 319.33 309.075 319.28 307.785C321.17 309.065 322.45 311.095 323.53 313.015L323.52 313.005Z" fill="#B3DBCE"/>
<path d="M411.91 368.675C410.19 368.815 409.44 370.805 407.92 370.515C404.04 369.775 403.9 364.375 401.83 362.615C400.84 361.765 400.23 360.825 400.32 359.865C400.73 355.435 406.21 362.685 410.99 360.715C411.22 360.055 411.26 358.705 411.66 358.305C413.07 356.895 418.36 357.695 418.51 358.015L419.77 360.785C422.12 362.095 423.63 366.555 420.91 367.955L411.91 368.675Z" fill="#A0B2BC"/>
<path d="M381.469 357.783L376.999 357.818L377.021 360.648L381.491 360.613L381.469 357.783Z" fill="#E3DEE7"/>
<path d="M387.29 341.875C387.53 341.555 388.64 341.555 389.15 341.695C389.49 341.785 389.96 342.295 389.62 342.935C389.21 343.685 388.67 343.355 388.32 343.455C387.63 343.645 386.52 342.885 387.29 341.875Z" fill="#A0B2BC"/>
<path d="M394.9 357.985C395.16 357.645 396.29 357.655 396.78 357.785C397.12 357.875 397.6 358.385 397.25 359.025C396.84 359.775 396.29 359.445 395.96 359.535C395.23 359.745 394.19 358.915 394.9 357.985Z" fill="#A0B2BC"/>
<path d="M348.67 195.835C351.293 195.835 353.42 193.708 353.42 191.085C353.42 188.461 351.293 186.335 348.67 186.335C346.047 186.335 343.92 188.461 343.92 191.085C343.92 193.708 346.047 195.835 348.67 195.835Z" fill="#D5EBEC"/>
<path d="M446.62 190.445C444.15 190.505 442.2 188.495 441.97 186.995C441.53 184.135 443.6 182.215 446.35 182.105C449.29 181.985 451.49 183.385 451.52 186.215C451.55 188.355 449.75 190.385 446.62 190.455V190.445Z" fill="#D5EBEC"/>
<path d="M370.52 39.7547C368.45 40.1347 365.9 39.6547 363.99 40.8847C361.8 42.2947 366.23 49.3148 365.23 57.0148L369.1 58.8847L377.6 70.8048C378.36 71.8648 380.26 72.2547 381.65 72.6547C383.74 77.9347 388.22 79.4348 392.66 82.1148C394.86 83.4448 397.03 85.8147 398.97 87.4447C401.12 89.2447 401.64 92.9547 403.21 95.1647C406.82 94.6247 407.78 91.1148 410.28 89.5548L420.17 83.3747C422.74 80.5047 424.91 78.9047 428.97 79.8847L429.65 83.9747C434.95 84.2947 439.61 85.0947 444.25 87.1347C470.17 98.5647 479.73 121.825 472.46 148.975C481.58 156.325 487.42 165.445 490.9 175.595C487.75 175.365 483.82 176.255 481.92 178.925C480.39 181.065 481.21 183.885 480.66 186.235C480.17 188.295 477.2 189.395 476.29 191.135C471.79 199.765 465.58 194.715 466.25 198.555C465.19 198.585 463.85 199.045 462.67 198.375C460.49 197.145 457.54 198.785 455.86 200.515L450.4 206.155C449.08 207.515 449.06 212.245 450.49 213.895C453.09 216.895 457.4 217.905 461.08 218.055C461.77 221.325 469.36 219.035 469.32 222.155L469.16 232.455C469.14 233.605 464.57 237.145 466.29 240.815C466.85 242.015 467.74 243.425 469.51 243.725C463.59 249.855 455.82 253.635 448.28 257.615L436.24 262.065C434.7 262.635 433.33 262.415 431.32 262.825C430.02 263.095 428.29 265.525 426.08 264.705C423.66 263.805 423 266.285 421.72 266.805L409.51 271.715C407.22 273.675 405.57 274.245 402.66 275.565L396.87 278.205L399.24 282.825C390.42 281.935 382.66 282.255 374.35 284.065C373.5 284.245 373.37 285.255 373.65 285.835C372.47 286.115 370.47 287.245 369.26 286.505C366.91 285.055 364.4 286.735 363.27 289.055C355.45 292.495 345.55 299.185 340.21 305.875C337.6 309.135 333.72 311.475 332.66 315.715C329.5 312.465 325.54 310.065 323.28 305.465C322.87 304.635 321.59 304.055 321.04 303.795C320.89 294.455 316.41 292.515 311.57 285.835L306.27 278.515C302.65 273.515 299.15 277.075 298.52 273.685C300.68 272.435 303.44 270.785 304.31 267.345C299.45 270.745 295.05 272.515 289.56 271.825C280.23 270.655 273.69 264.605 270.99 254.805C262.85 263.315 249.99 257.325 244.23 249.045C236.59 238.065 237.97 224.155 243.73 211.205C238.66 212.545 234.45 213.325 230.77 210.825C227.79 208.805 227.28 205.085 227.23 201.565C225.55 202.695 223.79 205.975 221.99 205.355C216.04 200.985 213.29 193.215 213.47 185.865C213.79 172.885 220.82 162.525 231.85 155.625C230.28 150.865 230.81 146.665 232.53 141.585C229.37 142.215 228.39 143.925 226.14 145.395L224.57 137.455C223.4 131.535 233.39 117.675 244.74 118.135C248.85 118.305 251.11 121.375 252.01 125.225C255.64 119.675 259.86 115.385 266.02 114.685C271.71 114.035 278.91 112.815 279.57 109.805C286.64 108.065 292.76 103.435 296.21 96.6547C299.37 90.4447 298.47 83.5148 293.64 78.4948L281.84 66.2247C284.43 57.8747 292.67 51.9148 301.52 52.5148L311.58 54.5848C313.04 45.2648 318.79 38.3948 327.14 34.2048C341.24 27.1248 358.69 30.1447 370.54 39.7447L370.52 39.7547ZM347.64 109.495C350 113.225 352.62 113.555 354.74 115.695C358.58 119.955 363.61 123.005 369.35 123.705C375.51 124.465 380.13 120.855 381.71 114.595C387.07 118.415 393.92 120.115 398.6 116.025C401.72 113.295 402.05 107.725 400.79 103.915C398.4 107.245 397.53 111.665 393.65 112.925C388.05 114.735 380.44 106.025 378.7 109.595C377.66 111.715 377.78 115.875 375.38 117.205C369.73 120.335 363.19 117.685 358.94 113.215C355.95 110.065 351.92 107.235 347.65 109.495H347.64ZM445.21 135.775C437.93 133.625 431.89 130.505 425.53 127.245C422.41 125.645 418.27 127.095 416.69 129.505C415 132.105 415.57 136.375 418.29 138.735C429.72 148.645 448.26 147.515 448.94 140.475C449.12 138.645 447.62 136.495 445.21 135.775ZM342.45 143.145C344.71 140.335 344.2 136.035 342.12 133.965C340.19 132.035 336.14 130.985 333.45 133.095C321.76 142.265 309.61 144.185 310.93 149.745C312.65 156.955 332.67 155.305 342.45 143.155V143.145ZM409.06 176.525L409.87 186.865C412.74 199.485 424.98 207.235 437.66 204.705C439.07 204.425 441.29 205.465 441.97 203.115C451.08 200.535 456.28 192.105 457.46 182.755L460.46 181.575C461.12 181.315 461.2 178.315 460.46 178.235L408.61 172.395C407.88 172.315 407.24 173.975 407.35 174.425C407.5 175.025 408.64 175.955 409.05 176.535L409.06 176.525ZM307.5 194.705C309.89 206.915 321.35 212.735 334.17 213.185L336.6 213.745C337.05 213.845 337.43 212.725 337.52 212.175C347 211.815 354.27 205.245 356.67 195.975L357.45 183.445C357.53 182.165 360.36 178.945 358.03 178.205L304.79 190.595C303.37 190.925 303.36 193.505 304.06 193.975C304.76 194.445 306.36 194.995 307.51 194.705H307.5ZM321.2 232.095C323.67 230.895 326.63 229.095 327.33 227.115C328.34 224.285 328.34 220.545 326.48 218.985C317.08 211.095 301.18 211.115 292.37 219.115C291.08 220.285 290.62 223.805 290.76 225.465C294.37 232.335 301.71 234.665 309.13 234.105C313.5 233.775 316.73 234.265 321.19 232.095H321.2ZM400.99 221.785C401.79 222.305 403.23 221.835 403.51 221.325C403.79 220.815 404 219.205 403.22 218.615C395.3 212.535 383.66 214.965 377.94 223.195C377.09 224.415 378.12 226.095 379.15 226.035C381.62 225.885 389.33 214.105 401 221.795L400.99 221.785ZM304.51 266.305L304.09 266.725L304.51 267.145L304.93 266.725L304.51 266.305Z" fill="#B3DBCE"/>
<path d="M216.65 277.215C204.35 289.715 199.84 305.365 207.56 321.765C192.01 336.995 188.97 347.465 188.92 367.955C188.92 369.815 189.34 371.265 190.47 372.195C190.08 374.585 190.76 376.835 191.59 378.965C186 379.355 180.6 372.355 174.95 367.435L177.18 379.905C159.71 385.255 145.15 378.695 138.06 361.835C135.23 359.445 129.7 358.555 127.34 354.985C120.06 343.985 122.08 330.265 129.87 319.955C133.42 315.265 135.85 310.495 137.7 304.915C143.46 287.575 135.62 269.575 119.4 261.115C110.53 256.485 100.68 254.135 90.5199 254.705C94.7499 260.935 97.6099 267.335 95.1699 274.555C92.4499 270.945 91.1499 267.795 88.2599 265.315C66.0099 246.165 34.2499 251.235 13.4999 269.585C10.5399 272.205 8.95991 276.255 5.02991 277.115C7.17991 268.355 11.0199 259.395 18.0599 253.155C26.5299 245.645 37.0299 241.745 48.5999 243.585C49.4199 236.215 53.0099 230.445 58.0099 225.255C67.4199 215.505 81.2599 212.995 93.2699 219.545C96.1199 221.105 99.0199 222.475 101.01 225.725L109.51 217.255C120.3 209.215 134.68 206.145 147.83 209.815C165.94 214.875 179.02 228.665 184.15 246.925C191.87 244.225 199.88 245.355 206.31 250.625C214.29 257.175 217.54 267.345 216.65 277.205V277.215Z" fill="#F3D1DC"/>
<path d="M191.58 378.955C193.81 384.705 198.66 389.205 202.06 394.815C202.49 399.765 200.49 406.065 202.15 411.495C205.23 421.605 211.78 430.155 220.37 436.445C223.99 439.095 229.04 439.385 233.09 440.405L226.49 442.825C219.58 444.115 212.41 444.465 205.57 443.755C195.91 441.745 188.32 437.045 181.73 430.145C176.87 425.055 173.48 419.425 172.87 411.695C144.38 424.915 110.9 406.675 98.0499 381.015C93.2199 371.365 91.9299 360.795 92.3499 350.385C92.5699 344.945 94.4799 340.455 96.0899 335.485C97.0999 332.375 94.4699 329.035 93.2199 326.345C88.6799 316.535 84.1299 307.155 78.3499 298.105C74.9899 292.845 70.6599 288.915 65.7899 285.215C39.1699 265.005 6.19989 281.155 5.05989 278.545C4.90989 278.205 4.91989 277.545 5.01989 277.105C8.94989 276.245 10.5299 272.195 13.4899 269.575C34.2499 251.215 65.9999 246.155 88.2499 265.305C91.1399 267.785 92.4299 270.935 95.1599 274.545C97.5999 267.325 94.7499 260.925 90.5099 254.695C100.67 254.135 110.52 256.485 119.39 261.105C135.6 269.565 143.45 287.565 137.69 304.905C135.84 310.475 133.41 315.245 129.86 319.945C122.07 330.255 120.05 343.975 127.33 354.975C129.69 358.545 135.21 359.435 138.05 361.825C145.14 378.675 159.7 385.235 177.17 379.895L174.94 367.425C180.59 372.345 185.99 379.345 191.58 378.955Z" fill="#D1B6D8"/>
</svg>
