<svg width="506" height="431" viewBox="0 0 506 431" fill="none" xmlns="http://www.w3.org/2000/svg">
<path d="M264.822 287.396L252.512 287.306L253.762 271.586L257.992 261.406L263.822 273.276L264.822 287.396Z" fill="#EEE5DD"/>
<path d="M477.622 336.536C479.002 339.696 477.542 342.846 476.252 345.966L473.402 352.826C470.582 357.486 466.892 361.436 462.892 364.786L455.282 366.486C451.422 366.306 446.882 369.006 442.752 368.116L433.322 366.076L421.112 363.676C418.522 363.166 415.172 363.106 412.552 363.606L401.712 365.676C400.172 365.966 397.302 367.106 396.062 368.046C393.202 371.506 390.232 374.096 386.462 376.496C383.572 378.336 382.942 382.586 380.942 384.826L376.372 389.936C374.562 393.706 369.542 399.836 365.662 401.856L365.242 406.846L358.362 408.996C356.502 409.576 354.902 410.046 353.632 411.356C353.172 411.126 352.252 411.236 351.732 411.296L349.762 411.526C341.372 412.496 332.482 411.246 324.282 408.086C322.172 407.276 320.172 407.146 317.992 406.716L316.382 406.396C316.112 406.346 315.852 407.096 315.912 407.456C314.642 407.316 313.842 408.016 312.812 408.886C293.252 425.476 264.612 431.736 239.132 430.736C229.912 430.376 221.232 429.436 212.672 427.146C213.192 425.376 215.172 425.636 214.892 424.206C215.372 424.296 216.452 424.346 216.702 424.826C216.852 425.146 216.792 425.826 217.312 426.026C218.042 426.306 218.612 425.556 218.952 425.186L232.902 427.136L257.302 426.876C268.722 425.786 279.702 423.486 289.792 418.706L301.572 411.026C302.222 410.606 302.852 410.426 303.012 409.616C303.172 408.806 302.652 407.946 301.492 407.796L295.092 406.966C292.122 410.576 282.692 413.376 277.962 413.576C275.632 413.676 273.912 414.346 271.822 415.126C265.272 417.556 258.442 417.936 251.462 418.576C248.752 418.826 245.532 420.716 242.932 419.726C240.632 418.856 238.922 417.776 236.042 418.536C229.812 420.166 230.922 416.636 227.652 416.446C227.392 416.426 226.942 416.016 226.732 415.836C226.422 415.586 226.302 415.146 226.822 414.586L234.132 415.076C239.552 414.436 244.582 413.866 249.952 413.686C251.592 413.636 253.412 412.256 255.042 412.686C255.392 411.426 254.732 410.556 254.202 410.106C253.522 409.526 252.622 409.516 251.142 409.286C253.342 402.766 259.472 404.656 258.352 400.856L267.422 399.696C273.432 398.926 276.332 393.736 280.622 391.666C282.292 390.866 283.552 388.306 286.412 389.046C286.412 386.426 287.922 385.386 289.992 384.766C290.102 382.266 291.762 381.006 294.162 381.336L296.912 378.786C299.282 378.856 300.492 377.446 300.652 375.476C300.732 374.426 301.982 373.966 303.152 374.136L308.742 374.956C311.602 374.506 312.582 375.706 314.882 376.726L321.902 379.836L325.682 381.726C327.092 383.246 332.922 385.596 336.942 387.806C338.622 388.736 338.992 389.426 341.652 389.666L351.552 390.556L356.992 389.126C358.592 385.626 361.982 384.176 365.782 383.876C371.752 380.056 376.572 375.156 381.702 370.376L386.562 366.906C389.092 365.106 391.712 362.886 394.592 361.596L402.132 358.226L410.692 356.486C412.022 356.216 414.832 356.866 415.392 355.126C415.412 354.496 414.672 353.076 415.372 352.566C415.902 352.186 416.612 352.056 417.522 352.056H421.402L430.402 352.536C434.182 352.726 437.952 353.876 441.902 353.166L459.362 350.056C461.622 348.386 463.502 344.756 467.102 344.606L469.162 339.626C470.092 337.376 468.362 327.936 467.582 326.796L463.452 320.796C461.412 317.836 457.992 316.526 455.162 314.936C452.702 313.556 450.552 312.136 447.132 313.236C447.482 308.566 455.372 308.136 456.072 309.276C456.772 310.416 456.522 311.466 456.462 313.226C458.552 311.796 460.182 311.196 461.762 312.806C465.322 313.206 468.052 315.426 468.912 319.046C472.322 320.436 474.362 323.156 475.292 326.676C477.972 330.666 476.272 333.506 477.592 336.516L477.622 336.536Z" fill="#E1DAE5"/>
<path d="M258.382 400.856C259.492 404.666 253.372 402.776 251.172 409.286C252.652 409.516 253.552 409.526 254.232 410.106C254.762 410.556 255.432 411.426 255.072 412.686C253.442 412.256 251.622 413.636 249.982 413.686C244.612 413.866 239.582 414.436 234.162 415.076L226.852 414.586L217.082 413.606L208.642 411.836C205.562 411.186 201.902 409.606 198.752 411.156C193.342 413.836 192.172 407.746 188.262 409.686C187.352 410.136 186.102 412.656 187.312 413.436C195.802 418.916 205.332 422.396 214.912 424.206C215.192 425.636 213.212 425.376 212.692 427.146C206.092 425.386 199.472 423.586 193.292 420.476C193.402 419.296 192.842 418.256 191.702 417.456C190.912 417.356 190.252 417.926 189.972 418.806C185.372 416.496 180.792 413.946 176.892 410.576C177.292 409.646 177.402 408.646 176.652 407.866C176.092 407.286 174.802 406.966 174.472 408.486C169.702 404.356 165.482 399.646 161.492 394.306L153.952 398.256C139.432 404.456 123.062 404.346 108.922 397.896C108.472 395.756 106.442 395.506 104.662 394.476C102.882 393.446 101.602 391.406 99.3423 391.606C98.3223 390.626 96.5123 389.916 96.2623 388.336C95.9523 386.386 94.6323 385.106 93.3123 383.176L86.4622 384.176L75.0323 383.556L65.7923 380.846L59.5123 378.806C56.9923 377.986 54.4423 376.226 52.4223 374.476C50.6823 372.966 49.9423 370.266 48.9423 368.466C48.3323 367.376 48.2123 365.766 48.2323 364.266C50.2023 363.356 51.4423 362.256 52.7523 360.886C55.6123 361.686 58.4023 364.016 60.2823 366.706L66.1923 368.236L71.9623 368.316L78.8523 368.956C82.9523 369.336 85.4423 371.386 94.0723 370.176C98.5523 369.546 102.502 369.886 106.822 370.046L111.952 368.926L122.162 367.746C126.882 368.356 130.032 367.286 134.042 365.836C137.422 364.616 141.422 365.366 144.652 365.166L154.262 364.576C158.672 364.306 162.672 362.946 166.862 364.576C170.942 363.786 174.442 366.626 176.742 369.736C180.462 370.826 182.942 373.126 183.372 377.076L188.402 382.356C191.012 385.106 197.142 387.096 198.992 390.376C200.722 393.436 207.682 395.226 210.012 398.166C211.162 399.606 211.382 400.236 213.272 400.516L218.112 401.236C220.022 401.526 222.612 401.516 224.192 402.086C229.272 406.966 232.812 401.946 235.142 402.726C239.282 404.116 243.042 404.256 247.092 402.436C248.232 402.206 250.002 402.846 251.282 403.076C253.482 400.896 255.932 401.176 258.392 400.856H258.382Z" fill="#D1D5E7"/>
<path d="M315.932 407.446C315.872 407.086 316.132 406.336 316.402 406.386L318.012 406.706C320.182 407.136 322.192 407.266 324.302 408.076C332.492 411.236 341.392 412.486 349.782 411.516C349.762 411.696 349.742 412.126 349.872 412.316C350.102 412.666 351.022 412.796 351.422 412.596C351.822 412.396 351.902 411.736 351.762 411.296C352.282 411.236 353.202 411.126 353.662 411.356C353.932 411.526 354.432 412.196 354.642 412.026L355.972 410.956C374.222 407.296 389.832 395.856 397.892 378.526C413.322 382.246 429.102 381.116 443.792 375.706C451.022 373.046 457.562 369.896 462.892 364.786C466.892 361.436 470.582 357.486 473.402 352.826L476.252 345.966C477.552 342.846 479.012 339.696 477.622 336.536C479.482 330.636 477.122 325.046 473.952 319.816C471.762 316.206 469.992 312.636 465.882 310.646C461.602 305.636 451.722 301.776 445.022 300.306L436.512 298.436C430.212 297.056 424.992 298.076 422.572 295.766L419.682 290.426C419.092 289.336 417.632 289.036 417.262 287.776L423.372 286.876C423.622 289.136 424.632 291.136 425.562 293.556C441.602 293.626 455.892 297.246 468.232 307.596C479.412 316.966 484.992 331.286 480.602 345.376C477.472 355.446 470.882 363.326 462.542 369.406C444.652 382.466 421.682 386.196 399.422 382.346C387.302 406.336 360.722 418.476 334.342 414.086C327.542 412.956 321.272 411.206 315.922 407.456L315.932 407.446Z" fill="#D5EBE9"/>
<path d="M90.2722 284.086C90.8522 285.536 89.6322 286.136 88.9022 287.166C85.5122 291.936 83.5422 297.216 82.4522 303.076C62.7322 305.096 41.6322 315.586 34.5822 334.516C30.0122 346.786 34.3222 360.306 44.2322 368.656C46.0622 367.946 47.4322 368.026 48.9222 368.476C49.9322 370.276 50.6722 372.976 52.4022 374.486C54.4222 376.236 56.9722 377.996 59.4922 378.816L65.7722 380.856L75.0122 383.566L86.4422 384.186L93.2922 383.186C94.6122 385.116 95.9322 386.396 96.2422 388.346L93.5022 386.196C73.8022 389.046 51.8022 382.836 38.6022 368.006C26.9922 354.966 26.4922 336.086 37.4022 322.556C47.9522 309.466 62.6622 302.486 79.5222 300.206C80.7922 293.186 84.2122 288.886 86.6822 283.536L90.2522 284.096L90.2722 284.086Z" fill="#DCC9DE"/>
<path d="M193.292 420.476L189.972 418.806C190.252 417.926 190.912 417.356 191.702 417.456C192.842 418.256 193.392 419.296 193.292 420.476Z" fill="#E1DAE5"/>
<path d="M108.922 397.896C105.442 396.306 102.042 394.206 99.3423 391.606C101.612 391.406 102.872 393.436 104.662 394.476C106.452 395.516 108.472 395.756 108.922 397.896Z" fill="#DCC9DE"/>
<path d="M176.892 410.576L174.482 408.486C174.802 406.966 176.102 407.286 176.662 407.866C177.412 408.646 177.302 409.646 176.902 410.576H176.892Z" fill="#E1DAE5"/>
<path d="M135.962 301.446C128.342 303.916 121.062 307.306 114.232 311.916C112.732 312.936 111.202 315.236 110.312 316.776C105.402 325.326 118.002 333.196 127.362 336.716C134.002 339.206 140.672 342.616 147.812 343.006C151.712 343.226 155.722 341.246 159.702 341.126L166.342 339.536C167.002 339.376 167.482 338.896 167.252 338.176L179.232 338.606C193.192 340.366 206.822 344.036 218.272 353.076L230.992 353.616L267.942 354.966C267.512 356.936 268.852 358.096 269.992 359.446C272.042 361.856 273.992 362.646 277.082 363.366L279.292 364.726C279.932 365.116 281.482 364.576 281.362 363.016C281.252 361.606 283.072 361.786 282.782 363.146C282.322 365.266 283.362 366.876 284.412 367.846C285.762 369.106 287.452 368.286 289.272 367.976C290.642 367.746 291.942 370.976 290.442 371.776C289.212 372.436 287.282 374.816 288.702 375.926C290.582 377.406 293.782 375.046 295.612 375.166L300.692 375.476C300.532 377.446 299.322 378.856 296.952 378.786L294.202 381.336C291.802 381.006 290.132 382.266 290.032 384.766C287.952 385.386 286.442 386.426 286.452 389.046C283.602 388.306 282.332 390.866 280.662 391.666C276.362 393.736 273.472 398.926 267.462 399.696L258.392 400.856C255.932 401.176 253.472 400.896 251.282 403.076C250.002 402.856 248.232 402.206 247.092 402.436C243.042 404.256 239.282 404.116 235.142 402.726C232.812 401.946 229.262 406.966 224.192 402.086C222.612 401.516 220.032 401.526 218.112 401.236L213.272 400.516C211.382 400.236 211.162 399.606 210.012 398.166C207.682 395.236 200.722 393.436 198.992 390.376C197.142 387.096 191.012 385.106 188.402 382.356L183.372 377.076C182.942 373.126 180.462 370.826 176.742 369.736C174.442 366.626 170.942 363.786 166.862 364.576C162.672 362.946 158.662 364.306 154.262 364.576L144.652 365.166C141.422 365.366 137.422 364.606 134.042 365.836C130.032 367.286 126.872 368.356 122.162 367.746L111.952 368.926L106.822 370.046C102.502 369.886 98.5522 369.546 94.0722 370.176C85.4422 371.386 82.9522 369.336 78.8522 368.956L71.9622 368.316L66.1922 368.236L60.2822 366.706C58.4022 364.016 55.6122 361.676 52.7522 360.886C52.3222 359.676 51.3622 358.736 50.1222 357.626L44.7822 352.856C42.0222 350.386 43.1022 346.336 42.9422 343.086C42.7122 338.426 43.5222 335.186 47.1422 332.136C52.7822 327.386 50.9222 322.336 55.9022 321.886L58.6922 318.196C62.7622 317.916 64.6422 314.476 67.3422 312.356C70.8322 309.616 76.3322 310.116 80.1422 308.506L86.0422 306.006C88.3722 305.016 89.7222 306.176 91.5122 307.966C91.6822 305.846 93.4122 304.666 94.3822 303.486C97.5022 299.686 100.542 296.136 104.942 293.576C106.092 292.906 106.822 291.466 107.532 290.616C108.412 290.486 109.052 290.806 109.792 291.636C120.682 303.986 134.752 299.876 135.382 300.116C135.892 300.316 135.852 301.016 135.972 301.446H135.962Z" fill="#D5EBE9"/>
<path d="M417.262 287.766C417.642 289.026 419.092 289.326 419.682 290.416L422.572 295.756C424.992 298.066 430.212 297.046 436.512 298.426L445.022 300.296C451.722 301.766 461.602 305.626 465.882 310.636C469.982 312.636 471.752 316.196 473.952 319.806C477.132 325.036 479.492 330.626 477.622 336.526C476.302 333.516 478.002 330.686 475.322 326.686C474.392 323.166 472.362 320.446 468.942 319.056C468.082 315.436 465.352 313.226 461.792 312.816C460.212 311.206 458.572 311.806 456.492 313.236C456.552 311.466 456.822 310.466 456.102 309.286C455.382 308.106 447.502 308.566 447.162 313.246C450.582 312.146 452.732 313.566 455.192 314.946C458.012 316.526 461.442 317.836 463.482 320.806L467.612 326.806C468.392 327.946 470.122 337.386 469.192 339.636L467.132 344.616C463.532 344.756 461.642 348.396 459.392 350.066L441.932 353.176C437.982 353.876 434.212 352.736 430.432 352.546L421.432 352.086H417.552C416.642 352.066 415.922 352.206 415.402 352.586C414.692 353.096 415.442 354.506 415.422 355.146C414.862 356.886 412.052 356.236 410.722 356.506L402.162 358.246L394.622 361.616C391.752 362.906 389.122 365.126 386.592 366.926L381.732 370.396C376.602 375.176 371.792 380.076 365.812 383.896C362.012 384.196 358.622 385.646 357.022 389.146L351.582 390.576L341.682 389.686C339.032 389.446 338.652 388.756 336.972 387.826C332.962 385.606 327.122 383.256 325.712 381.746L321.932 379.856L314.912 376.746C312.622 375.726 311.632 374.526 308.772 374.976L303.182 374.156C302.012 373.986 300.772 374.446 300.682 375.496L295.602 375.186C293.772 375.066 290.572 377.426 288.692 375.946C287.272 374.836 289.202 372.456 290.432 371.796C291.932 370.996 290.632 367.766 289.262 367.996C287.452 368.306 285.762 369.116 284.402 367.866C283.362 366.896 282.312 365.286 282.772 363.166C283.072 361.806 281.242 361.626 281.352 363.036C281.472 364.606 279.922 365.146 279.282 364.746L277.072 363.386C273.972 362.666 272.032 361.876 269.982 359.466C268.832 358.116 267.502 356.956 267.932 354.986L307.962 353.446C326.542 352.726 345.082 349.646 363.302 345.776L384.502 339.876C391.682 337.876 398.102 334.056 403.612 329.106C408.072 325.096 408.292 318.446 403.962 314.366C399.332 310.006 393.802 307.016 388.062 304.996L386.792 304.066C394.052 302.586 403.782 294.466 405.322 286.076C409.432 287.596 413.372 288.356 417.252 287.786L417.262 287.766Z" fill="#EEE5DD"/>
<path d="M264.822 287.396C265.442 296.026 268.762 304.326 273.252 311.966C270.502 314.746 268.682 317.676 268.172 321.296C267.602 325.366 269.862 328.886 273.782 330.186C282.842 333.196 292.262 332.506 301.232 330.496C301.292 331.996 300.392 333.376 298.632 333.256C297.542 333.186 296.552 333.326 295.992 334.166C295.572 334.796 295.442 336.336 296.132 337.116C297.442 338.626 296.972 339.966 297.162 341.486C297.492 344.076 300.882 344.796 302.262 346.376L306.172 350.826C306.852 351.596 307.622 352.256 307.972 353.416L267.942 354.956L230.992 353.606L218.272 353.066C206.822 344.016 193.202 340.346 179.232 338.596C182.682 336.716 188.082 336.616 190.312 332.406C192.852 327.616 190.732 322.066 186.282 318.506C189.672 312.726 192.782 307.406 194.852 301.026C197.292 300.476 199.612 300.396 202.282 300.806L204.692 316.106C205.822 323.266 210.652 327.616 217.562 328.916C225.952 330.496 234.242 331.486 242.552 328.876C245.082 328.076 248.052 326.636 248.992 323.956C250.782 318.906 248.432 313.726 244.242 310.176C248.902 303.086 251.092 295.306 252.512 287.286L264.822 287.366V287.396Z" fill="#D1D5E7"/>
<path d="M386.802 304.056L388.072 304.986C386.872 307.086 383.712 305.996 382.062 307.776C381.202 308.706 381.402 310.196 380.982 311.476L376.572 325.006C375.482 328.356 374.482 332.686 371.432 334.496L366.692 337.306L362.212 339.956C359.872 341.346 356.942 341.456 354.502 343.776C357.932 346.096 362.432 342.816 363.332 345.746C345.112 349.616 326.572 352.706 307.992 353.416C307.642 352.256 306.862 351.596 306.192 350.826L302.282 346.376C300.902 344.796 297.512 344.076 297.182 341.486C296.992 339.966 297.462 338.626 296.152 337.116C295.472 336.326 295.602 334.796 296.012 334.166C296.572 333.326 297.552 333.176 298.652 333.256C300.422 333.376 301.312 331.996 301.252 330.496C307.852 329.016 312.142 323.946 313.152 317.116L315.262 302.806C317.992 302.086 320.352 302.196 322.912 302.806L331.432 320.126C329.052 322.406 326.872 324.926 326.352 328.326C324.612 339.706 341.672 341.226 353.732 339.156C362.662 337.616 371.492 335.196 374.752 326.926C377.492 319.976 379.162 312.716 380.532 305.346L386.822 304.066L386.802 304.056Z" fill="#E1DAE5"/>
<path d="M107.522 290.606C106.812 291.446 106.082 292.896 104.932 293.566C100.532 296.126 97.4923 299.676 94.3723 303.476C93.4023 304.656 91.6723 305.846 91.5023 307.956C89.7223 306.166 88.3723 305.006 86.0323 305.996L80.1323 308.496C76.3223 310.116 70.8223 309.616 67.3323 312.346C64.6323 314.466 62.7523 317.906 58.6823 318.186L55.8923 321.876C50.9123 322.326 52.7723 327.376 47.1323 332.126C43.5123 335.186 42.7023 338.426 42.9323 343.076C43.0923 346.326 42.0123 350.376 44.7723 352.846L50.1123 357.616C51.3523 358.726 52.3123 359.676 52.7423 360.876C51.4323 362.246 50.1923 363.346 48.2223 364.256C48.2123 365.766 48.3223 367.366 48.9323 368.456C47.4423 368.006 46.0723 367.926 44.2423 368.636C34.3323 360.286 30.0223 346.766 34.5923 334.496C41.6423 315.566 62.7423 305.076 82.4623 303.056C83.5423 297.196 85.5123 291.916 88.9123 287.146C89.6423 286.116 90.8623 285.516 90.2823 284.066C94.9123 284.796 99.6123 283.936 104.312 282.056C105.322 286.276 108.042 288.516 107.522 290.586V290.606Z" fill="#E1DAE5"/>
<path d="M135.962 301.446L141.922 322.756C145.202 334.466 155.242 336.106 167.242 338.186C167.472 338.906 166.992 339.386 166.332 339.546L159.692 341.136C155.722 341.256 151.712 343.236 147.802 343.016C140.662 342.626 133.992 339.216 127.352 336.726C117.982 333.206 105.382 325.336 110.302 316.786C111.192 315.246 112.722 312.936 114.222 311.926C121.052 307.306 128.332 303.926 135.952 301.456L135.962 301.446Z" fill="#D1D5E7"/>
<path d="M462.892 364.776C457.562 369.886 451.022 373.036 443.792 375.696C429.092 381.106 413.312 382.236 397.892 378.516C389.822 395.846 374.222 407.286 355.972 410.946L354.642 412.016C354.422 412.186 353.922 411.526 353.662 411.346C354.922 410.036 356.522 409.566 358.392 408.986L365.272 406.836L365.692 401.846C369.572 399.826 374.592 393.696 376.402 389.926L380.972 384.816C382.972 382.576 383.602 378.326 386.492 376.486C390.262 374.086 393.222 371.496 396.092 368.036C397.332 367.086 400.202 365.956 401.742 365.666L412.582 363.596C415.202 363.096 418.552 363.156 421.142 363.666L433.352 366.066L442.782 368.106C446.912 368.996 451.452 366.296 455.312 366.476L462.922 364.776H462.892Z" fill="#D1D5E7"/>
<path d="M218.972 425.176C218.252 424.826 217.512 424.766 216.722 424.826C216.472 424.356 215.392 424.296 214.912 424.206C205.332 422.396 195.802 418.916 187.312 413.436C186.102 412.656 187.352 410.146 188.262 409.686C192.172 407.746 193.342 413.836 198.752 411.156C201.892 409.596 205.562 411.186 208.642 411.836L217.082 413.606L226.852 414.586C226.332 415.156 226.452 415.586 226.762 415.836C226.982 416.016 227.432 416.426 227.682 416.446C230.952 416.636 229.842 420.166 236.072 418.536C238.952 417.786 240.662 418.856 242.962 419.726C245.572 420.716 248.792 418.826 251.492 418.576C258.472 417.926 265.302 417.556 271.852 415.126C273.942 414.346 275.652 413.676 277.992 413.576C282.722 413.376 292.152 410.576 295.122 406.966L301.522 407.796C302.682 407.946 303.192 408.836 303.042 409.616C302.892 410.396 302.252 410.606 301.602 411.026L289.822 418.706C279.742 423.476 268.752 425.776 257.332 426.876L232.932 427.136L218.982 425.186L218.972 425.176Z" fill="#DCC9DE"/>
<path d="M351.752 411.296C351.902 411.736 351.822 412.406 351.412 412.596C351.002 412.786 350.092 412.676 349.862 412.316C349.732 412.126 349.762 411.696 349.772 411.516L351.742 411.286L351.752 411.296Z" fill="#D1D5E7"/>
<path d="M218.972 425.176C218.632 425.546 218.052 426.296 217.332 426.016C216.822 425.816 216.882 425.146 216.722 424.816C217.512 424.766 218.252 424.816 218.972 425.166V425.176Z" fill="#D1D5E7"/>
<path d="M363.312 345.756C362.412 342.836 357.912 346.106 354.482 343.786C356.932 341.456 359.852 341.346 362.192 339.966L366.672 337.316L371.412 334.506C374.462 332.696 375.462 328.356 376.552 325.016L380.962 311.486C381.382 310.206 381.182 308.716 382.042 307.786C383.692 306.006 386.852 307.096 388.052 304.996C393.792 307.006 399.312 310.006 403.952 314.366C408.292 318.446 408.072 325.096 403.602 329.106C398.092 334.056 391.672 337.876 384.492 339.876L363.292 345.776L363.312 345.756Z" fill="#F2CEDB"/>
<path d="M116.552 72.1663L117.142 73.9763C114.052 74.7563 111.572 76.3063 108.862 78.3663C101.012 84.3363 97.6122 94.9263 101.682 104.146L106.532 110.956L100.232 117.626C93.3222 126.446 92.5422 138.126 98.5522 147.556C103.112 154.706 111.262 158.476 119.582 156.826C120.632 167.866 129.752 176.406 140.032 175.926C138.602 182.426 134.172 187.426 128.592 190.346C129.042 186.776 126.322 182.316 123.962 179.816C119.882 175.486 114.712 173.926 108.802 176.526C107.062 168.466 102.292 163.326 96.2222 158.716C84.6422 149.926 68.3022 152.076 59.5122 164.466C55.3522 161.416 50.8922 158.856 45.6222 159.206C36.1722 159.826 29.3422 167.366 28.1622 176.516C24.3122 176.636 20.7722 176.946 17.2322 178.386C9.68223 182.226 4.30223 189.066 2.87223 197.166C2.25223 197.426 2.73223 199.556 3.41223 199.346C8.17223 197.866 12.5722 197.046 17.3822 196.486C30.9922 194.916 43.2522 201.786 49.5322 213.896L58.5422 231.276C55.5722 241.846 56.2322 252.886 61.4922 262.506C63.9022 266.916 67.4422 270.126 71.2422 273.326C79.3622 280.146 89.8822 283.416 100.352 280.846C102.172 280.396 103.482 278.896 105.912 278.996C106.832 284.876 110.182 288.916 114.612 292.636C120.012 297.176 127.272 299.796 134.282 297.486C135.232 296.496 134.522 293.926 134.322 292.866L132.682 284.256L132.592 280.096C133.472 279.856 134.022 280.026 134.162 280.336L134.642 281.426L138.782 300.876C140.502 308.966 142.122 316.846 145.242 324.416C146.902 328.436 149.542 331.096 153.652 332.206L160.782 334.126C171.262 336.956 190.202 336.376 188.942 327.666C188.382 323.826 185.672 321.306 182.592 318.726C189.182 310.176 192.982 300.956 194.002 290.556C194.222 288.316 193.742 286.566 193.662 284.706C193.352 277.126 190.502 269.926 186.172 263.446C186.312 263.076 186.422 262.466 186.902 262.236C187.382 262.006 187.982 262.006 188.472 262.176C195.592 272.226 198.972 286.156 195.282 298.506L204.752 298.246C204.502 300.416 205.162 302.546 205.662 304.896L208.812 319.716C209.762 324.166 214.812 325.816 218.762 326.476L226.462 327.756C231.972 328.676 237.842 328.006 243.352 326.036C246.312 324.976 247.622 322.386 247.082 319.286C246.432 315.616 244.082 313.216 240.822 311.136L245.052 303.236C248.772 296.276 250.582 288.516 250.742 280.676L250.932 271.426L252.162 266.466C254.272 265.816 255.812 260.616 256.802 256.676C255.152 250.606 254.302 244.676 253.812 238.486C247.472 235.786 242.512 231.626 239.852 225.016C229.352 228.796 218.902 230.266 207.942 229.006L195.282 227.546C190.212 226.966 185.602 224.516 180.852 222.726C178.282 221.756 175.512 219.816 176.082 218.676C176.652 217.536 177.832 218.646 181.002 218.986C181.042 219.886 181.622 220.366 182.552 220.756C198.812 227.466 222.682 228.736 239.242 222.246L240.092 215.946C241.542 211.776 244.372 207.426 248.952 206.376L261.572 203.476L266.382 202.716C267.442 199.306 266.732 196.316 265.042 193.866C260.642 187.496 254.722 187.276 246.122 187.876L228.952 189.076C223.522 189.456 217.792 188.516 212.432 187.386C206.452 186.116 200.742 183.216 195.252 180.866C195.322 180.196 195.572 179.826 195.842 179.726C197.462 179.106 205.222 183.576 213.182 184.996C219.082 186.046 225.262 186.706 231.582 186.256L247.562 185.136C252.702 184.776 258.202 184.846 262.952 187.156C263.412 187.376 264.042 187.966 264.612 187.946L267.092 191.026C269.412 193.916 269.832 197.566 269.692 202.396C280.742 201.406 291.742 198.196 300.692 191.876C301.972 190.976 304.832 190.396 305.112 188.586L306.672 188.096C307.332 187.866 308.742 189.046 308.142 189.606C302.752 194.626 296.302 198.186 289.632 200.686C284.582 202.576 279.182 203.926 273.832 204.696C266.872 205.696 259.782 206.246 252.742 208.096C247.332 209.516 243.842 213.156 242.862 218.396C241.932 223.356 244.292 228.516 248.792 231.956C254.892 236.616 262.482 238.626 270.142 239.926C289.572 243.226 312.262 238.456 327.522 227.346L333.422 223.046C333.942 222.666 334.642 222.796 335.062 223.106C336.622 224.246 333.682 226.076 333.192 227.326L322.122 234.256C315.302 237.596 308.142 239.886 300.412 241.796C286.002 245.336 271.542 243.916 257.132 239.726C256.642 249.516 259.892 262.056 264.642 269.676C265.552 271.136 266.012 272.386 266.132 273.906L266.932 284.136C267.462 290.896 270.232 301.326 273.642 307.296L276.622 312.526C273.812 314.836 271.382 317.176 270.662 320.656C268.802 329.646 283.822 330.326 293.542 329.046C296.202 328.886 299.132 328.716 301.262 327.036C305.702 326.806 309.102 323.286 309.832 318.796L312.702 300.136L321.782 300.076L320.602 291.966C320.012 281.836 323.082 272.166 328.892 263.906L330.612 263.056C331.232 263.656 331.602 264.926 330.902 265.846C328.492 269.016 327.092 272.406 325.892 275.806C321.162 289.196 324.232 303.846 332.132 315.886C333.122 317.396 333.972 318.786 334.632 320.686C332.072 322.386 330.212 324.726 329.082 327.396C328.022 329.896 329.202 331.166 330.322 332.916C335.092 340.336 359.592 337.646 369.042 330.916C372.222 327.936 373.842 322.806 374.722 318.706L380.622 291.246C381.362 287.816 381.882 284.526 383.542 281.296C385.122 282.346 384.942 284.146 384.702 285.436L381.572 302.256C387.362 302.366 391.942 299.166 396.152 296.066C400.362 292.966 402.312 288.566 403.522 283.416C403.872 281.936 406.152 283.846 407.122 284.096C412.052 285.376 419.032 285.736 424.312 284.016C442.292 278.146 452.442 262.946 450.782 244.156L448.592 235.176L453.232 225.186C456.242 218.716 459.292 212.646 464.292 207.506C478.032 193.366 499.172 201.656 501.552 200.956C501.852 200.866 501.862 200.126 502.392 199.786C501.052 187.816 489.942 178.526 476.932 179.456C476.112 172.046 471.322 166.986 464.642 164.026C458.372 161.246 451.092 163.296 445.912 168.956C437.612 157.456 422.672 154.556 410.842 162.366C403.902 166.946 398.832 173.476 396.982 181.806C393.172 180.406 389.652 180.236 386.342 182.216C383.462 183.936 380.442 186.766 380.382 190.716C379.062 189.786 377.732 189.536 376.672 187.576L372.142 179.116C381.572 177.206 388.302 169.016 388.422 159.296C396.772 161.136 403.422 157.256 408.442 151.026C416.442 136.686 413.042 122.116 398.762 113.686C407.622 105.476 408.052 92.7563 400.212 84.2463C390.922 74.1563 382.542 76.8063 381.032 75.6963C380.372 75.2163 380.012 74.0763 379.692 73.1163C379.742 72.6963 379.932 72.1063 380.302 72.1063H382.232C381.862 72.2863 381.662 73.0063 381.892 73.1663L389.162 74.4763C398.362 76.9263 405.742 84.3763 407.552 93.7363C408.892 100.696 407.082 107.146 402.802 113.016C416.372 123.126 419.112 141.556 408.662 154.506C404.262 159.956 397.682 162.336 390.732 162.016C388.922 171.836 384.552 176.966 375.602 180.496C376.502 182.886 377.392 184.976 378.952 186.556C382.292 180.246 388.522 177.196 395.252 178.716C398.392 169.626 404.602 161.896 413.322 158.146C424.772 153.216 437.562 155.506 445.812 165.296C452.192 159.996 460.942 158.696 468.032 162.766C473.462 165.876 477.362 170.696 479.112 176.966C494.672 177.376 505.392 188.816 505.512 204.386C503.422 205.216 502.042 204.386 500.302 203.816C483.452 198.306 467.022 202.256 459.382 218.076L450.972 235.486C453.942 241.826 454.052 248.056 453.032 254.736C450.592 270.676 438.862 283.206 423.362 286.866L417.252 287.766C413.372 288.336 409.432 287.576 405.322 286.056C403.782 294.456 394.052 302.566 386.792 304.046L380.502 305.326C379.142 312.696 377.462 319.956 374.722 326.906C371.462 335.176 362.632 337.596 353.702 339.136C341.642 341.216 324.582 339.686 326.322 328.306C326.842 324.906 329.012 322.386 331.402 320.106L322.882 302.786C320.312 302.186 317.962 302.076 315.232 302.786L313.122 317.096C312.112 323.926 307.832 328.996 301.222 330.476C292.242 332.486 282.832 333.166 273.772 330.166C269.852 328.866 267.592 325.346 268.162 321.276C268.672 317.656 270.492 314.726 273.242 311.946C268.752 304.296 265.432 296.006 264.812 287.376L263.802 273.266L257.972 261.396L253.742 271.576L252.492 287.296C251.062 295.326 248.882 303.096 244.222 310.186C248.402 313.736 250.762 318.916 248.972 323.966C248.022 326.636 245.062 328.086 242.532 328.886C234.222 331.496 225.932 330.506 217.542 328.926C210.632 327.626 205.802 323.276 204.672 316.116L202.262 300.816C199.592 300.416 197.272 300.486 194.832 301.036C192.762 307.416 189.652 312.736 186.262 318.516C190.712 322.076 192.842 327.626 190.292 332.416C188.062 336.626 182.662 336.726 179.212 338.606L167.232 338.176C155.232 336.096 145.182 334.456 141.912 322.746L135.952 301.436C135.832 301.006 135.872 300.296 135.362 300.106C134.732 299.856 120.662 303.966 109.772 291.626C109.032 290.796 108.402 290.476 107.512 290.606C108.032 288.526 105.312 286.296 104.302 282.076C99.6022 283.956 94.9022 284.816 90.2722 284.086L86.7022 283.526C79.6722 282.416 73.5822 278.536 68.0222 274.016C54.7922 263.276 52.6822 248.066 55.1522 231.766C54.0022 225.076 49.1022 218.466 45.6922 212.616C42.2822 206.766 36.5522 201.996 30.0822 200.036C20.6422 197.186 10.8722 199.236 2.00223 202.606C0.412232 203.206 -0.08777 201.156 0.01223 200.026C1.41223 185.226 10.8222 175.406 25.7122 173.496C27.4922 169.266 29.7022 164.606 33.4922 161.426C40.1222 155.856 49.4622 155.006 56.8422 159.966C58.0322 160.766 59.3822 160.646 60.3322 159.656C69.5322 150.106 83.1522 148.326 94.5622 154.746C101.872 158.866 107.602 164.726 110.312 173.226C120.022 170.796 127.632 177.366 130.692 187.316C133.412 184.596 135.952 182.026 136.712 178.036C127.012 177.096 119.552 168.906 117.442 159.816C108.602 159.866 101.122 156.086 96.5622 148.846C88.8122 136.556 91.4822 120.396 103.232 110.936C98.4122 104.396 96.3222 97.5963 98.3722 89.5563C100.592 80.8663 108.652 73.2663 116.522 72.1563L116.552 72.1663Z" fill="#8EA7A5"/>
<path d="M128.592 190.346C126.322 195.306 123.972 199.926 125.092 206.056C125.502 208.316 125.052 210.996 127.012 213.416C119.862 219.536 115.362 227.506 114.932 236.906C113.672 243.916 116.042 250.306 119.872 255.836C118.602 258.066 115.332 258.306 113.212 256.756L106.302 251.706L107.892 258.766C96.9023 262.996 88.6623 258.316 83.8323 248.016C80.2323 246.636 76.9723 244.716 75.4623 240.826C73.0723 234.656 74.5123 227.846 78.4423 222.326C83.9423 214.586 85.6123 204.516 80.8023 195.756C75.6323 186.326 64.3423 181.846 53.8023 182.906C56.5723 187.006 57.6123 191.046 56.7823 195.546C48.7923 181.166 31.4623 179.526 17.2523 186.676C13.1923 188.716 9.76231 190.666 6.80231 194.296C5.77231 195.566 4.25231 196.836 2.87231 197.166C4.30231 189.066 9.68231 182.226 17.2323 178.386C20.7723 176.946 24.3023 176.636 28.1623 176.516C29.3423 167.366 36.1723 159.826 45.6223 159.206C50.8923 158.856 55.3523 161.416 59.5123 164.466C68.3023 152.076 84.6423 149.926 96.2223 158.716C102.292 163.326 107.062 168.466 108.802 176.526C114.712 173.926 119.882 175.486 123.962 179.816C126.322 182.316 129.042 186.776 128.592 190.346Z" fill="#F2CEDB"/>
<path d="M119.862 255.826C120.682 256.026 121.222 256.726 121.152 257.916C120.512 269.266 122.382 280.126 132.692 284.256L134.332 292.866C134.532 293.926 135.252 296.496 134.292 297.486C127.282 299.796 120.022 297.176 114.622 292.636C110.192 288.916 106.852 284.876 105.922 278.996C103.492 278.896 102.182 280.396 100.362 280.846C89.8923 283.416 79.3722 280.146 71.2522 273.326C67.4522 270.136 63.9122 266.916 61.5022 262.506C56.2422 252.886 55.5822 241.846 58.5522 231.276L49.5422 213.896C43.2622 201.786 31.0122 194.916 17.3922 196.486C12.5922 197.036 8.18224 197.866 3.42224 199.346C2.74224 199.556 2.27224 197.426 2.88224 197.166C4.26224 196.836 5.77224 195.566 6.81224 194.296C9.77224 190.656 13.2022 188.716 17.2622 186.676C31.4622 179.526 48.8022 181.166 56.7922 195.546C57.6222 191.036 56.5722 187.006 53.8122 182.906C64.3422 181.856 75.6422 186.336 80.8122 195.756C85.6222 204.526 83.9522 214.586 78.4522 222.326C74.5222 227.856 73.0822 234.656 75.4722 240.826C76.9822 244.716 80.2422 246.636 83.8422 248.016C88.6622 258.316 96.9122 262.996 107.902 258.766L106.312 251.706L113.222 256.756C115.332 258.296 118.612 258.066 119.882 255.836L119.862 255.826Z" fill="#CFB2D6"/>
<path d="M502.402 199.786C501.162 197.716 498.622 196.736 497.092 195.106C494.312 192.146 491.372 190.566 487.722 188.976C472.902 182.516 457.482 184.826 449.172 199.396C448.082 195.016 449.322 190.706 452.182 186.976C444.252 185.716 436.792 188.366 431.112 193.496C420.582 203.006 421.452 215.486 429.332 227.036C432.222 231.266 433.992 236.006 433.342 241.206C432.692 246.406 429.412 250.346 424.232 251.376C420.322 261.516 411.412 267.486 400.982 262.966L402.862 255.256L397.652 259.796C396.402 260.886 395.372 262.126 393.662 262.466C393.252 260.296 392.972 259.256 394.622 257.386C399.472 251.886 400.172 244.556 399.122 237.536C396.562 220.406 385.372 216.466 386.242 214.876L387.332 212.876C388.522 207.996 388.562 202.046 386.012 197.426C384.612 194.896 382.492 192.176 380.392 190.696C380.452 186.746 383.472 183.916 386.352 182.196C389.662 180.216 393.182 180.386 396.992 181.786C398.842 173.456 403.912 166.936 410.852 162.346C422.682 154.536 437.622 157.436 445.922 168.936C451.102 163.276 458.382 161.216 464.652 164.006C471.332 166.966 476.122 172.026 476.942 179.436C489.952 178.516 501.062 187.806 502.402 199.766V199.786Z" fill="#F2CEDB"/>
<path d="M502.402 199.786C501.872 200.116 501.872 200.866 501.562 200.956C499.172 201.656 478.042 193.366 464.302 207.506C459.302 212.646 456.242 218.716 453.242 225.186L448.602 235.176L450.792 244.156C452.452 262.956 442.302 278.156 424.322 284.016C419.042 285.736 412.062 285.376 407.132 284.096C406.172 283.846 403.882 281.946 403.532 283.416C402.322 288.576 400.452 292.916 396.162 296.066C391.872 299.216 387.372 302.366 381.582 302.256L384.712 285.436C386.782 285.286 387.912 283.616 389.052 281.826C392.762 275.986 394.922 269.176 393.662 262.466C395.372 262.126 396.402 260.886 397.652 259.796L402.862 255.256L400.982 262.966C411.422 267.486 420.322 261.516 424.232 251.376C429.412 250.336 432.722 246.216 433.342 241.206C433.962 236.196 432.222 231.266 429.332 227.036C421.442 215.486 420.572 203.006 431.112 193.496C436.792 188.366 444.252 185.716 452.182 186.976C449.322 190.706 448.092 195.016 449.172 199.396C457.482 184.816 472.912 182.516 487.722 188.976C491.372 190.566 494.312 192.146 497.092 195.106C498.622 196.736 501.162 197.706 502.402 199.786Z" fill="#CFB2D6"/>
<path d="M252.162 266.486L250.932 271.446C250.702 271.516 250.192 271.636 249.982 271.926C246.922 276.116 243.742 279.896 239.662 283.376C229.752 291.826 217.402 296.466 204.762 298.246L195.292 298.506C198.982 286.156 195.602 272.226 188.482 262.176C188.402 258.496 188.182 255.036 188.822 251.566C190.072 244.856 191.352 238.146 193.892 231.766L208.352 235.766C218.242 238.646 228.202 238.826 238.652 236.756C240.682 241.296 244.472 243.746 247.802 246.726C250.142 252.996 249.362 260.426 252.162 266.486Z" fill="#F7E6C9"/>
<path d="M326.562 247.816C328.272 252.946 328.992 258.426 328.902 263.896C323.082 272.156 320.022 281.826 320.612 291.956C301.002 290.706 281.052 280.846 274.832 261.446L273.602 253.576C288.022 254.236 301.322 250.826 313.622 244.186C317.002 242.366 320.062 240.446 322.392 237.746C322.812 237.726 323.332 238.126 323.562 238.816L326.552 247.816H326.562Z" fill="#F7E6C9"/>
<path d="M322.162 234.266L322.462 236.696L322.402 237.756C320.062 240.456 317.012 242.376 313.632 244.196C301.332 250.836 288.032 254.246 273.612 253.586L274.842 261.456C281.062 280.866 301.012 290.716 320.622 291.966L321.802 300.076L312.722 300.136L298.542 296.446C287.042 293.446 274.112 284.776 267.842 274.766C267.432 274.116 266.682 273.886 266.162 273.906C266.042 272.386 265.582 271.126 264.672 269.676C259.922 262.056 256.672 249.516 257.162 239.726C271.572 243.926 286.032 245.346 300.442 241.796C308.172 239.896 315.342 237.596 322.152 234.256L322.162 234.266Z" fill="#E1C8BF"/>
<path d="M252.162 266.486C249.362 260.426 250.142 252.996 247.802 246.726C244.472 243.736 240.682 241.296 238.652 236.756C228.202 238.826 218.242 238.656 208.352 235.766L193.892 231.766L194.032 231.066L195.272 227.566L207.932 229.026C218.882 230.286 229.332 228.816 239.842 225.036C242.502 231.646 247.462 235.806 253.802 238.506C254.292 244.686 255.142 250.616 256.792 256.696C255.802 260.646 254.262 265.836 252.152 266.486H252.162Z" fill="#E1C8BF"/>
<path d="M382.232 72.0863H380.302C379.932 72.0863 379.742 72.6863 379.692 73.1063C377.982 75.3363 375.402 76.8463 373.152 78.7163C370.322 81.0663 367.592 82.1163 364.032 81.3263C363.812 81.6163 363.352 81.5163 363.122 81.5663C363.192 81.2963 363.192 80.9763 363.092 80.7263C362.902 80.2463 362.202 80.3363 361.912 80.2063C358.242 78.4463 354.942 74.5063 354.422 70.1163C354.072 67.1463 354.912 64.7163 356.692 62.9263C356.482 66.4563 358.992 68.6763 362.172 69.8663C366.992 71.6663 371.782 70.4963 374.442 65.8963C378.242 59.3463 385.392 63.6463 394.352 59.1863C392.602 57.3863 391.432 56.0363 390.932 53.6663L384.592 53.1463C383.622 53.0663 382.762 52.3763 382.392 51.8963C381.712 51.0163 381.692 49.8263 382.212 48.7863L386.222 40.6963C389.012 35.0663 389.282 24.1763 383.812 21.9963C380.542 26.1363 379.492 31.0463 378.012 35.7163C376.582 40.2163 374.002 43.7463 371.262 47.4463C369.332 50.0463 367.602 53.0463 364.682 54.1163C364.912 53.2263 364.232 52.7463 364.022 52.2563C361.852 47.0363 356.462 44.3863 350.922 45.7563C351.122 44.9363 351.182 44.1763 351.102 43.4363L352.472 43.3363C353.362 44.3063 355.302 44.2563 356.212 43.1663C360.442 43.9963 363.642 46.5063 366.352 50.3963C370.812 45.4963 373.762 40.4263 375.852 34.6763L379.922 23.5163C380.662 21.4763 382.072 19.9863 384.122 19.8963C391.892 19.5663 394.452 39.4363 389.732 50.5263C394.952 50.2363 401.812 46.9363 402.522 50.9663C404.442 61.9063 391.242 72.0663 382.242 72.1063L382.232 72.0863ZM397.382 57.1963C399.742 55.6463 401.792 53.4363 400.342 51.4663C399.572 50.4163 396.002 51.1063 395.522 52.3163C394.812 54.1363 395.982 56.7063 397.382 57.1963Z" fill="#779493"/>
<path d="M380.382 190.706C382.482 192.186 384.602 194.906 386.002 197.436C388.552 202.066 388.512 208.006 387.322 212.886L386.232 214.886C385.362 216.476 396.552 220.416 399.112 237.546C400.162 244.566 399.462 251.896 394.612 257.396C392.962 259.266 393.252 260.306 393.652 262.476C394.912 269.186 392.752 275.996 389.042 281.836C387.912 283.616 386.772 285.296 384.702 285.446C384.942 284.156 385.122 282.356 383.542 281.306C381.882 284.526 381.362 287.816 380.622 291.256L374.722 318.716C373.842 322.816 372.222 327.936 369.042 330.926C359.592 337.646 335.092 340.346 330.322 332.926L336.132 334.406C349.112 334.796 365.672 328.896 365.802 315.536C365.842 311.266 364.672 307.246 365.542 303.076C367.942 300.936 370.922 298.846 372.152 295.656C375.542 286.866 374.782 277.216 371.552 268.726L373.332 270.246C374.732 271.436 376.282 272.256 378.032 271.836C384.232 270.356 384.432 257.296 380.212 249.136C381.462 249.196 383.332 249.386 383.762 248.636C385.362 245.836 384.542 242.676 384.552 240.096C384.562 237.516 383.312 235.256 382.982 232.636C382.572 229.366 381.702 226.966 379.942 224.006C377.712 220.266 375.952 216.116 372.042 213.996L371.422 211.486C372.622 211.286 373.402 210.436 373.922 209.166C374.442 205.186 373.122 201.356 370.252 198.456C370.092 193.196 367.232 188.956 363.492 185.806C362.322 187.336 361.092 187.596 359.402 187.786C351.682 188.676 344.122 184.926 341.302 177.336C347.082 181.486 354.742 181.246 359.302 176.156L362.772 170.636C365.962 173.916 370.412 173.806 373.912 171.646C380.292 167.716 383.202 160.186 381.812 152.526C381.462 150.606 381.602 148.786 380.572 147.346C380.212 146.846 380.112 145.916 380.042 145.016L384.992 145.756C388.182 146.236 390.542 143.116 390.062 139.596C391.122 140.466 391.632 141.266 392.482 141.526C393.472 141.826 394.662 141.466 395.442 140.646C403.022 132.656 398.262 118.756 389.892 111.006C390.442 108.066 390.682 105.106 389.732 101.936L393.332 104.276C396.682 99.9063 395.502 94.9163 391.922 91.1963C389.492 88.6663 386.792 86.7663 382.972 87.1663C381.002 87.3763 380.112 89.5063 379.752 90.8163C378.342 91.5363 378.392 89.5763 377.962 88.8763C373.742 81.9363 365.012 84.8163 364.002 81.3163C367.562 82.1063 370.292 81.0563 373.122 78.7063C375.372 76.8363 377.952 75.3263 379.662 73.0963C379.982 74.0563 380.342 75.1863 381.002 75.6763C382.512 76.7763 390.892 74.1363 400.182 84.2263C408.022 92.7363 407.592 105.456 398.732 113.666C413.012 122.096 416.402 136.676 408.412 151.006C403.392 157.236 396.752 161.116 388.392 159.276C388.262 168.996 381.542 177.196 372.112 179.096L376.642 187.556C377.692 189.516 379.032 189.766 380.352 190.696L380.382 190.706Z" fill="#9DC3B9"/>
<path d="M371.442 211.466L372.062 213.976L374.852 222.666C376.162 226.746 374.232 229.126 372.822 232.256C371.522 235.136 370.392 237.096 368.402 239.416C365.942 242.276 364.182 243.856 360.562 245.216C358.512 245.986 357.132 247.116 354.372 247.506L346.102 248.676C343.872 248.996 342.332 248.656 340.332 248.676C338.002 248.706 336.172 248.956 333.622 248.626L326.562 247.816L323.572 238.816C323.342 238.136 322.832 237.726 322.402 237.746L322.462 236.686C322.652 236.916 323.062 237.276 323.332 237.266C323.682 237.246 331.262 232.336 333.232 227.326C333.722 226.076 336.662 224.246 335.102 223.106C334.672 222.796 333.982 222.666 333.462 223.046L327.562 227.346C326.012 227.246 324.472 227.796 322.912 228.476C316.182 231.386 309.352 232.846 302.502 233.986C301.262 232.656 299.602 232.586 297.982 231.956C296.532 229.216 296.812 226.586 297.632 223.666L299.052 218.556C300.172 216.816 302.292 215.156 302.982 213.186C303.952 210.396 305.762 209.276 307.612 207.406C308.752 206.246 309.152 204.646 310.862 203.516L314.582 201.066C318.472 198.506 321.512 197.256 326.312 197.166L331.332 197.066L347.862 197.396L352.282 197.566L357.192 198.466C359.442 198.876 361.112 199.586 363.462 198.636C365.492 197.816 366.942 200.226 368.272 201.056C373.972 204.616 370.442 207.296 371.472 211.456L371.442 211.466Z" fill="#DCC9DE"/>
<path d="M371.562 268.716C374.802 277.206 375.552 286.856 372.162 295.646C370.932 298.836 367.952 300.926 365.552 303.066C364.672 307.236 365.852 311.256 365.812 315.526C365.692 328.886 349.122 334.786 336.142 334.396L330.332 332.916C329.212 331.166 328.032 329.896 329.092 327.396C330.222 324.726 332.082 322.386 334.642 320.686C333.982 318.786 333.122 317.386 332.142 315.886C324.242 303.856 321.172 289.196 325.902 275.806C326.682 276.496 328.152 276.906 329.262 276.316C331.422 275.176 334.302 276.876 336.182 276.316C338.532 275.616 339.612 274.836 342.092 275.986C345.752 277.676 349.982 275.726 353.652 274.776C356.792 273.966 360.262 275.186 363.132 273.786C367.952 271.446 369.172 266.706 371.542 268.716H371.562Z" fill="#B1DACB"/>
<path d="M373.932 171.636C370.432 173.796 365.982 173.906 362.792 170.626L359.322 176.146C354.762 181.226 347.102 181.476 341.322 177.326C344.142 184.906 351.702 188.656 359.422 187.776C361.112 187.586 362.342 187.326 363.512 185.796C367.262 188.946 370.122 193.186 370.272 198.446C373.142 201.346 374.462 205.176 373.942 209.156C373.412 210.426 372.642 211.276 371.442 211.476C370.412 207.316 373.942 204.636 368.242 201.076C366.922 200.246 365.462 197.846 363.432 198.656C361.072 199.606 359.412 198.896 357.162 198.486L352.252 197.586L347.832 197.416L331.302 197.086L326.282 197.186C321.482 197.276 318.442 198.526 314.552 201.086L310.832 203.536C309.122 204.666 308.732 206.266 307.582 207.426C305.732 209.306 303.932 210.426 302.952 213.206C302.262 215.176 300.142 216.846 299.022 218.576L297.602 223.686C296.792 226.606 296.512 229.236 297.952 231.976C299.582 232.606 301.232 232.686 302.472 234.006C295.292 235.206 286.862 235.976 279.652 235.086C275.942 229.696 278.092 228.516 278.752 225.986L281.242 216.476C282.102 213.176 283.132 211.546 285.052 209.006C286.222 207.456 286.582 204.856 289.652 204.956C289.922 203.266 289.982 202.206 289.632 200.706C296.302 198.206 302.752 194.646 308.142 189.626C308.742 189.066 307.332 187.886 306.672 188.116L305.112 188.606C305.302 187.356 306.472 184.646 308.082 184.886C310.252 185.216 311.282 185.526 313.392 184.476L318.832 181.786L328.672 180.596C333.232 180.046 336.882 177.246 340.272 174.386C342.262 172.546 344.442 171.946 347.222 172.616C350.612 168.306 355.412 171.216 358.172 168.076C359.822 166.196 361.262 166.906 363.262 167.136C365.852 167.436 368.032 166.946 370.492 168.476C371.032 168.816 372.562 168.586 373.052 169.126C373.592 169.716 373.942 170.716 373.912 171.666L373.932 171.636Z" fill="#C7D3D6"/>
<path d="M373.932 171.636C373.962 170.686 373.612 169.696 373.072 169.096C372.582 168.556 371.052 168.776 370.512 168.446C368.062 166.916 365.882 167.406 363.282 167.106C361.292 166.876 359.852 166.166 358.192 168.046C355.432 171.186 350.622 168.276 347.242 172.586C344.462 171.906 342.282 172.516 340.292 174.356C336.892 177.216 333.252 180.006 328.692 180.566L318.852 181.756L313.412 184.446C311.292 185.496 310.272 185.186 308.102 184.856C306.482 184.616 305.322 187.326 305.132 188.576C304.852 190.386 301.982 190.966 300.712 191.866C289.452 183.346 277.742 181.386 267.112 191.016L264.632 187.936C265.412 187.396 265.482 186.386 265.712 185.796L267.502 181.236L270.342 174.696C279.332 180.406 284.452 179.606 293.572 178.796C295.832 178.596 298.052 178.466 299.362 176.896C302.082 177.336 304.082 176.326 306.452 175.016L312.612 171.636C315.142 170.246 323.982 169.486 326.562 167.586C328.322 166.286 330.072 165.746 331.872 164.726L341.642 159.216C344.512 157.596 352.982 155.946 355.582 154.366C357.682 153.096 361.842 151.756 364.342 152.016C367.572 152.346 369.252 152.456 372.472 151.446C373.742 151.046 376.702 152.916 377.922 151.126L380.582 147.326C381.612 148.766 381.472 150.586 381.822 152.506C383.212 160.166 380.292 167.696 373.922 171.626L373.932 171.636Z" fill="#BDDAD1"/>
<path d="M384.572 240.086C383.682 240.186 382.922 241.096 382.962 241.856C383.112 244.266 377.682 250.196 374.062 252.826L365.822 258.796C359.722 257.846 352.492 261.926 347.962 261.626C345.102 261.436 342.982 261.646 340.112 261.666L331.902 261.706C330.852 261.706 330.562 262.446 330.622 263.066L328.902 263.916C328.992 258.446 328.262 252.966 326.562 247.836L333.622 248.646C336.172 248.976 338.002 248.726 340.332 248.696C342.332 248.676 343.862 249.006 346.102 248.696L354.372 247.526C357.132 247.136 358.512 246.006 360.562 245.236C364.182 243.876 365.952 242.296 368.402 239.436C370.392 237.116 371.522 235.156 372.822 232.276C374.232 229.146 376.162 226.766 374.852 222.686L372.062 213.996C375.962 216.126 377.732 220.266 379.962 224.006C381.722 226.966 382.602 229.366 383.002 232.636C383.322 235.256 384.572 237.556 384.572 240.096V240.086Z" fill="#C7D3D6"/>
<path d="M371.562 268.716C369.192 266.706 367.972 271.446 363.152 273.786C360.282 275.186 356.812 273.966 353.672 274.776C350.002 275.726 345.772 277.676 342.112 275.986C339.622 274.836 338.552 275.606 336.202 276.316C334.322 276.876 331.442 275.176 329.282 276.316C328.162 276.906 326.702 276.496 325.922 275.806C327.122 272.406 328.522 269.016 330.932 265.846C331.632 264.926 331.262 263.646 330.642 263.056C330.582 262.436 330.872 261.696 331.922 261.696L340.132 261.656C342.992 261.646 345.122 261.426 347.982 261.616C352.522 261.926 359.742 257.836 365.842 258.786L374.082 252.816C377.702 250.196 383.132 244.266 382.982 241.846C382.932 241.086 383.702 240.176 384.592 240.076C384.592 242.656 385.402 245.816 383.802 248.616C383.372 249.366 381.492 249.186 380.252 249.116C384.472 257.276 384.272 270.336 378.072 271.816C376.322 272.236 374.782 271.416 373.372 270.226L371.592 268.706L371.562 268.716Z" fill="#BDDAD1"/>
<path d="M312.722 300.136L309.852 318.796C309.122 323.286 305.722 326.806 301.282 327.036C301.232 324.216 301.772 321.176 301.022 318.186L299.592 312.536L297.452 307.306C286.752 304.256 287.312 300.206 286.602 299.716C285.702 299.096 284.412 299.796 283.332 300.096L275.022 293.256L266.952 284.126L266.152 273.896C266.672 273.876 267.422 274.116 267.832 274.756C274.102 284.756 287.032 293.436 298.532 296.436L312.712 300.126L312.722 300.136Z" fill="#CFB2D6"/>
<path d="M273.852 204.696C273.742 206.096 274.362 208.006 273.342 209.016L271.842 210.496C271.072 211.256 273.852 212.446 272.542 217.696L270.322 226.526C269.652 229.216 268.952 231.196 269.902 233.886C261.032 232.796 250.092 228.536 245.082 220.846C244.462 219.896 244.202 218.686 242.882 218.406C243.862 213.176 247.352 209.526 252.762 208.106C259.802 206.256 266.892 205.706 273.852 204.706V204.696Z" fill="#B1DACB"/>
<path d="M301.282 327.036C299.152 328.716 296.232 328.886 293.562 329.046C294.022 327.066 291.902 325.926 290.642 324.836C290.312 314.476 287.082 310.496 277.612 306.596C276.312 306.156 274.682 307.206 273.662 307.296C270.252 301.326 267.482 290.886 266.952 284.136L275.022 293.266L283.332 300.106C284.402 299.796 285.692 299.106 286.602 299.726C287.312 300.216 286.752 304.266 297.452 307.316L299.592 312.546L301.022 318.196C301.772 321.186 301.242 324.226 301.282 327.046V327.036Z" fill="#C7D3D6"/>
<path d="M269.912 233.876L279.672 235.076C286.882 235.956 295.312 235.196 302.492 233.996C309.672 232.796 316.182 231.396 322.902 228.486C324.472 227.806 326.012 227.256 327.552 227.356C312.292 238.466 289.602 243.236 270.172 239.936C262.512 238.636 254.922 236.616 248.822 231.966C244.322 228.526 241.962 223.366 242.892 218.406C244.212 218.686 244.472 219.896 245.092 220.846C250.102 228.546 261.042 232.806 269.912 233.886V233.876Z" fill="#9DC3B9"/>
<path d="M300.712 191.876C291.762 198.196 280.752 201.406 269.712 202.396C269.852 197.576 269.442 193.916 267.112 191.026C277.752 181.396 289.452 183.346 300.712 191.876Z" fill="#F7E6C9"/>
<path d="M293.572 329.046C283.862 330.326 268.842 329.646 270.692 320.656C271.412 317.166 273.842 314.826 276.652 312.526L273.672 307.296C274.682 307.206 276.322 306.156 277.622 306.596C287.092 310.496 290.322 314.476 290.652 324.836C291.912 325.926 294.022 327.066 293.572 329.046Z" fill="#B1DACB"/>
<path d="M289.652 200.696C290.002 202.196 289.942 203.246 289.672 204.946C286.602 204.856 286.242 207.446 285.072 208.996C283.152 211.536 282.122 213.176 281.262 216.466L278.772 225.976C278.112 228.516 275.962 229.686 279.672 235.076L269.912 233.876C268.962 231.186 269.652 229.206 270.332 226.516L272.552 217.686C273.872 212.436 271.082 211.246 271.852 210.486L273.352 209.006C274.372 207.996 273.752 206.086 273.862 204.686C279.212 203.916 284.612 202.576 289.662 200.676L289.652 200.696Z" fill="#BDDAD1"/>
<path d="M333.232 227.326C331.262 232.336 323.672 237.256 323.332 237.266C323.062 237.276 322.652 236.916 322.462 236.686L322.162 234.256L333.232 227.326Z" fill="#9DC3B9"/>
<path d="M350.932 45.7363C356.482 44.3663 361.872 47.0163 364.032 52.2363C362.502 52.1063 360.362 51.7863 359.222 53.3663L358.402 57.6063C358.172 58.8163 357.442 59.5563 358.162 60.4663L356.712 62.9263C354.932 64.7163 354.092 67.1563 354.442 70.1163C354.962 74.5063 358.262 78.4463 361.932 80.2063C361.932 80.4763 361.872 80.8663 362.022 81.2363C362.152 81.5763 362.712 81.6663 363.142 81.5663C363.362 81.5163 363.822 81.6163 364.052 81.3263C365.062 84.8263 373.782 81.9463 378.012 88.8863C378.442 89.5863 378.392 91.5463 379.802 90.8263C380.162 89.5163 381.052 87.3863 383.022 87.1763C386.852 86.7763 389.552 88.6863 391.972 91.2063C395.542 94.9263 396.722 99.9163 393.382 104.286L389.782 101.946C390.742 105.116 390.492 108.076 389.942 111.016C398.312 118.766 403.072 132.666 395.492 140.656C394.712 141.486 393.512 141.836 392.532 141.536C391.682 141.276 391.172 140.486 390.112 139.606C390.592 143.116 388.232 146.246 385.042 145.766L380.092 145.026C380.162 145.926 380.262 146.856 380.622 147.356L377.962 151.156C376.742 152.946 373.782 151.086 372.512 151.476C369.292 152.476 367.612 152.376 364.382 152.046C361.882 151.786 357.722 153.126 355.622 154.396C353.032 155.966 344.552 157.626 341.682 159.246L331.912 164.756C330.102 165.776 328.362 166.326 326.602 167.616C324.022 169.516 315.172 170.286 312.652 171.666L306.492 175.046C304.122 176.346 302.122 177.356 299.402 176.926C290.862 175.546 282.222 173.806 274.432 169.936C274.872 169.936 274.952 169.656 274.962 169.426C274.972 169.166 275.052 168.536 274.852 168.236C272.272 164.326 268.022 153.076 267.572 149.056C267.372 147.236 267.502 144.256 266.532 142.776C264.462 139.606 265.682 137.946 267.172 135.056C268.282 132.916 265.622 129.256 264.082 127.946C261.862 126.046 261.762 123.826 263.562 121.776L268.632 115.706C277.222 117.676 277.972 125.906 281.102 125.126C284.232 124.346 281.052 115.856 274.362 112.106L275.362 108.936L275.542 102.876C275.592 101.326 273.412 100.016 273.332 98.1263C271.532 98.6263 270.202 99.2463 268.432 98.8163L273.322 93.6963L275.592 93.2963C275.662 95.2463 281.622 94.5163 282.722 91.6263C282.802 91.4263 283.202 91.2463 283.422 91.2263C283.842 91.1963 284.382 91.0863 284.652 90.8563C285.652 89.9763 284.772 87.0463 285.772 86.6063C292.342 83.6763 297.582 86.4163 296.782 82.2963C299.302 82.9463 301.942 82.4463 304.552 80.7863C304.902 84.2463 306.712 86.1763 309.862 86.5863C313.422 87.0563 316.652 85.4163 319.292 82.9963C320.922 81.5063 323.102 81.1163 324.632 78.8663C318.402 76.5763 314.712 86.7763 308.432 82.7663C306.832 81.7463 306.712 79.3563 306.712 77.4663C304.082 76.4863 301.492 80.3763 298.112 79.4163C296.242 78.8863 294.592 75.7863 294.392 73.3763C296.312 72.6063 297.732 73.9863 298.902 74.9263C300.622 76.3163 301.652 73.4163 302.612 72.9063C304.402 71.9563 306.582 70.2363 307.952 69.3163C312.452 68.6763 315.512 66.7463 317.862 63.0363L322.222 59.1263C322.932 58.4863 324.322 58.4863 325.122 58.2563L329.342 50.8563C330.242 49.2663 331.632 47.6363 331.702 45.6163C331.832 42.2463 332.962 39.7263 334.352 36.7763C335.032 35.3363 334.122 32.8063 335.282 31.4363C342.022 33.3763 346.862 38.9263 348.182 46.3363C349.272 46.4363 350.152 45.9763 350.962 45.7763L350.932 45.7363ZM330.782 91.8163C328.492 91.6563 326.822 92.5863 326.002 93.9663C325.282 95.1663 324.802 97.9263 326.342 98.6963L340.352 105.676C341.212 106.106 342.782 105.846 343.352 105.486C346.382 103.566 340.812 92.5063 330.782 91.8163ZM340.002 133.206C341.072 134.556 342.142 135.036 343.442 134.306C347.142 132.236 340.732 121.926 329.412 121.146C318.092 120.366 312.122 128.716 315.312 130.936C315.822 131.286 317.042 131.256 317.822 130.676C324.672 125.546 334.462 126.206 339.992 133.206H340.002ZM289.992 144.806C282.202 142.236 281.612 135.546 279.502 136.876C279.172 137.086 278.842 137.786 279.092 138.416C283.432 149.466 298.722 151.656 309.212 144.526C310.152 143.886 310.082 142.566 309.592 141.976C307.372 139.296 301.262 148.526 290.002 144.806H289.992ZM351.582 145.356C350.672 145.006 349.512 143.946 349.292 143.006C348.592 140.096 343.282 139.606 341.802 141.206C341.322 141.116 340.752 140.956 340.222 141.056C340.442 140.506 340.152 139.946 339.742 139.986L338.072 140.136C333.392 140.556 329.702 142.996 329.372 145.956C328.692 152.086 336.092 153.516 341.452 155.226C344.072 156.056 346.432 154.646 348.902 153.576C353.382 151.636 354.002 147.756 353.192 146.306C352.822 145.636 352.192 145.606 351.572 145.366L351.582 145.356Z" fill="#B1DACB"/>
<path d="M335.252 31.3963C334.092 32.7663 335.002 35.2963 334.322 36.7363C332.942 39.6863 331.802 42.2063 331.672 45.5763C331.592 47.6063 330.212 49.2363 329.312 50.8163L325.092 58.2163C324.292 58.4463 322.902 58.4463 322.192 59.0863L317.832 62.9963C315.482 66.7163 312.422 68.6363 307.922 69.2763C306.552 70.1963 304.372 71.9163 302.582 72.8663C301.622 73.3763 300.582 76.2763 298.872 74.8863C297.702 73.9463 296.282 72.5663 294.362 73.3363C292.742 73.9863 292.752 76.4163 293.312 78.3063C293.752 79.8163 294.872 81.7663 296.752 82.2563C297.552 86.3763 292.312 83.6363 285.742 86.5663C284.752 87.0063 285.622 89.9463 284.622 90.8163C284.352 91.0463 283.812 91.1563 283.392 91.1863C284.442 88.3063 282.762 85.6163 279.562 84.6663C273.972 82.9963 267.912 85.4863 264.892 90.6063C264.302 91.6063 264.712 93.2363 265.442 93.9663C265.972 94.4963 267.052 94.8563 268.282 94.6163L273.292 93.6563L268.402 98.7763C270.172 99.2063 271.502 98.5863 273.302 98.0863C273.372 99.9763 275.552 101.286 275.512 102.836L275.332 108.896L274.332 112.066C267.802 108.406 259.052 111.046 259.042 115.026C259.042 115.876 260.232 117.576 261.322 116.996C263.892 115.636 265.872 115.036 268.602 115.666L263.532 121.736C261.732 123.786 261.822 126.016 264.052 127.906C265.592 129.216 268.252 132.876 267.142 135.016C265.652 137.906 264.432 139.566 266.502 142.736C267.462 144.216 267.332 147.196 267.542 149.016C267.992 153.036 272.242 164.296 274.822 168.196C275.022 168.496 274.942 169.126 274.932 169.386C274.932 169.616 274.852 169.896 274.402 169.896L270.602 168.396C265.442 166.356 261.232 162.966 256.812 159.286C253.002 156.106 250.212 152.266 247.622 147.946C239.222 133.936 241.602 121.246 252.302 109.356C254.022 107.446 254.712 105.856 253.862 103.296C248.242 86.2563 253.472 69.4963 270.032 62.3763C272.772 61.1963 275.602 59.9963 278.402 59.7663C279.062 56.8563 279.092 53.3463 280.422 50.9463C281.612 48.8163 283.042 46.2663 284.942 44.6763C288.532 41.6863 293.762 40.0963 298.672 40.4663C301.812 40.6963 303.852 42.7463 306.642 44.6563C312.282 33.6663 323.762 28.0863 335.252 31.3963ZM261.972 136.766C264.132 135.966 265.232 134.586 265.352 132.956C265.732 127.886 256.202 124.666 249.552 126.916C248.222 127.366 247.372 128.686 247.052 129.496C245.432 133.536 254.492 139.546 261.972 136.766Z" fill="#BDDAD1"/>
<path d="M284.952 44.6863C283.052 46.2663 281.612 48.8163 280.432 50.9563C280.112 50.4663 279.812 50.4163 279.192 50.7063C276.332 51.7563 271.942 52.5563 269.302 50.3463C261.712 43.9963 261.862 28.5563 265.742 25.5863C267.762 24.0363 270.232 31.1163 275.222 34.5863L277.402 28.9663C277.692 28.2263 278.612 28.0763 279.072 28.4663C279.372 28.7163 280.302 29.0663 280.472 29.6963C281.182 34.9963 282.292 39.9263 284.952 44.6863Z" fill="#9DC3B9"/>
<path d="M356.702 62.9263L358.152 60.4663L364.692 54.0963C367.612 53.0263 369.342 50.0263 371.272 47.4263C374.012 43.7363 376.592 40.1963 378.022 35.6963C379.502 31.0363 380.552 26.1163 383.822 21.9763C389.292 24.1463 389.022 35.0463 386.232 40.6763L382.222 48.7663C381.702 49.8063 381.732 50.9963 382.402 51.8763C382.772 52.3663 383.632 53.0463 384.602 53.1263L390.942 53.6463C391.452 56.0163 392.612 57.3563 394.362 59.1663C385.412 63.6363 378.252 59.3263 374.452 65.8763C371.782 70.4763 367.002 71.6463 362.182 69.8463C359.002 68.6563 356.492 66.4363 356.702 62.9063V62.9263Z" fill="#8EA7A5"/>
<path d="M364.032 52.2363C364.242 52.7363 364.922 53.2163 364.692 54.0963L358.152 60.4663C357.432 59.5563 358.152 58.8163 358.392 57.6063L359.212 53.3663C360.352 51.7863 362.492 52.1063 364.022 52.2363H364.032Z" fill="#9DC3B9"/>
<path d="M397.382 57.1962C395.982 56.7062 394.812 54.1362 395.522 52.3162C395.992 51.1062 399.572 50.4162 400.342 51.4662C401.792 53.4262 399.742 55.6462 397.382 57.1962Z" fill="#8EA7A5"/>
<path d="M363.132 81.5663C362.702 81.6663 362.152 81.5663 362.012 81.2363C361.862 80.8663 361.922 80.4763 361.922 80.2063C362.212 80.3463 362.902 80.2463 363.102 80.7263C363.202 80.9763 363.202 81.2963 363.132 81.5663Z" fill="#9DC3B9"/>
<path d="M340.222 141.046C340.742 140.946 341.312 141.106 341.802 141.196C344.342 141.656 346.802 142.006 349.292 142.996C349.522 143.936 350.672 145.006 351.582 145.346C351.772 146.566 352.282 148.446 351.562 149.706C347.752 156.346 330.082 153.566 330.542 146.446C330.832 141.986 336.462 141.746 340.222 141.036V141.046Z" fill="#CFB2D6"/>
<path d="M340.002 133.206C334.472 126.206 324.682 125.556 317.832 130.676C317.052 131.256 315.832 131.296 315.322 130.936C312.132 128.716 318.492 120.396 329.422 121.146C340.352 121.896 347.152 132.236 343.452 134.306C342.152 135.036 341.082 134.556 340.012 133.206H340.002Z" fill="#779493"/>
<path d="M330.782 91.8162C340.812 92.5062 346.382 103.566 343.352 105.486C342.782 105.846 341.212 106.106 340.352 105.676L326.342 98.6962C324.802 97.9262 325.282 95.1662 326.002 93.9662C326.822 92.5862 328.492 91.6562 330.782 91.8162Z" fill="#8EA7A5"/>
<path d="M283.402 91.1962C283.182 91.2062 282.772 91.3962 282.702 91.5962C280.372 92.4562 277.972 92.8462 275.572 93.2662L273.302 93.6662L268.292 94.6262C267.062 94.8662 265.982 94.5062 265.452 93.9762C264.722 93.2462 264.312 91.6162 264.902 90.6162C267.922 85.4962 273.982 83.0062 279.572 84.6762C282.772 85.6262 284.452 88.3162 283.402 91.1962Z" fill="#8EA7A5"/>
<path d="M274.332 112.076C281.022 115.826 284.152 124.326 281.072 125.096C277.992 125.866 277.182 117.656 268.602 115.676C265.872 115.046 263.892 115.636 261.322 117.006C260.242 117.576 259.042 115.876 259.042 115.036C259.042 111.056 267.792 108.416 274.332 112.076Z" fill="#779493"/>
<path d="M289.992 144.806C301.262 148.526 307.362 139.296 309.582 141.976C310.072 142.566 310.142 143.886 309.202 144.526C298.712 151.656 283.432 149.476 279.082 138.416C278.832 137.786 279.162 137.086 279.492 136.876C281.602 135.556 282.192 142.236 289.982 144.806H289.992Z" fill="#779493"/>
<path d="M296.752 82.2663C294.872 81.7863 293.752 79.8263 293.312 78.3163C292.752 76.4263 292.742 73.9963 294.362 73.3463C294.562 75.7563 296.212 78.8563 298.082 79.3863C301.472 80.3463 304.062 76.4563 306.682 77.4363C306.682 79.3263 306.802 81.7163 308.402 82.7363C314.682 86.7463 318.372 76.5463 324.602 78.8363C323.072 81.0863 320.892 81.4663 319.262 82.9663C316.622 85.3963 313.392 87.0263 309.832 86.5563C306.692 86.1363 304.872 84.2163 304.522 80.7563C301.912 82.4063 299.272 82.9163 296.752 82.2663Z" fill="#9DC3B9"/>
<path d="M340.222 141.046C336.462 141.746 330.822 141.996 330.542 146.456C330.082 153.576 347.762 156.356 351.562 149.716C352.282 148.456 351.772 146.566 351.582 145.356C352.202 145.596 352.822 145.616 353.202 146.296C354.002 147.736 353.382 151.616 348.912 153.566C346.432 154.646 344.072 156.056 341.462 155.216C336.102 153.506 328.702 152.076 329.382 145.946C329.712 142.996 333.402 140.556 338.082 140.126L339.752 139.976C340.162 139.936 340.452 140.496 340.232 141.046H340.222Z" fill="#BDDAD1"/>
<path d="M349.292 142.996C346.802 142.006 344.342 141.656 341.802 141.196C343.282 139.596 348.602 140.086 349.292 142.996Z" fill="#BDDAD1"/>
<path d="M282.702 91.5963C281.592 94.4863 275.632 95.2063 275.572 93.2663C277.972 92.8463 280.382 92.4663 282.702 91.5963Z" fill="#BDDAD1"/>
<path d="M261.972 136.766C254.492 139.546 245.432 133.536 247.052 129.496C247.382 128.676 248.232 127.366 249.552 126.916C256.192 124.666 265.732 127.886 265.352 132.956C265.232 134.586 264.132 135.966 261.972 136.766Z" fill="#CFB2D6"/>
<path d="M351.102 43.4163C351.182 44.1663 351.122 44.9263 350.922 45.7363C350.112 45.9363 349.232 46.4063 348.142 46.2963C346.822 38.8863 341.982 33.3263 335.242 31.3963C323.752 28.0863 312.272 33.6763 306.632 44.6563C303.842 42.7463 301.802 40.7063 298.662 40.4663C293.762 40.1063 288.532 41.6863 284.932 44.6763C282.282 39.9163 281.172 34.9863 280.452 29.6863C280.282 29.0563 279.352 28.7063 279.052 28.4563C278.582 28.0663 277.662 28.2063 277.382 28.9563L275.202 34.5763C270.212 31.1063 267.742 24.0263 265.722 25.5763C261.842 28.5463 261.692 43.9863 269.282 50.3363C271.922 52.5463 276.312 51.7463 279.172 50.6963C279.792 50.4163 280.092 50.4563 280.412 50.9463C279.082 53.3463 279.052 56.8563 278.392 59.7663C275.592 59.9963 272.762 61.2063 270.022 62.3763C253.462 69.4963 248.232 86.2563 253.852 103.296C254.692 105.856 254.012 107.446 252.292 109.356C241.592 121.246 239.202 133.936 247.612 147.946C250.202 152.266 252.992 156.106 256.802 159.286C261.222 162.976 265.442 166.366 270.592 168.396C270.632 168.856 270.042 169.256 269.302 169.146L262.012 168.016L243.212 162.006C242.272 161.706 241.582 160.916 240.972 160.126L249.182 154.776C245.292 149.216 241.892 143.826 240.712 137.106C237.712 120.016 248.502 111.816 248.732 108.816C248.742 108.636 249.052 108.296 249.222 108.276C250.332 108.226 252.152 106.936 251.782 105.476C248.572 92.8963 247.582 82.4463 255.082 71.1163C251.582 58.0663 239.772 49.5963 226.312 50.5863L225.532 47.7563C224.842 40.2963 219.852 34.1063 212.472 32.1963C206.772 30.7163 201.572 31.8963 197.782 36.9863L195.422 34.1463C194.882 33.4963 194.562 32.9063 193.922 32.2463L192.682 30.9563C185.892 23.8863 174.862 21.7663 166.212 26.2563C160.392 29.2763 156.182 34.5563 155.782 41.5763C148.512 39.5363 140.862 42.5163 140.922 48.2463C140.342 48.4763 139.772 48.9663 139.602 49.4163C139.072 50.8263 143.112 54.3463 145.902 55.5263C146.802 55.9063 147.392 57.7663 148.092 58.3763C147.652 61.5063 146.142 64.1463 142.902 65.9863C140.102 67.5763 134.152 67.2963 131.982 64.4663C129.242 60.8863 126.512 58.2963 121.582 58.9663C115.652 59.7763 110.022 58.2563 105.052 54.6463C103.802 53.7463 102.732 52.5463 101.202 52.6863C100.772 50.9063 100.672 49.1863 102.082 47.9463C108.282 50.3463 118.762 52.8063 121.072 49.3463C122.742 46.8463 118.312 40.9263 116.312 36.4263C113.982 31.2063 113.452 24.6763 116.992 19.9863C118.142 18.4663 121.202 20.1763 122.432 20.4363L126.882 30.9263C129.482 37.0563 132.662 41.9963 137.882 47.2263C140.412 40.2463 147.382 38.3663 153.202 38.4663C156.112 30.6763 161.922 23.4063 171.162 21.9663C181.632 20.3463 191.522 24.1763 197.752 33.2263C201.562 29.7063 206.132 29.1163 211.182 29.5063C211.352 19.3363 205.102 8.2663 208.472 2.1563C210.212 -1.0037 213.882 -0.1737 216.642 1.3763C223.932 5.4563 228.322 12.5263 230.662 20.8663L235.942 14.3663C236.962 13.1163 238.472 12.2963 240.012 12.7663C245.272 14.3563 247.352 31.4463 239.502 40.3763C237.492 42.6563 234.572 46.6863 237.442 49.4663C246.772 52.5563 253.632 59.0163 256.812 68.9163C260.872 64.2363 264.702 61.8563 269.772 60.2263C269.732 57.5263 269.622 55.3763 268.992 53.1863C257.882 45.1963 259.332 23.4763 265.862 22.5663C268.622 22.1863 271.552 27.4163 274.392 30.9363C277.132 21.6763 283.102 10.9263 291.462 8.6863C293.852 8.0463 296.252 10.0163 296.812 12.4263C298.462 19.6163 293.482 28.7263 294.452 38.0163C298.962 37.4963 302.442 38.4063 306.132 40.9663C312.672 29.8963 326.342 24.9363 338.182 29.8463C343.642 32.1163 347.602 36.1963 349.322 41.6863C349.642 42.7163 350.282 43.2563 351.082 43.4063L351.102 43.4163ZM228.642 41.2263C232.552 44.3863 238.372 39.8163 239.872 36.2963C245.432 23.2663 240.882 13.9263 238.952 15.3163C234.352 18.6163 231.982 24.6163 230.152 24.3963C229.442 24.3063 229.632 22.5963 228.222 22.4263C225.822 22.1263 225.412 36.2863 228.642 41.2263ZM258.562 164.006C255.632 161.746 253.472 159.356 250.862 156.746C248.942 157.826 247.492 158.526 245.912 160.326C250.352 161.626 253.892 163.606 258.562 164.006Z" fill="#8EA7A5"/>
<path d="M148.102 58.3963C149.852 59.9163 150.762 62.2563 150.522 65.0563C150.052 70.6463 146.252 75.0264 141.482 77.2664C134.542 79.5764 129.822 74.6563 124.102 68.9963C124.102 70.0663 124.332 72.1764 123.182 72.7564C121.252 73.7364 118.942 73.5163 117.132 73.9663L116.542 72.1563C118.212 71.9163 120.472 71.6864 122.292 69.5964C114.022 68.3464 107.002 64.6663 102.822 57.7163C101.842 56.0863 101.572 54.1964 101.212 52.6964C102.742 52.5564 103.812 53.7463 105.062 54.6563C110.032 58.2663 115.662 59.7864 121.592 58.9764C126.512 58.3064 129.242 60.8964 131.992 64.4764C134.172 67.3164 140.112 67.5963 142.912 65.9963C146.152 64.1563 147.652 61.5264 148.102 58.3864V58.3963Z" fill="#779493"/>
<path d="M122.442 20.4563C121.212 20.1863 118.152 18.4863 117.002 20.0063C113.462 24.6963 114.002 31.2363 116.322 36.4463C118.322 40.9363 122.752 46.8563 121.082 49.3663C118.772 52.8263 108.292 50.3663 102.092 47.9663C105.002 45.4063 108.642 48.8863 113.972 48.3863C110.432 38.9263 109.752 29.0963 113.812 20.1163C114.742 18.0463 116.822 16.6663 118.672 16.8163C120.832 16.9863 121.732 18.7963 122.432 20.4563H122.442Z" fill="#779493"/>
<path d="M160.732 182.566C161.242 182.366 161.892 183.756 162.462 183.956C168.202 186.016 174.252 186.166 180.242 185.496C181.832 186.346 183.972 186.916 185.822 187.486C187.562 188.016 189.092 189.486 191.082 189.226C193.702 188.886 195.312 191.196 197.072 191.956C199.792 193.146 201.122 193.916 202.962 195.976C205.842 199.206 208.922 202.226 211.372 206.086C212.922 208.526 212.802 211.296 213.352 214.356C213.522 215.296 214.622 216.156 214.192 217.246C212.692 221.076 210.732 218.746 210.412 221.196C206.942 221.436 203.472 221.446 199.642 221.026L180.992 219.006C177.812 218.666 176.612 217.596 176.072 218.696C175.532 219.796 178.262 221.786 180.842 222.746C183.232 226.976 189.122 229.396 194.042 231.056L193.902 231.756C191.362 238.126 190.082 244.846 188.832 251.556C185.282 252.126 180.282 252.946 178.312 255.236L168.452 256.686C163.222 257.456 159.292 255.586 154.762 253.826C150.232 252.066 147.462 248.836 143.702 246.346C138.302 242.756 134.322 237.696 133.352 230.986C133.232 230.126 132.542 229.616 131.802 229.606L132.822 227.936C133.052 227.556 131.842 226.706 131.972 226.226C133.882 219.656 137.282 214.236 142.332 209.366C136.992 205.336 138.972 199.316 143.462 194.136C140.312 191.946 143.782 187.766 147.042 183.406C150.482 184.786 153.342 183.246 156.152 183.456C157.452 183.556 158.762 184.016 160.012 182.486C160.182 182.626 160.482 182.636 160.712 182.546L160.732 182.566Z" fill="#DCC9DE"/>
<path d="M141.482 77.2763C140.572 79.2063 138.242 80.1963 135.882 80.4963C131.412 81.4863 128.122 84.3763 125.762 88.2063C124.882 85.5363 122.942 84.0764 120.332 84.8264C115.162 86.3264 110.972 91.3663 110.762 96.8463C110.682 98.8663 111.962 100.536 112.622 102.246L116.052 99.3663C115.832 102.726 115.342 105.326 116.462 108.266C109.752 114.636 106.582 123.626 109.042 132.626C109.812 135.456 112.392 137.406 114.572 139.036C115.612 138.396 116.022 137.896 117.152 137.646C117.592 140.236 119.252 141.806 120.652 142.456C123.092 143.586 124.942 142.756 127.512 142.016C126.372 146.456 125.902 150.286 126.002 154.426C126.072 157.386 127.512 159.366 128.472 161.586C130.602 166.496 135.412 170.446 141.412 169.686C143.202 169.456 144.592 167.746 146.192 166.376C148.112 169.136 149.542 172.216 152.522 174.076C158.332 177.696 162.992 174.656 166.902 173.536C165.002 179.416 160.452 180.586 156.132 183.456C153.322 183.246 150.462 184.786 147.022 183.406C143.762 187.766 140.292 191.946 143.442 194.136C138.952 199.306 136.972 205.336 142.312 209.366C137.262 214.236 133.862 219.656 131.952 226.226C131.812 226.696 133.032 227.546 132.802 227.936L131.782 229.606C129.502 235.996 129.202 245.846 131.622 246.286C132.532 246.456 133.292 245.706 134.542 245.126C132.762 248.806 132.102 252.066 131.762 255.726C131.422 259.386 131.792 264.156 134.702 267.386C137.132 270.086 140.952 268.546 144.102 266.476L142.542 279.106C141.752 285.536 147.042 297.556 155.392 300.036C150.572 313.026 150.652 325.436 160.762 334.116L153.632 332.196C149.522 331.086 146.872 328.416 145.222 324.406C142.102 316.836 140.482 308.956 138.762 300.866L134.622 281.416L134.142 280.326C134.002 280.016 133.452 279.846 132.572 280.086L132.662 284.246C122.352 280.116 120.482 269.246 121.122 257.906C121.192 256.726 120.642 256.016 119.832 255.816C116.002 250.296 113.632 243.896 114.892 236.886C115.332 227.486 119.822 219.516 126.972 213.396C125.012 210.976 125.462 208.296 125.052 206.036C123.942 199.896 126.282 195.286 128.552 190.326C134.132 187.406 138.562 182.406 139.992 175.906C129.712 176.386 120.592 167.836 119.542 156.806C111.222 158.456 103.072 154.676 98.5122 147.536C92.5022 138.106 93.2822 126.436 100.192 117.606L106.492 110.936L101.642 104.126C97.5722 94.9063 100.972 84.3163 108.822 78.3463C111.532 76.2863 114.002 74.7363 117.102 73.9563C118.902 73.5063 121.222 73.7263 123.152 72.7463C124.302 72.1663 124.062 70.0563 124.072 68.9863C129.792 74.6463 134.512 79.5663 141.452 77.2563L141.482 77.2763Z" fill="#9DC3B9"/>
<path d="M193.682 284.706C193.762 286.566 194.242 288.306 194.022 290.556C193.002 300.956 189.202 310.176 182.612 318.726C185.692 321.316 188.402 323.836 188.962 327.666C190.222 336.376 171.272 336.956 160.802 334.126C150.702 325.446 150.612 313.026 155.432 300.046C147.082 297.566 141.792 285.546 142.582 279.116C143.642 279.206 144.722 277.896 145.612 277.226C153.732 277.676 160.292 282.766 169.282 281.266L176.482 280.066C183.072 278.966 184.392 277.036 184.652 277.016C186.132 276.876 186.902 277.766 187.932 278.586C191.802 281.696 188.302 285.276 193.682 284.716V284.706Z" fill="#B1DACB"/>
<path d="M213.182 183.876L213.202 185.006C205.232 183.586 197.482 179.116 195.862 179.736C195.582 179.846 195.342 180.206 195.272 180.876L187.412 177.496C185.302 176.586 183.222 174.786 180.712 175.716C177.482 176.906 174.312 176.296 171.782 174.066C170.132 172.606 168.482 173.106 166.942 173.546C163.032 174.666 158.372 177.706 152.562 174.086C149.582 172.226 148.152 169.146 146.232 166.386C144.622 167.756 143.232 169.476 141.452 169.696C135.442 170.456 130.632 166.506 128.512 161.596C130.752 158.736 136.352 157.876 140.842 156.956C142.632 156.586 143.462 156.266 145.092 157.266C147.522 158.756 151.062 156.886 153.372 157.186L158.082 158.466C160.552 159.136 162.872 160.866 165.122 162.036C167.532 159.176 172.042 158.626 174.522 161.686C178.002 161.966 180.452 164.106 183.342 165.686C185.162 166.686 187.422 166.626 189.132 168.296L192.952 168.756C194.212 170.806 196.042 171.746 198.292 172.456L199.972 177.596C201.732 179.776 204.882 178.886 206.832 179.816C209.232 180.956 210.862 183.076 213.192 183.866L213.182 183.876Z" fill="#BDDAD1"/>
<path d="M195.262 180.876C200.752 183.236 206.462 186.136 212.442 187.396C211.812 190.936 213.362 193.546 216.372 195.236C219.072 196.756 219.132 200.346 220.432 202.646C222.002 205.406 223.362 207.076 223.842 210.346C224.142 212.436 225.662 215.046 224.062 217.276C223.512 218.036 222.512 218.736 222.532 219.836C218.482 220.686 214.532 220.916 210.412 221.206C210.732 218.746 212.692 221.086 214.192 217.256C214.612 216.176 213.512 215.316 213.352 214.366C212.802 211.306 212.922 208.536 211.372 206.096C208.922 202.236 205.842 199.216 202.962 195.986C201.122 193.916 199.802 193.146 197.072 191.966C195.322 191.206 193.712 188.896 191.082 189.236C189.092 189.496 187.562 188.026 185.822 187.496C183.972 186.926 181.832 186.356 180.242 185.506C174.262 186.176 168.202 186.016 162.462 183.966C161.892 183.766 161.242 182.376 160.732 182.576C160.842 181.886 159.932 181.766 160.032 182.516C158.772 184.046 157.472 183.576 156.172 183.486C160.492 180.616 165.032 179.446 166.942 173.566C168.482 173.126 170.132 172.626 171.782 174.086C174.322 176.326 177.492 176.926 180.712 175.736C183.222 174.816 185.302 176.616 187.412 177.516L195.272 180.896L195.262 180.876Z" fill="#C7D3D6"/>
<path d="M188.832 251.566C188.182 255.036 188.402 258.496 188.492 262.176C188.002 262.006 187.422 261.996 186.922 262.236C186.422 262.476 186.332 263.076 186.192 263.446C181.312 267.526 169.212 270.986 163.952 269.216L158.262 267.296L152.312 265.026L144.432 261.406C141.992 260.286 140.512 257.246 137.422 256.906C135.492 256.686 133.522 256.596 131.792 255.736C132.132 252.076 132.792 248.816 134.572 245.136C133.322 245.706 132.562 246.456 131.652 246.296C129.232 245.856 129.532 236.006 131.812 229.616C132.542 229.616 133.232 230.146 133.362 230.996C134.332 237.696 138.312 242.766 143.712 246.356C147.462 248.846 150.382 252.136 154.772 253.836C159.162 255.536 163.232 257.466 168.462 256.696L178.322 255.246C180.292 252.956 185.292 252.136 188.842 251.566H188.832Z" fill="#C7D3D6"/>
<path d="M186.182 263.446C190.512 269.926 193.362 277.126 193.672 284.706C188.292 285.266 191.792 281.686 187.922 278.576C186.902 277.756 186.122 276.866 184.642 277.006C184.372 277.036 183.052 278.956 176.472 280.056L169.272 281.256C160.282 282.756 153.722 277.666 145.602 277.216C144.722 277.886 143.642 279.196 142.572 279.106L144.132 266.476C140.982 268.546 137.162 270.096 134.732 267.386C131.832 264.156 131.442 259.506 131.792 255.726C133.522 256.586 135.502 256.686 137.422 256.896C140.512 257.246 141.992 260.276 144.432 261.396L152.312 265.016L158.262 267.286L163.952 269.206C169.202 270.986 181.312 267.516 186.192 263.436L186.182 263.446ZM144.372 265.636L144.052 265.956L144.372 266.276L144.692 265.956L144.372 265.636Z" fill="#BDDAD1"/>
<path d="M265.042 193.886C264.042 197.376 263.132 200.466 261.572 203.496L248.952 206.396C244.372 207.446 241.542 211.796 240.092 215.966C237.552 215.966 235.162 217.166 232.802 217.656C232.262 215.156 233.302 213.086 233.922 210.536C234.852 206.676 233.482 202.166 231.072 199.076C229.692 197.316 227.222 195.706 228.062 193.086C228.442 191.906 229.522 190.686 228.962 189.086L246.132 187.886C254.722 187.286 260.652 187.506 265.052 193.876L265.042 193.886Z" fill="#B1DACB"/>
<path d="M250.742 280.696C249.372 281.086 248.682 282.526 247.692 283.616L240.092 292.026C235.102 297.546 228.852 301.406 221.602 303.516C221.402 305.606 220.502 306.876 218.932 307.906C219.402 308.476 219.742 308.806 220.042 309.566C217.072 310.686 215.992 313.076 216.282 316.166C216.492 318.416 215.482 321.226 216.932 323.316C217.562 324.226 219.562 324.806 218.762 326.496C214.822 325.836 209.762 324.186 208.812 319.736L205.662 304.916C205.162 302.566 204.512 300.426 204.752 298.266C217.392 296.486 229.742 291.856 239.652 283.396C243.732 279.916 246.902 276.136 249.972 271.946C250.182 271.656 250.702 271.536 250.922 271.466L250.732 280.716L250.742 280.696Z" fill="#CFB2D6"/>
<path d="M250.742 280.696C250.582 288.536 248.782 296.306 245.052 303.256C242.492 303.816 239.092 305.466 237.662 308.056L230.552 320.906C229.652 322.536 229.502 324.456 227.522 325.566C226.842 325.946 226.492 327.116 226.462 327.766L218.762 326.486C219.552 324.806 217.562 324.216 216.932 323.306C215.482 321.216 216.492 318.406 216.282 316.156C215.992 313.066 217.072 310.686 220.042 309.556C219.732 308.796 219.392 308.466 218.932 307.896C220.502 306.856 221.402 305.586 221.602 303.506C228.862 301.396 235.102 297.546 240.092 292.016L247.692 283.606C248.682 282.516 249.362 281.076 250.742 280.686V280.696Z" fill="#C7D3D6"/>
<path d="M228.962 189.096C229.522 190.696 228.442 191.926 228.062 193.096C227.222 195.716 229.692 197.326 231.072 199.086C233.482 202.166 234.852 206.676 233.922 210.546C233.302 213.106 232.262 215.166 232.802 217.666L222.542 219.836C222.522 218.736 223.532 218.036 224.072 217.276C225.672 215.046 224.152 212.436 223.852 210.346C223.372 207.076 222.012 205.406 220.442 202.646C219.132 200.356 219.072 196.756 216.382 195.236C213.372 193.546 211.822 190.936 212.452 187.396C217.802 188.526 223.542 189.466 228.972 189.086L228.962 189.096Z" fill="#BDDAD1"/>
<path d="M240.092 215.966L239.242 222.266C222.682 228.756 198.812 227.496 182.552 220.776C181.622 220.396 181.042 219.906 181.002 219.006L199.652 221.026C203.472 221.436 206.942 221.436 210.422 221.196C214.552 220.906 218.502 220.676 222.542 219.826L232.802 217.656C235.162 217.156 237.552 215.966 240.092 215.966Z" fill="#9DC3B9"/>
<path d="M245.062 303.256L240.832 311.156C244.092 313.226 246.442 315.636 247.092 319.306C247.632 322.396 246.322 324.996 243.362 326.056C237.852 328.026 231.982 328.696 226.472 327.776C226.502 327.126 226.862 325.956 227.532 325.576C229.512 324.466 229.652 322.546 230.562 320.916L237.672 308.066C239.102 305.476 242.502 303.826 245.062 303.266V303.256Z" fill="#BDDAD1"/>
<path d="M245.722 180.776C245.472 182.536 247.082 183.406 247.582 185.146L231.602 186.266C225.282 186.706 219.102 186.056 213.202 185.006L213.182 183.876C220.762 176.326 234.162 173.526 242.702 179.826C243.632 180.516 244.742 180.846 245.722 180.776Z" fill="#F7E6C9"/>
<path d="M267.512 181.256L265.722 185.816C264.702 185.876 263.682 186.196 262.982 187.166C258.232 184.856 252.732 184.786 247.592 185.146C247.092 183.416 245.482 182.536 245.732 180.776C245.762 180.536 245.732 180.256 245.682 180.006C246.912 179.396 245.692 177.576 245.802 176.766C248.052 171.796 254.642 170.426 257.922 172.196C260.952 173.836 263.652 175.816 266.012 178.146C266.692 178.816 266.572 180.706 267.512 181.256Z" fill="#CFB2D6"/>
<path d="M195.272 227.566L194.032 231.066C189.112 229.406 183.232 226.986 180.832 222.756C185.582 224.546 190.192 226.986 195.262 227.576L195.272 227.566Z" fill="#9DC3B9"/>
<path d="M261.582 203.496C263.142 200.466 264.052 197.376 265.052 193.886C266.742 196.326 267.452 199.326 266.392 202.736L261.582 203.496Z" fill="#9DC3B9"/>
<path d="M265.712 185.816C265.482 186.406 265.402 187.416 264.632 187.956C264.062 187.976 263.442 187.396 262.972 187.166C263.672 186.196 264.692 185.876 265.712 185.816Z" fill="#9DC3B9"/>
<path d="M166.222 26.2762C167.902 28.8362 169.912 31.4362 169.912 34.7162C169.912 37.2162 169.172 40.8763 171.322 42.6963C173.792 44.7863 174.592 48.0063 176.812 50.1063C178.552 51.7563 180.302 53.4363 180.362 56.0063C184.082 55.8163 186.402 56.9562 188.082 60.0562C188.972 61.6862 192.032 62.1062 193.672 62.5562L195.172 65.1762C200.052 64.6962 205.102 67.2863 204.792 71.3163L198.992 69.5363C198.682 71.3463 198.892 73.6363 197.492 75.0463C195.052 77.5063 190.902 76.5563 188.412 74.3163C186.222 72.3363 183.642 70.9163 180.662 72.6063C186.832 76.9363 192.972 81.8762 198.002 78.4962C199.532 77.4662 200.542 75.7563 200.992 72.9163C204.712 75.3963 207.922 74.4262 211.182 72.8962C212.442 72.3062 214.072 72.6663 215.202 70.7263C215.912 69.4963 219.022 68.4862 220.312 69.1162C221.302 69.5962 222.022 70.3262 222.862 70.0862C223.432 69.9162 224.172 68.7763 224.772 68.1063C229.072 70.0663 233.962 67.1763 234.002 71.0463C234.032 73.4563 230.482 72.5462 230.032 74.6162C227.872 75.2362 225.282 75.2163 223.472 77.4163C222.782 78.2563 222.552 80.6363 223.402 81.5663C224.682 82.9863 226.992 83.0563 228.812 83.3263C229.002 84.4263 229.602 85.5263 230.422 85.6663L233.572 86.2162L232.682 90.5562C238.592 96.3362 234.982 98.7062 234.402 104.366C230.362 106.836 226.932 111.516 227.242 116.646C227.302 117.626 229.542 117.616 230.102 116.956L231.372 115.446C231.782 114.966 232.172 114.776 232.272 114.066C232.382 113.296 233.022 112.746 233.522 112.166C234.242 112.356 234.892 112.936 234.762 113.366L234.112 115.536C234.462 119.146 233.942 121.866 231.742 124.656L230.982 129.656C229.952 129.356 228.902 129.656 228.322 130.706C225.492 135.886 220.252 138.856 214.302 138.976C206.072 139.146 201.202 132.696 199.742 135.786C199.362 136.596 199.612 137.746 200.572 138.296C210.442 143.896 222.702 143.336 229.382 134.356C230.442 138.896 227.462 146.706 227.382 150.116L227.152 160.196C227.102 162.446 227.192 164.356 226.492 166.276C222.052 168.156 217.512 169.186 212.172 170.746C220.142 173.236 228.802 173.306 236.642 169.706C237.612 169.256 239.752 167.106 240.622 168.216C242.642 172.246 243.462 176.596 245.692 180.016C245.732 180.266 245.772 180.546 245.742 180.786C244.752 180.856 243.652 180.526 242.722 179.836C234.192 173.536 220.782 176.336 213.202 183.886C210.872 183.096 209.242 180.986 206.842 179.836C204.882 178.906 201.732 179.786 199.982 177.616L198.302 172.476C196.052 171.766 194.222 170.826 192.962 168.776L189.142 168.316C187.432 166.646 185.172 166.706 183.352 165.706C180.462 164.126 178.012 161.986 174.532 161.706C172.052 158.646 167.542 159.196 165.132 162.056C162.882 160.886 160.562 159.156 158.092 158.486L153.382 157.206C151.072 156.906 147.532 158.776 145.102 157.286C143.482 156.286 142.642 156.606 140.852 156.976C136.362 157.896 130.762 158.756 128.522 161.616C127.562 159.406 126.122 157.416 126.052 154.456C125.952 150.326 126.422 146.486 127.562 142.046C124.982 142.786 123.142 143.616 120.702 142.486C119.302 141.836 117.632 140.276 117.202 137.676C116.072 137.926 115.662 138.426 114.622 139.066C112.442 137.436 109.862 135.486 109.092 132.656C106.632 123.646 109.802 114.666 116.512 108.296C115.392 105.356 115.882 102.756 116.102 99.3962L112.672 102.276C112.012 100.556 110.732 98.8963 110.812 96.8763C111.022 91.3863 115.222 86.3463 120.382 84.8563C122.992 84.0963 124.932 85.5662 125.812 88.2362C128.172 84.4062 131.462 81.5062 135.932 80.5262C138.282 80.2162 140.612 79.2362 141.532 77.3062C146.292 75.0662 150.102 70.6763 150.572 65.0963C150.812 62.2963 149.892 59.9562 148.152 58.4362C147.452 57.8262 146.862 55.9662 145.962 55.5862L145.802 51.0562C145.702 48.7662 142.912 47.8262 140.982 48.3062C140.912 42.5762 148.562 39.5962 155.842 41.6362C156.242 34.6162 160.452 29.3363 166.272 26.3163L166.222 26.2762ZM178.602 93.1762C180.082 92.4062 180.782 91.0562 180.702 89.5862C180.522 86.0462 174.782 84.9763 170.792 86.6562C163.552 89.6962 160.182 98.1462 162.612 99.7162C163.072 100.006 164.482 100.526 165.202 100.156L178.602 93.1762ZM165.232 122.556C166.042 127.506 168.952 132.176 172.992 134.336C178.242 137.136 183.322 136.856 188.372 134.116C189.352 133.586 190.102 133.016 190.032 131.816C195.422 127.776 196.092 120.156 192.492 114.356C193.202 114.416 193.442 113.836 192.982 113.286L190.662 110.536C187.862 104.936 181.132 103.206 175.192 105.076C163.462 108.756 162.102 120.716 163.422 122.046C163.892 122.526 164.502 122.666 165.232 122.556ZM155.422 144.286L155.562 145.726C155.342 145.646 154.732 145.446 154.332 145.616C154.172 146.906 155.152 147.946 156.202 148.116C156.452 148.166 156.672 148.626 156.812 148.826C158.342 151.046 161.342 152.936 163.792 151.356C164.512 150.896 165.652 151.156 166.372 151.016C166.852 152.286 168.012 152.026 169.112 151.756C170.102 151.516 171.522 151.456 171.552 149.996C171.882 149.936 172.332 149.916 172.672 149.936C174.012 150.006 175.262 149.456 175.432 148.056C175.492 147.546 176.132 146.916 176.632 146.856C177.792 146.716 177.982 145.906 178.362 144.916C178.762 143.846 178.722 142.876 177.212 142.926L175.492 140.486C174.712 139.386 174.342 138.866 172.952 138.366C167.012 136.236 161.992 137.006 157.232 140.786C156.072 141.706 154.582 142.836 155.422 144.286Z" fill="#B1DACB"/>
<path d="M192.692 30.9763C191.592 31.1863 190.772 30.9563 189.892 29.8563C188.932 28.6563 185.402 28.6663 185.032 30.4963C184.462 33.2963 186.242 36.2563 188.122 38.1763C189.502 39.5963 190.702 41.9163 192.272 42.8963C195.152 44.6763 197.342 46.5863 200.092 48.7263C201.272 49.6363 203.912 49.6663 204.732 51.7463C210.192 50.3163 210.522 55.5463 213.122 55.1963C214.742 54.9763 215.862 52.2063 217.402 51.5863C220.122 50.4963 221.222 48.4063 225.532 47.7963L226.312 50.6263C239.772 49.6363 251.592 58.1063 255.082 71.1563C247.582 82.4763 248.572 92.9263 251.782 105.516C252.152 106.976 250.332 108.266 249.222 108.316C250.192 107.326 250.202 105.066 248.652 104.186C244.082 101.576 238.672 101.746 234.372 104.376C234.952 98.7163 238.572 96.3463 232.652 90.5663L233.542 86.2263L230.392 85.6763C229.572 85.5363 228.982 84.4363 228.782 83.3363L238.632 84.7663C239.742 84.9263 241.062 84.7663 241.532 84.1763C242.302 83.2163 242.232 81.7063 241.702 80.5163C240.322 77.4263 237.092 76.4563 234.252 75.1563C232.462 74.3363 231.642 74.1563 230.002 74.6263C230.452 72.5563 234.002 73.4763 233.972 71.0563C233.932 67.1863 229.032 70.0863 224.742 68.1163C224.152 68.7863 223.402 69.9263 222.832 70.0963C221.992 70.3363 221.272 69.6063 220.282 69.1263C218.992 68.5063 215.882 69.5063 215.172 70.7363C214.052 72.6763 212.412 72.3163 211.152 72.9063C212.002 70.2663 213.062 67.4063 211.052 64.5663C210.412 67.1563 210.202 69.4863 208.132 70.9663C207.192 71.6463 205.622 71.5963 204.762 71.3363C205.072 67.3063 200.022 64.7163 195.142 65.1963L193.642 62.5763C192.002 62.1363 188.942 61.7163 188.052 60.0763C186.372 56.9863 184.052 55.8363 180.332 56.0263C180.272 53.4463 178.522 51.7763 176.782 50.1263C174.562 48.0263 173.752 44.7963 171.292 42.7163C169.142 40.8963 169.882 37.2363 169.882 34.7363C169.882 31.4563 167.872 28.8563 166.192 26.2963C174.852 21.7963 185.872 23.9263 192.662 30.9963L192.692 30.9763ZM214.292 58.3763C214.132 57.3263 213.732 56.2963 213.222 56.2663C212.222 56.9263 211.612 57.6863 211.602 58.2463C211.602 58.7463 212.232 59.6363 212.822 59.8563C213.332 60.0463 214.512 59.5163 214.292 58.3763Z" fill="#BDDAD1"/>
<path d="M248.732 108.836C248.502 111.836 237.712 120.036 240.712 137.126C241.892 143.846 245.292 149.236 249.182 154.796L240.972 160.146L226.482 166.266C227.182 164.346 227.092 162.426 227.142 160.186L227.372 150.106C227.452 146.706 230.422 138.896 229.372 134.346C230.412 132.956 230.722 131.256 230.962 129.646L231.722 124.646C233.922 121.856 234.442 119.136 234.092 115.526L234.742 113.356C234.872 112.926 234.222 112.336 233.502 112.156C235.742 109.546 239.192 107.236 243.052 107.286L248.732 108.836Z" fill="#BDDAD1"/>
<path d="M192.692 30.9763L193.932 32.2662C193.842 32.7962 193.782 33.3963 193.962 33.9263C194.122 34.4063 194.912 34.4862 195.422 34.1662L197.782 37.0063C201.572 31.9163 206.772 30.7362 212.472 32.2162C219.852 34.1362 224.842 40.3162 225.532 47.7762C221.212 48.3862 220.122 50.4762 217.402 51.5662C215.852 52.1862 214.742 54.9562 213.122 55.1762C210.532 55.5262 210.202 50.2963 204.732 51.7263C203.912 49.6463 201.272 49.6162 200.092 48.7062C197.332 46.5662 195.152 44.6662 192.272 42.8762C190.702 41.9062 189.502 39.5762 188.122 38.1562C186.242 36.2362 184.472 33.2763 185.032 30.4763C185.402 28.6463 188.932 28.6363 189.892 29.8363C190.772 30.9363 191.582 31.1562 192.692 30.9562V30.9763Z" fill="#C7D3D6"/>
<path d="M240.982 160.136C241.592 160.936 242.282 161.716 243.222 162.016L262.022 168.026L269.312 169.156C270.052 169.266 270.642 168.866 270.602 168.406L274.402 169.906C282.202 173.776 290.832 175.516 299.372 176.896C298.062 178.466 295.842 178.596 293.582 178.796C284.462 179.606 279.342 180.416 270.352 174.696L267.512 181.236C266.572 180.696 266.692 178.796 266.012 178.126C263.652 175.796 260.952 173.816 257.922 172.176C254.642 170.406 248.052 171.776 245.802 176.746C245.692 177.566 246.912 179.386 245.682 179.986C243.452 176.556 242.632 172.216 240.612 168.186C239.742 167.076 237.612 169.236 236.632 169.676C228.792 173.276 220.132 173.196 212.162 170.716C217.502 169.146 222.042 168.116 226.482 166.246L240.972 160.126L240.982 160.136Z" fill="#9DC3B9"/>
<path d="M228.642 41.2264C225.412 36.2764 225.822 22.1163 228.222 22.4263C229.622 22.6063 229.442 24.3163 230.152 24.3963C231.982 24.6163 234.342 18.6263 238.952 15.3163C240.882 13.9263 245.442 23.2663 239.872 36.2963C238.372 39.8163 232.552 44.3764 228.642 41.2264Z" fill="#9DC3B9"/>
<path d="M249.222 108.306C249.042 108.326 248.742 108.666 248.732 108.846L243.052 107.296C239.182 107.246 235.742 109.556 233.502 112.166C233.002 112.746 232.362 113.296 232.252 114.066C231.772 114.386 231.472 114.866 231.352 115.446L230.082 116.956C229.532 117.616 227.282 117.626 227.222 116.646C226.912 111.526 230.342 106.836 234.382 104.366C238.682 101.736 244.082 101.576 248.662 104.176C250.212 105.056 250.192 107.326 249.232 108.306H249.222Z" fill="#779493"/>
<path d="M145.912 55.5463C143.132 54.3663 139.082 50.8563 139.612 49.4363C139.782 48.9863 140.352 48.4863 140.932 48.2663C142.852 47.7863 145.642 48.7263 145.752 51.0163L145.912 55.5463Z" fill="#9DC3B9"/>
<path d="M195.432 34.1664C194.912 34.4864 194.132 34.4064 193.972 33.9264C193.792 33.3964 193.852 32.7964 193.942 32.2664C194.572 32.9264 194.902 33.5164 195.442 34.1664H195.432Z" fill="#BDDAD1"/>
<path d="M160.732 182.566C160.502 182.656 160.192 182.646 160.032 182.506C159.942 181.756 160.842 181.876 160.732 182.566Z" fill="#9DC3B9"/>
<path d="M144.382 265.646L144.064 265.964L144.382 266.283L144.7 265.964L144.382 265.646Z" fill="#9DC3B9"/>
<path d="M192.492 114.356C196.092 120.156 195.422 127.776 190.032 131.816C185.382 134.126 180.032 133.106 176.822 129.486C173.362 125.576 173.002 120.126 175.542 115.686C177.392 112.446 180.602 110.536 184.032 110.266C187.462 109.996 190.742 111.546 192.492 114.366V114.356ZM191.742 117.556C191.742 115.556 190.122 113.936 188.122 113.936C186.122 113.936 184.502 115.556 184.502 117.556C184.502 119.556 186.122 121.176 188.122 121.176C190.122 121.176 191.742 119.556 191.742 117.556Z" fill="#779493"/>
<path d="M190.662 110.536L192.982 113.286C193.452 113.836 193.202 114.416 192.492 114.356C190.742 111.546 187.402 109.996 184.032 110.256C180.662 110.516 177.392 112.446 175.542 115.676C173.002 120.126 173.362 125.576 176.822 129.476C180.032 133.096 185.372 134.106 190.032 131.806C190.102 133.006 189.352 133.576 188.372 134.106C183.322 136.846 178.242 137.126 172.992 134.326C168.952 132.166 166.042 127.496 165.232 122.546C167.162 116.226 168.952 110.526 176.032 107.916C181.382 105.946 186.482 107.556 190.662 110.516V110.536Z" fill="#EEE5DD"/>
<path d="M175.492 140.486L177.212 142.926C177.372 144.266 177.042 145.556 176.632 146.856C176.132 146.916 175.502 147.546 175.432 148.056C174.152 148.056 172.852 148.626 172.672 149.936C172.332 149.916 171.872 149.936 171.552 149.996L166.372 151.016C165.662 151.156 164.512 150.896 163.792 151.356C161.302 150.686 159.052 150.016 156.812 148.826C156.672 148.626 156.452 148.156 156.202 148.116L155.552 145.716L155.412 144.276C159.972 137.716 167.812 137.246 175.482 140.476L175.492 140.486Z" fill="#CFB2D6"/>
<path d="M178.602 93.1763L165.202 100.156C164.492 100.526 163.072 100.016 162.612 99.7163C160.172 98.1463 163.552 89.6963 170.792 86.6563C174.782 84.9763 180.522 86.0463 180.702 89.5863C180.782 91.0563 180.082 92.4063 178.602 93.1763Z" fill="#8EA7A5"/>
<path d="M228.792 83.3063C226.972 83.0463 224.672 82.9663 223.382 81.5463C222.532 80.6163 222.762 78.2363 223.452 77.3963C225.262 75.1963 227.852 75.2163 230.012 74.5963C231.652 74.1263 232.472 74.3063 234.262 75.1263C237.112 76.4263 240.342 77.3963 241.712 80.4863C242.242 81.6763 242.312 83.1863 241.542 84.1463C241.072 84.7363 239.742 84.8963 238.642 84.7363L228.792 83.3063Z" fill="#9DC3B9"/>
<path d="M230.962 129.646C230.722 131.256 230.402 132.956 229.372 134.346C222.692 143.326 210.432 143.886 200.562 138.286C199.602 137.746 199.352 136.586 199.732 135.776C201.192 132.686 206.052 139.136 214.292 138.966C220.242 138.846 225.482 135.876 228.312 130.696C228.892 129.636 229.942 129.346 230.972 129.646H230.962Z" fill="#779493"/>
<path d="M211.172 72.8863C207.912 74.4163 204.702 75.3863 200.982 72.9062C200.542 75.7462 199.532 77.4562 197.992 78.4862C192.962 81.8662 186.822 76.9263 180.652 72.5963C183.632 70.8963 186.212 72.3262 188.402 74.3062C190.892 76.5562 195.042 77.5063 197.482 75.0363C198.882 73.6263 198.672 71.3462 198.982 69.5262L204.782 71.3062C205.642 71.5662 207.212 71.6162 208.152 70.9362C210.222 69.4562 210.432 67.1263 211.072 64.5363C213.082 67.3763 212.022 70.2363 211.172 72.8763V72.8863Z" fill="#9DC3B9"/>
<path d="M190.662 110.536C186.482 107.576 181.382 105.966 176.032 107.936C168.952 110.546 167.162 116.236 165.232 122.566C164.502 122.676 163.892 122.526 163.422 122.056C162.092 120.726 163.452 108.766 175.192 105.086C181.132 103.226 187.862 104.946 190.662 110.546V110.536Z" fill="#779493"/>
<path d="M175.492 140.486C167.822 137.256 159.982 137.726 155.422 144.286C154.582 142.836 156.072 141.706 157.232 140.786C161.992 137.006 167.012 136.226 172.952 138.366C174.342 138.866 174.712 139.386 175.492 140.486Z" fill="#BDDAD1"/>
<path d="M163.792 151.356C161.342 152.936 158.342 151.046 156.812 148.826C159.052 150.016 161.302 150.686 163.792 151.356Z" fill="#BDDAD1"/>
<path d="M171.552 149.996C171.522 151.456 170.102 151.516 169.112 151.756C168.012 152.026 166.852 152.286 166.372 151.016L171.552 149.996Z" fill="#BDDAD1"/>
<path d="M176.632 146.856C177.032 145.566 177.362 144.266 177.212 142.926C178.722 142.876 178.762 143.846 178.362 144.916C177.992 145.906 177.792 146.716 176.632 146.856Z" fill="#BDDAD1"/>
<path d="M155.562 145.716L156.212 148.116C155.152 147.946 154.182 146.906 154.342 145.616C154.732 145.446 155.342 145.646 155.572 145.726L155.562 145.716Z" fill="#BDDAD1"/>
<path d="M175.442 148.056C175.272 149.456 174.012 150.006 172.682 149.936C172.862 148.626 174.172 148.046 175.442 148.056Z" fill="#BDDAD1"/>
<path d="M231.352 115.436C231.472 114.846 231.772 114.376 232.252 114.056C232.152 114.766 231.762 114.956 231.352 115.436Z" fill="#BDDAD1"/>
<path d="M214.292 58.3763C214.512 59.5163 213.332 60.0464 212.822 59.8564C212.232 59.6364 211.592 58.7463 211.602 58.2463C211.602 57.6863 212.222 56.9264 213.222 56.2664C213.732 56.2964 214.132 57.3263 214.292 58.3763Z" fill="#C7D3D6"/>
<path d="M188.122 121.176C190.121 121.176 191.742 119.556 191.742 117.556C191.742 115.557 190.121 113.936 188.122 113.936C186.123 113.936 184.502 115.557 184.502 117.556C184.502 119.556 186.123 121.176 188.122 121.176Z" fill="#D5EBE9"/>
</svg>
